<?xml version="1.0" encoding="utf-8"?>

<!DOCTYPE svg PUBLIC "-//W3C//DTD SVG 1.1//EN" "http://www.w3.org/Graphics/SVG/1.1/DTD/svg11.dtd">
<svg version="1.1" id="Layer_1" xmlns="http://www.w3.org/2000/svg" xmlns:xlink="http://www.w3.org/1999/xlink" x="0px" y="0px"
	 viewBox="0 0 1433 1920" enable-background="new 0 0 1433 1920" xml:space="preserve">
<g>
	<path fill="#7B553E" stroke="#7B553E" stroke-width="0.3" d="M652.09,380.33c14.3199-3.15,29.04-4.25,43.68-3.82
		c11.07,0.06,22.03,1.71,32.95,3.21c13.53,2.58,26.96,5.88,39.9301,10.57c9.69,3.43,19.16,7.53,28.29,12.27
		c5.69,2.99,11.27,6.21,16.66,9.73c7.17,4.55,13.58,10.24,21.22,14.04c9.23,4.92,21.45,7.89,30.63,1.27
		c9.13-6.6,13.2-17.78,16.04-28.23c11.3,14.52,17.94,32.11,22.09,49.89c4.71,23.09,4.5,47.36-2.46,69.97
		c-2.31,5.86-4.71,11.7-7.89,17.15c-1.59,2.63-3.4,5.12-5.35,7.5c-3.68,3.61-7.34,7.26-10.55,11.3c0.31,0.4,0.92,1.2,1.23,1.6
		c0.13,3.37,0.03,6.74,0.21,10.11c0.46,8.59,0.67,17.18,1.06,25.77c-3.64-0.64-7.34-0.7599-11.01-0.86
		c0.05-6.64-0.13-13.29,0.56-19.9c0.25-2.22,0.03-4.85-1.9-6.27c-2.72-2-6.29-1.77-9.48-1.87c-9.67,0.14-19.33,0.92-29,0.5
		c-21.24-0.61-42.16-6.51-60.99-16.24c-27.91-14.58-52.05-35.05-76.86-54.17c-9.98-7.54-20.79-14.6-33.16-17.38
		c-11.77-2.63-24.93-1.43-35.02,5.61c-11.03,7.53-17.75,19.62-22.78,31.67c-5.6-5.65-12.06-11.21-20.12-12.71
		c-5.47-1.12-11.29,0.86-15.15,4.83c-5.84,5.89-8.47,14.11-10.15,22.04c-2.88,15-2.22,30.42-0.44,45.51
		c0.46,6.11,0.23,12.26,0.41,18.39c-3.68,0.04-7.35,0.37-11,0.78c0.12-4.31,0.16-8.61,0.52-12.9c0.43,0.66,0.87,1.33,1.32,2.01
		c-0.41-7.9,0.26-15.83-0.41-23.72c0.01-1.02-0.25-1.94-0.8-2.76c-9.68-23.06-15.51-48.47-11.77-73.5
		c1.64-8.73,4.29-17.44,9.29-24.85c4.55-6.87,11.49-12.43,19.71-14.01c9.58-1.64,19.11,2.12,26.84,7.56
		c-0.17-4.83-0.14-9.68,0.67-14.44c2.5-19.65,16.48-36.15,33.72-45.05C631.99,385.97,641.95,382.63,652.09,380.33z"/>
	<path fill="#F8B57E" stroke="#F8B57E" stroke-width="0.3" d="M622.97,482.08c10.09-7.04,23.25-8.24,35.02-5.61
		c12.37,2.78,23.18,9.84,33.16,17.38c24.81,19.12,48.95,39.59,76.86,54.17c18.83,9.73,39.75,15.63,60.99,16.24
		c9.67,0.42,19.33-0.36,29-0.5c3.19,0.1,6.76-0.13,9.48,1.87c1.93,1.42,2.15,4.05,1.9,6.27c-0.69,6.61-0.51,13.2599-0.56,19.9
		c-7.66-0.34-15.3-0.85-22.95-1.07c-0.01-3.14,0.25-6.3-0.16-9.42c-0.7-1.05-1.88-1.58-2.95-2.12
		c-27.65-12.03-59.07-13.85-88.39-7.59c-2.14,0.27-3.62,2.2-3.26,4.34c0.22,5.62-0.77,11.42,0.84,16.9
		c-4.44,1.09-8.84,2.37-13.06,4.1299c-6.29,2.6201-13.16,3.2401-19.88,3.7401c-9.85,0.44-19.84,0.19-29.46-2.11
		c-5.29-1.62-10.32-4.04-15.76-5.18c0.92-1.66,1.64-3.45,1.48-5.37c-0.11-4.66,0.23-9.34-0.2-13.98c-0.07-1.42-1.65-2.03-2.78-2.39
		c-29.5099-6.39-61.2-4.53-89.0099,7.68c-4.59,1.65-2.26,7.53-2.6,11.18c-8.65,0.41-17.29,0.82-25.94,1.27
		c-0.18-6.13,0.05-12.28-0.41-18.39c-1.78-15.09-2.44-30.51,0.44-45.51c1.68-7.93,4.31-16.15,10.15-22.04
		c3.86-3.97,9.68-5.95,15.15-4.83c8.06,1.5,14.52,7.06,20.12,12.71C605.22,501.7,611.94,489.61,622.97,482.08z"/>
	<path fill="#3C2515" stroke="#3C2515" stroke-width="0.3" d="M544.37,555.22c0.55,0.82,0.81,1.7401,0.8,2.76
		c0.67,7.89,0,15.82,0.41,23.72c-0.45-0.68-0.89-1.35-1.32-2.01c0.24-3.9,0.2-7.82,0.38-11.72c0.03-2.86,0.62-5.93-1.04-8.46
		l1.23,0.92C544.64,558.69,544.49,556.95,544.37,555.22z"/>
	<path fill="#7B553E" stroke="#7B553E" stroke-width="0.3" d="M583.28,579.36c27.81-12.21,59.5-14.07,89.0099-7.68
		c1.13,0.36,2.71,0.97,2.78,2.39c0.43,4.64,0.09,9.32,0.2,13.98c0.16,1.92-0.56,3.71-1.48,5.37c-21.67-6.02-44.48-6.22-66.77-4.47
		c-8.75,0.9-17.55,1.23-26.34,1.59C581.02,586.89,578.69,581.01,583.28,579.36z"/>
	<path fill="#7B553E" stroke="#7B553E" stroke-width="0.3" d="M754.37,571.6c29.32-6.2599,60.74-4.44,88.39,7.59
		c1.07,0.54,2.25,1.07,2.95,2.12c0.41,3.12,0.15,6.28,0.16,9.42c-20.33-0.45-40.56-3.6-60.92-2.56c-11.13,0.37-22.2,1.99-33,4.67
		c-1.61-5.48-0.62-11.28-0.84-16.9C750.75,573.8,752.23,571.87,754.37,571.6z"/>
	<path fill="#51515D" stroke="#51515D" stroke-width="0.3" d="M607.02,588.95c22.29-1.75,45.1-1.55,66.77,4.47
		c5.44,1.14,10.47,3.56,15.76,5.18c9.62,2.3,19.61,2.55,29.46,2.11c6.72-0.5,13.59-1.12,19.88-3.7401
		c4.22-1.7599,8.62-3.04,13.06-4.1299c10.8-2.6801,21.87-4.3,33-4.67c20.36-1.04,40.59,2.11,60.92,2.56
		c7.65,0.22,15.29,0.73,22.95,1.07c3.67,0.1,7.37,0.22,11.01,0.86c1.25,1.02,2.39,2.2401,3.1,3.72c-1.73,4.8-1.24,10.19,0.09,15.04
		c-0.03,2.65-1.03,5.15-1.94,7.6l-0.42,0.58c-5.39,5.28-9.42,11.82-12.61,18.62c-6.19,11.65-10.16,24.78-19.13,34.75
		c-9.4,9.57-22.79,13.9-35.75,15.85c-22.62,3.07-46.43-0.41-66.61-11.32c-5.3-2.79-10.05-6.88-12.76-12.3
		c-5.66-11.24-6.83-24.17-12.63-35.36c-1.85-3.46-4.88-7.22-9.2-7.04c-4.31-0.28-7.47,3.29-9.35,6.74
		c-5.94,11.14-7.04,24.11-12.58,35.41c-2.5,5.25-7.0099,9.22-12.04,12c-19.85,11.18-43.48,14.78-65.96,12.08
		c-14.06-1.94-28.96-6.46-38.54-17.57c-8.23-9.96-12.2-22.4901-18.05-33.83c-3.51-6.45-6.95-13.32-12.76-18.03l-0.09-0.29
		c-1.25-3.63-2.39-7.36-2.13-11.25c0.2401-5.22-1.71-11.84,3.27-15.47c3.65-0.41,7.32-0.7401,11-0.78
		c8.65-0.45,17.29-0.86,25.94-1.27C589.47,590.18,598.27,589.85,607.02,588.95 M591.47,597.6c-6.67,1.22-13.65,3.27-18.53,8.2401
		c-3.95,3.92-5.62,9.65-5.3,15.1299c0.64,9.67,0.58,19.39,1.27,29.07c2.8701,10.56,9.19,20.73,18.92,26.22
		c5.52,3.23,11.86,4.57,18.1,5.58c14.2,2.45,28.9,2.42,42.99-0.72c7.15-1.88,14.89-2.65,20.95-7.28
		c10.79-7.82,15.4-21.23,17.71-33.83c1.42-8.82,3.53-18.84-1.83-26.8c-6.65-9.69-18.77-13.52-29.82-15.4
		c-19.3-0.46-38.61-0.74-57.91-0.92C595.81,596.9,593.62,597.2,591.47,597.6 M763.09,597.31c-7.04,1.13-14.4301,3.02-19.76,8.03
		c-4.3,3.92-6.11,9.94-5.84,15.64c0.82,9.63,0.59,19.31,1.25,28.95c2.6,9.45,7.81,18.56,15.89,24.36c5.5,4.02,12.16,6.03,18.81,7.14
		c15.03,2.84,30.65,3.02,45.61-0.37c7.09-1.85,14.76-2.66,20.76-7.27c10.75-7.82,15.33-21.19,17.65-33.75
		c1.33-8.56,3.5099-18.1-1.32-26c-6.37-10.2599-18.9-14.24-30.16-16.21c-18-0.45-36.01-0.71-54.01-0.89
		C769,596.86,766.02,596.81,763.09,597.31z"/>
	<path fill="#F8B57E" stroke="#F8B57E" stroke-width="0.3" d="M591.47,597.6c2.15-0.4,4.34-0.7,6.55-0.71
		c19.3,0.18,38.61,0.46,57.91,0.92c11.05,1.88,23.17,5.71,29.82,15.4c5.36,7.96,3.25,17.98,1.83,26.8
		c-2.31,12.6-6.92,26.01-17.71,33.83c-6.06,4.6299-13.8,5.4-20.95,7.28c-14.09,3.14-28.79,3.17-42.99,0.72
		c-6.24-1.01-12.58-2.35-18.1-5.58c-9.73-5.49-16.05-15.66-18.92-26.22c-0.69-9.68-0.6299-19.4-1.27-29.07
		c-0.32-5.48,1.35-11.21,5.3-15.1299C577.82,600.87,584.8,598.82,591.47,597.6 M620.33,617.43c-6.83,2.59-11.16,10.37-9.54,17.53
		c1.38,7.73,9.33,13.5,17.12,12.31c8.6-0.79,15.1801-9.77,13.35-18.22C639.84,619.78,628.98,613.7,620.33,617.43z"/>
	<path fill="#F8B57E" stroke="#F8B57E" stroke-width="0.3" d="M763.09,597.31c2.93-0.5,5.91-0.45,8.8799-0.37
		c18,0.18,36.01,0.44,54.01,0.89c11.26,1.97,23.79,5.95,30.16,16.21c4.83,7.9,2.65,17.44,1.32,26c-2.32,12.56-6.9,25.93-17.65,33.75
		c-6,4.61-13.67,5.42-20.76,7.27c-14.96,3.39-30.58,3.21-45.61,0.37c-6.65-1.11-13.31-3.12-18.81-7.14
		c-8.08-5.8-13.29-14.91-15.89-24.36c-0.66-9.64-0.43-19.32-1.25-28.95c-0.27-5.7,1.54-11.72,5.84-15.64
		C748.66,600.33,756.05,598.44,763.09,597.31 M795.18,617.27c-6.41,2.22-10.9,8.98-10.22,15.77c0.36,8.39,8.59,15.34,16.93,14.28
		c9.13-0.55,16.17-10.48,13.55-19.27C813.47,619.46,803.43,614.02,795.18,617.27z"/>
	<path fill="#3D3D4A" stroke="#3D3D4A" stroke-width="0.3" d="M883.02,611.42c-1.33-4.85-1.82-10.24-0.09-15.04
		C883.49,601.37,883.13,606.41,883.02,611.42z"/>
	<path fill="#553013" stroke="#553013" stroke-width="0.3" d="M620.33,617.43c8.65-3.73,19.51,2.35,20.93,11.62
		c1.83,8.45-4.75,17.43-13.35,18.22c-7.79,1.19-15.74-4.58-17.12-12.31C609.17,627.8,613.5,620.02,620.33,617.43 M627.45,624.53
		c-2.96,0.92-4.57,4.86-2.67,7.4399c1.83,3.29,7.14,3.0601,8.75-0.3199C635.82,627.9,631.46,622.92,627.45,624.53z"/>
	<path fill="#553013" stroke="#553013" stroke-width="0.3" d="M795.18,617.27c8.25-3.25,18.29,2.19,20.26,10.78
		c2.62,8.79-4.42,18.72-13.55,19.27c-8.34,1.06-16.57-5.89-16.93-14.28C784.28,626.25,788.77,619.49,795.18,617.27 M800.35,625.36
		c-2.64,1.9-2.54,6.27,0.1801,8.06c2.87,2.27,7.72,0.16,7.92-3.54C809.17,625.65,803.56,622.48,800.35,625.36z"/>
	<path fill="#7B553E" stroke="#7B553E" stroke-width="0.3" d="M542.69,619.6c5.81,4.71,9.25,11.58,12.76,18.03
		c-0.3,12.78,0.34,25.57,0.33,38.36c0.93,17.4,7.85,35.39,21.97,46.29c16.1,12.52,37.39,15.15,57.18,14.81
		c4.2,0.31,7.74-2.22,11.57-3.46c19.28-7.12,40.84-6.65,60.26-0.33c2.35,0.67,4.86,2.07,7.3,0.85c19.52-6.81,41.33-7.97,61.02-1.17
		c3.73,1.04,7.09,3.21,10.9,3.97c14.37,0.57,29.07-0.49,42.7-5.4c12.05-4.21,22.91-12.3,29.5-23.34c7-11.72,10.01-25.6,9.68-39.17
		c-0.05-10.28,0.37-20.55,0.19-30.82c3.19-6.8,7.22-13.34,12.61-18.62c0.08,2.36,0.14,4.72,0.22,7.1l0.87-0.4
		c-0.23,0.23-0.69,0.68-0.93,0.9c-0.17,29.22-0.1,58.45-0.03,87.68c1.32,0.08,2.65,0.17,4,0.27c-1.25,2.28-0.67,4.93-0.79,7.41
		c-1.99,7.37-0.92,15.21-0.45,22.73l1.34,0.89l0.03,0.42c0.36,6.37,0.42,12.76,0.68,19.14c0.1,8.39,1.36,16.94-0.89,25.18
		c0.49,0.11,1.47,0.33,1.96,0.44c-0.76,0.41-1.51,0.81-2.26,1.2c-1.55,6.35-3.66,12.59-6.7,18.39
		c-5.63,11.08-14.58,20.26-25.09,26.8c-15.28,9.26-33.04,13.51-50.65,15.36c-7.17,0.39-14.34-0.03-21.5099,0.19l0.0099-1.07
		c-3.47,0.25-6.9399,0.47-10.4,0.83l-0.79,0.06c-5.4301-0.17-10.84-0.11-16.26-0.14c-4.81-0.12-9.58,0.99-14.38,0.35
		c-15.21-0.16-30.47,0.28-45.67-0.19c-3.6899,0.41-7.39,0.71-11.1,0.54l0.89-0.21c2.48-0.23,4.97-0.41,7.44-0.79
		c-3.51-1.08-7.34-0.96-10.77,0.32c-8.98,0.54-17.99-0.3-26.95,0.37c-10.15-0.33-20.31,0.08-30.45-0.23
		c-15.05-1.5-30.11-4.78-43.8101-11.35c-12.55-6.1-23.68-15.48-30.72-27.63c-2.73-4.8199-5.1-9.87-6.62-15.2
		c-0.65-1.77-0.79-4.03-2.68-4.94l1.31,0.48c-1.05-5.1-2.38-10.23-2.13-15.47c0.17-3.94,0.4-7.86,0.45-11.8
		c0.3-6.54,0.46-13.09,0.66-19.63c0.42-10.21,0.56-20.41,1.08-30.61c-0.4-0.43-1.2-1.31-1.6-1.74c1.9301-0.1,3.8701-0.25,5.8-0.49
		l0.67-0.12c-0.04-28.99,0.11-57.99-0.08-86.98l-0.62-0.5099l-0.92-0.72C542.61,624.15,542.7,621.87,542.69,619.6 M672.24,761.24
		c-2.61,1.01-4.19,3.97-3.91,6.7c0.49,2.8,3.38,3.98,5.66,5.06c12.27,5.34,25.5,8.99,38.95,9.04c13.7-0.71,27.26-4.42,39.5-10.57
		c5.21-2.24,2-11.77-3.43-10.03c-9.1,3.01-18.44,5.46-27.99,6.49c-13.44,1.89-27.03-0.8-39.96-4.41
		C678.1,762.88,675.29,761.12,672.24,761.24z"/>
	<path fill="#F8B57E" stroke="#F8B57E" stroke-width="0.3" d="M702.62,629.54c1.88-3.45,5.04-7.02,9.35-6.74
		c4.32-0.18,7.35,3.58,9.2,7.04c5.8,11.19,6.97,24.12,12.63,35.36c2.71,5.42,7.46,9.51,12.76,12.3
		c20.18,10.91,43.99,14.39,66.61,11.32c12.96-1.95,26.35-6.28,35.75-15.85c8.97-9.97,12.94-23.1,19.13-34.75
		c0.18,10.27-0.24,20.54-0.19,30.82c0.33,13.57-2.68,27.45-9.68,39.17c-6.59,11.04-17.45,19.13-29.5,23.34
		c-13.63,4.91-28.33,5.97-42.7,5.4c-3.81-0.76-7.17-2.93-10.9-3.97c-19.69-6.8-41.5-5.64-61.02,1.17
		c-2.44,1.22-4.95-0.1801-7.3-0.85c-19.42-6.32-40.98-6.79-60.26,0.33c-3.83,1.24-7.37,3.77-11.57,3.46
		c-19.79,0.34-41.08-2.29-57.18-14.81c-14.12-10.9-21.04-28.89-21.97-46.29c0.0099-12.79-0.63-25.58-0.33-38.36
		c5.85,11.34,9.82,23.87,18.05,33.83c9.58,11.11,24.48,15.63,38.54,17.57c22.48,2.7,46.11-0.9,65.96-12.08
		c5.03-2.78,9.54-6.75,12.04-12C695.58,653.65,696.68,640.68,702.62,629.54 M689.15,701.01c-1.34,1.78-3.12,4.76-0.57,6.4
		c12.8,8.8701,30.68,7.9,43.55-0.31c2.41-2.39-1.11-7.91-4.13-5.09c-7.37,4.54-16.4,6.91-24.94,4.68
		C698.01,705.83,693.97,702.46,689.15,701.01z"/>
	<path fill="#FDC18B" stroke="#FDC18B" stroke-width="0.3" d="M522.88,629.65c4.57-6.14,13.6-7,19.94-3.22l0.92,0.72
		c0.07,29.2,0.01,58.4,0.03,87.61c-1.93,0.24-3.87,0.39-5.8,0.49c-5.9,0.95-11.52-3.57-11.6299-9.57
		c0.0099-9.36-0.23-18.72-1.15-28.05c-0.79-9.67-2.48-19.28-5.12-28.62C518.32,642.55,518.62,635.1,522.88,629.65z"/>
	<path fill="#FEFEFE" stroke="#FEFEFE" stroke-width="0.3" d="M627.45,624.53c4.01-1.61,8.37,3.37,6.08,7.12
		c-1.61,3.38-6.92,3.61-8.75,0.3199C622.88,629.39,624.49,625.45,627.45,624.53z"/>
	<path fill="#FDC18B" stroke="#FDC18B" stroke-width="0.3" d="M881.75,626.3c5.97-3.41,14-2.77,18.9,2.22
		c4.67,5.39,5.54,13.07,3.78,19.8c-2.44,8.95-4.33,18.07-5.09,27.33c-0.96,9.31-1.35,18.68-1.19,28.04
		c-0.17,3.26-0.76,6.89-3.4,9.13c-2.67,2.46-6.53,2.69-9.96,2.33c-1.35-0.1-2.68-0.19-4-0.27c-0.07-29.23-0.14-58.46,0.03-87.68
		C881.06,626.98,881.52,626.53,881.75,626.3z"/>
	<path fill="#FEFEFE" stroke="#FEFEFE" stroke-width="0.3" d="M800.35,625.36c3.21-2.88,8.82,0.29,8.1,4.52
		c-0.2,3.7-5.05,5.81-7.92,3.54C797.81,631.63,797.71,627.26,800.35,625.36z"/>
	<path fill="#3C2515" stroke="#3C2515" stroke-width="0.3" d="M543.74,627.15l0.62,0.5099c0.19,28.9901,0.04,57.9901,0.08,86.98
		l-0.67,0.12C543.75,685.55,543.81,656.35,543.74,627.15z"/>
	<path fill="#F8A056" stroke="#F8A056" stroke-width="0.3" d="M689.15,701.01c4.8199,1.45,8.86,4.82,13.91,5.68
		c8.54,2.23,17.57-0.14,24.94-4.68c3.02-2.82,6.54,2.7,4.13,5.09c-12.87,8.21-30.75,9.1801-43.55,0.31
		C686.03,705.77,687.81,702.79,689.15,701.01z"/>
	<path fill="#6E442B" stroke="#6E442B" stroke-width="0.3" d="M883.55,745.29c-0.47-7.52-1.54-15.36,0.45-22.73
		c0.5,7.86,0.48,15.75,0.89,23.62L883.55,745.29z"/>
	<path fill="#F8B57E" stroke="#F8B57E" stroke-width="0.3" d="M672.24,761.24c3.05-0.12,5.86,1.64,8.82,2.28
		c12.93,3.61,26.52,6.3,39.96,4.41c9.55-1.03,18.89-3.48,27.99-6.49c5.43-1.74,8.64,7.79,3.43,10.03
		c-12.24,6.15-25.8,9.86-39.5,10.57c-13.45-0.05-26.68-3.7-38.95-9.04c-2.28-1.08-5.17-2.26-5.66-5.06
		C668.05,765.21,669.63,762.25,672.24,761.24z"/>
	<path opacity="0.95" fill="#614332" stroke="#614332" stroke-width="0.3" enable-background="new    " d="M679.43,853
		c3.43-1.28,7.26-1.4,10.77-0.32c-2.47,0.38-4.96,0.56-7.44,0.79C681.93,853.35,680.26,853.12,679.43,853z"/>
	<path fill="#F8B57E" stroke="#F8B57E" stroke-width="0.3" d="M652.48,853.37c8.96-0.67,17.97,0.17,26.95-0.37
		c0.83,0.12,2.5,0.35,3.33,0.47l-0.89,0.21c-4.6,1.24-9.37,0.32-14.05,0.41c5.27,7.31,11.9,13.52,17.67,20.43
		c28.48,32.28,57.17,64.38,85.6,96.7c-17.34,24.73-34.58,49.55-52.13,74.14c-29.52-41.65-58.78-83.51-88.08-125.31
		c2.84-0.22,5.69-0.26,8.54-0.33c4.54-0.09,9.08-0.1299,13.62-0.27c1.12-0.18,2.7401,0.11,3.35-1.13c0.56-3.7,0.14-7.47,0.22-11.19
		c0.03-2.43,0.12-4.86,0.16-7.27c0.18-6.89,0.28-13.78,0.21-20.66c0-0.71,0-2.11,0-2.81c-0.07-3.04-0.07-6.07-0.03-9.1
		c0.02-2.62,0.08-5.22,0.14-7.82c0.03-1.74,0.06-3.46,0.08-5.17C655.6,853.97,654.04,853.65,652.48,853.37z"/>
	<path fill="#F6986D" stroke="#F6986D" stroke-width="0.3" d="M681.87,853.68c3.71,0.17,7.41-0.13,11.1-0.54
		c15.2,0.47,30.46,0.03,45.67,0.19c4.7,1.3,9.57,0.3,14.36,0.34c5.43-0.18,10.9,0.51,16.28-0.55l0.79-0.06
		c2.73-0.13,5.46-0.26,8.19-0.6c0.92,1.5,0.72,3.23,0.69,4.94c-0.08,2.72-0.03,5.45-0.01,8.19c-0.01,1.87-0.01,3.7599,0.02,5.66
		c0.02,2.79,0.06,5.59,0.08,8.4c0,0.61,0,1.83-0.0099,2.43c-0.0601,7.4-0.1201,14.8,0.08,22.2c0.12,2.93,0.2,5.87,0.25,8.8199
		c0.03,2.03,0.09,4.07,0.18,6.12c2.63,0.05,5.27,0.15,7.91,0.23c6.51,0.06,13.02,0.35,19.53,0.51
		c-11.71,17.2599-24.07,34.07-35.89,51.2599C742.66,938.9,713.97,906.8,685.49,874.52c-5.77-6.91-12.4-13.12-17.67-20.43
		C672.5,854,677.27,854.92,681.87,853.68z"/>
	<path opacity="0.94" fill="#CC977A" stroke="#CC977A" stroke-width="0.3" enable-background="new    " d="M738.64,853.33
		c4.8,0.64,9.57-0.47,14.38-0.35c5.42,0.03,10.83-0.03,16.26,0.14c-5.38,1.06-10.85,0.37-16.28,0.55
		C748.21,853.63,743.34,854.63,738.64,853.33z"/>
	<path fill="#8D9194" stroke="#8D9194" stroke-width="0.3" d="M616.21,899.16c12.41-8.8199,26.38-15.1299,40.77-19.96
		c0.07,6.88-0.03,13.77-0.21,20.66c-0.1,1.67-0.25,3.34-0.38,5.02c-12.4,3.29-24.32,9.07-33.82,17.77
		c-2.66,2.41-5.11,5.04-7.35,7.85c-11.3,14.34-16.12,32.68-17.5,50.62c-1.8199,25.15,1.98,50.3199,7.23,74.86
		c2.95,14.13,7.03,27.99,10.71,41.9501c-7.86,1.98-15.1299,6.22-20.65,12.1599c-7.83-24.72-14.52-49.88-18.38-75.5499
		c-1.19-9.17-2.29-18.35-2.61-27.59c-0.56-12.41-0.09-24.84,1.34-37.17c0.85-7.3101,2.4-14.54,4.67-21.54
		c3.55-10.83,9-21.02,16.1299-29.93C601.89,911,608.87,904.81,616.21,899.16z"/>
	<path fill="#8D9194" stroke="#8D9194" stroke-width="0.3" d="M779.03,882.08c10.75,1.71,21.15,5.65,30.27,11.61
		c3.22,2.08,6.06,4.75,9.61,6.31h-1.1c9.14,8.09,16.55,17.97,22.54,28.58c1.76,3.53,3.58,7.05,5.26,10.63
		c4.63,10.34,8.22,21.12,11.2,32.05c4.05,15.65,6.91,31.6,8.72,47.67c0.41,3.58,2.22,6.7599,3.47,10.09
		c5.76,15.04,8.41,31.04,10.41,46.96c1.04,9.09,1.89,18.2001,2.69,27.3201c-1.72-0.52-3.43-1.03-5.13-1.52
		c-0.35,1.37-0.74,2.74-1.17,4.12c-0.43-2.23-0.69-4.65-2.18-6.4501c-2.01-1.61-4.36-2.7-6.57-3.98
		c-1.79,2.0701-3.48,4.22-4.93,6.54c-0.95,0.3199-1.9,0.65-2.84,0.98c0.0699-12.2-0.02-25.53-7.55-35.8099
		c-4.81-6.8401-13.64-10.5701-21.86-8.4901c-6.49,1.03-12.7,4.2001-17.08,9.14c-5.04,5.49-10.35,10.7201-15.3,16.3
		c-0.26-0.37-0.79-1.1-1.06-1.46c-0.38-2.7001-0.61-5.4-1.02-8.0801c-2.94,0.02-5.8799,0.1-8.81,0c-2.22-0.2-4.43-0.52-6.62-0.7899
		c9.85-14.5,20.94-28.2201,33.72-40.25c1.93-1.78,3.74-3.6901,5.41-5.7301c4.17-3.4099,8.48-6.66,12.91-9.7399
		c4.61-2.73,8.44-7.02,9.64-12.35c2.31-10.04-0.92-20.15-3.52-29.78c-4.75-16.74-11.27-33.33-21.72-47.38
		c-2.69-3.38-5.44-6.79-8.86-9.44c-0.45-0.29-1.36-0.86-1.81-1.14c-5.69-4.11-11.34-8.46-18.02-10.86
		c-2.79-1.22-5.71-2.05-8.62-2.85C778.91,896.88,778.97,889.48,779.03,882.08 M845.2,1030.95l0.2,0.4
		c-2.33,1.3301-4.02,3.41-5.7401,5.4c-0.83,0.83-1.23,1.92-1.58,3.02c3.21,1.28,6.72,1.4199,9.99,2.52c1.5,0.39,3.06,0.39,4.62,0.38
		c-0.06-4.5-1.95-8.6801-3.9-12.62C847.57,1030.3,846.38,1030.6,845.2,1030.95z"/>
	<path fill="#E8E9EA" stroke="#E8E9EA" stroke-width="0.3" d="M779.11,904.28c2.91,0.8,5.83,1.6299,8.62,2.85
		c5.92,3.75,11.79,7.63,18.02,10.86c0.45,0.28,1.36,0.85,1.81,1.14l-0.58,0.83c-6.51-0.16-13.02-0.45-19.53-0.51
		c-2.74-2.08-5.44-4.19-8.09-6.35C779.31,910.15,779.23,907.21,779.11,904.28z"/>
	<path fill="#E8E9EA" stroke="#E8E9EA" stroke-width="0.3" d="M639.42,919.72c5.72-4.21,11.42-8.45,17.19-12.59
		c-0.08,3.72,0.34,7.49-0.22,11.19c-0.61,1.24-2.23,0.95-3.35,1.13C648.5,919.59,643.96,919.63,639.42,919.72z"/>
	<path fill="#E6E7E8" stroke="#E6E7E8" stroke-width="0.3" d="M581,925.06c5.25-1.72,10.2-4.33,15.16-6.75
		c-7.1299,8.91-12.58,19.1-16.1299,29.93c-3.58-7.04-12.0601-10.99-19.72-8.88c-9.55,2.13-15.6,13.42-12.15,22.57
		c2.53,7.75,11.02,13.03,19.09,11.55c3.04-0.34,5.66-1.99,8.11-3.7c-1.43,12.33-1.9,24.7599-1.34,37.17
		c-4.96-2.62-10.94-3.54-16.17-1.13c-9.96,3.67-13.87,17.36-7.52,25.83c5.53,8.8099,18.9,10.01,26.3,2.89
		c3.86,25.6699,10.55,50.83,18.38,75.5499c-9.31,9.98-13.24,24.6801-9.92,37.9401c2.42,10.4299,9.21,19.46,17.7599,25.73
		c4.75,5.53,12.1801,7.88,19.13,9.2c16.89,2.89,34.82-6.02,42.85-21.12c7.09-12.88,6.93-29.99-1.79-42.0599
		c-4.36-7.1901-10.07-13.74-17.53-17.8101c4.55-3.6,7.69-9.13,7.42-15.0399c0.14-10.7101-11.73-19.8-22.01-16.16
		c-7.93,2.03-13.65,10.1-12.69,18.26c0.14,2.88,1.47,5.51,2.77,8.03c-1.8,0.2-3.59,0.48-5.34,0.87
		c-3.68-13.9601-7.7599-27.8201-10.71-41.9501c-5.25-24.54-9.05-49.71-7.23-74.86c1.38-17.94,6.2-36.28,17.5-50.62
		c2.8701,4.12,5.4,8.46,8.23,12.61c-4.4,5.08-6.79,12.26-4.4,18.8c2.88,9.16,14.54,14.79,23.23,10.06
		c19.29,28.84,38.48,57.77,59.3799,85.47c3.4301,4.4901,6.98,8.9,10.72,13.15c-3.81-0.1699-7.78-1.0699-11.46,0.3301
		c-5.01,1.83-9.5,5.7799-11.07,11c-1.61,5.23-0.98,11.3099,2.46,15.71c4.69,6.7,14.37,9.29,21.69,5.47
		c9.02-3.99,12.95-16.62,7.01-24.71c5.33-4.14,9.32-9.65,13.57-14.8201c9.11-11.3999,17.75-23.1499,26.43-34.87
		c2.15,3.2101,4.22,6.8301,7.96,8.41c6.8,3.97,16.32,2.3101,21.33-3.78c4.84-5.34,5.93-13.7399,2.25-19.9999
		c-2.89-5.08-8.26-8.06-13.86-9.18c12.52-17.69,24.97-35.4301,36.95-53.4901c2.37-3.3799,4.22-7.14,7.15-10.09
		c5.7401,10.94,9.73,22.73,12.85,34.66c2.14,8.77,4.83,17.64,4.32,26.77c0.54,6.83-8.34,9.2-7.94,16.08
		c-4.43,3.08-8.74,6.33-12.91,9.7399c-5.54,3.3401-10.13,7.9901-14.81,12.39c-9.61,9.17-18.02,19.4601-26.12,29.9501
		c-9.79-1.01-18.92,8.1-18.24,17.85c-0.15,4.39,2.26,8.1899,4.44,11.8099c-8.71,14.3401-15.93,29.89-19,46.4801
		c-1.42,9.0499-1.73,19.0499,3.22,27.1499c2.64,4.89,7.7401,7.55,11.33,11.62c3.04,3.51,7.86,4.05,12.22,3.9401
		c3.94,0.36,8.2,0.89,11.8199-1.12c3.27-1.61,5.7401-5.25,4.98-8.98c-0.72-3.9301-4.13-6.61-7.52-8.25
		c2.47-1.61,5.2-2.8101,7.51-4.65c5.04-4.58,7.35-12.29,4.74-18.72c-2.46-7.17-9.94-12.38-17.58-11.5801
		c-4.68,0.04-8.47,3-12.28,5.3101c3.05-12.97,9.19-24.9401,15.7-36.46c9.65-0.54,17.14-10.91,14.73-20.27
		c0.71-0.5701,1.43-1.11,2.18-1.62c0.27,0.36,0.8,1.09,1.06,1.46c4.95-5.58,10.26-10.8101,15.3-16.3
		c4.38-4.9399,10.59-8.11,17.08-9.14c7.21,1.17,14.62,4.3601,18.35,11.01c-7.71,0.55-15.11,5.87-16.8799,13.5801
		c-2.6201,9.0599,3.85,19.36,13.0099,21.23c3.16,0.73,6.39,0.02,9.58-0.11c1.27-0.0601,2.54-0.0601,3.83-0.05
		c1.52,11.23,1.43,22.62,0.34,33.88c-3.5099-1.49-7.23-2.84-11.1-2.51c-8.85,0.28-16.34,8.53-16.21,17.3
		c-0.2,6.49,3.81,12.72,9.51,15.6899c3.38,1.8301,7.37,1.55,11.09,1.99c-2.51,6.78-5.79,13.54-11.12,18.5701
		c-1.08,1.1-2.54,1.61-3.94,2.15c-4.11-5.03-11.3-5.92-17.25-4.26c-4.77,0.21-10.42,1.38-12.61,6.1899
		c-2.41,5.51,2.36,11.0701,7.41,12.8101c3.57,1.7,7.53,0.9299,11.25,0.22c3.59-0.29,7.43-0.45,10.36-2.8199
		c1.16,0.2699,2.34,0.5299,3.53,0.7899c-8.26,4.01-10.65,15.88-5.68,23.3301c4.2,7.5199,14.53,10.58,22.22,6.8099
		c8.61-3.78,12.68-15.02,8.29-23.39c-2.46-6.1-8.83-9.13-14.95-10.21c5.9-4.1,10.67-9.75,13.8199-16.2001
		c4.32-7.9199,7.15-16.58,8.69-25.4399c0.5-0.37,1.5-1.1,1.9901-1.47c0.58,5.48-1.22,11.4099,1.22,16.5499
		c-1.15,2.39-1.66,5.01-1.5,7.66c0.43,26.9401-0.48,53.9,0.36,80.8201c-0.12,28.73,0,57.45-0.07,86.1799
		c-0.03,2.78-0.08,5.61,0.52,8.36c-0.91,2.15-0.52,4.52-0.56,6.8c-4.82,0.2899-9.66,0.39-14.48-0.0701
		c2.98-3.38,6.09-7.01,6.56-11.6899c1.8-10.4501-7.85-20.9301-18.44-19.83c-8.91,0.24-16.52,8.5699-16.24,17.4099
		c-0.01,5.37,2.73,10.54,6.94,13.8401c-7.51,1.1599-15.16,0.2699-22.72,0.5099c-9.05-0.11-18.11,0.28-27.15-0.1899
		c5.28-4.9401,8.7599-12.66,5.94-19.78c-3.15-10.7999-18.04-15.61-26.8-8.45c-9.24,6.2899-9.4,21.5599-0.15,27.9399
		c-8.2,1.0901-16.52,0.2201-24.76,0.51c-8.38-0.14-16.78,0.34-25.13-0.2999c2.58-2.9801,5.72-5.8301,6.38-9.92
		c2.5-8.78-3.39-19.03-12.36-20.99c-8.4-2.54-18.27,2.48-20.93,10.89c-2.65,6.98-0.05,15.1699,5.72,19.77
		c-4.2,0.9099-8.51,0.5-12.76,0.5499c-12.33-0.1699-24.66,0.28-36.98-0.21c4.53-4.04,7.83-9.9401,6.82-16.1901
		c-0.77-9.86-11.21-17.4299-20.81-15.0699c-8.94,1.5-15.43,10.91-13.66,19.8099c0.38,4.66,3.59,8.17,6.59,11.4601
		c-15,0.46-30.01,0.01-45.01,0.22c-1.44-0.26-3.36,0.4-4.48-0.62c1.84-2.25,4.17-4.21,5.18-7.02c3.35-7.51,0.46-17.4199-6.76-21.53
		c-2.84-1.72-6.13-2.37-9.29-3.1899c-0.6201-9-0.1801-18.03-0.38-27.03c-0.56-20.99,0.08-41.97,0-62.95
		c0.05-5.7101-0.89-11.4501,0.24-17.11c0.09,3.74,0.26,7.48,0.4,11.23c11.44,0.2,20.42-12.54,16.29-23.25
		c-2.27-6.78-8.74-10.76-15.48-12.01c-0.25-9.91-0.3799-19.85-0.02-29.76c3.64-1.36,7.59-2.36,10.57-5
		c6.02-5.26,7.77-14.9401,3.46-21.79c-2.79-5.4299-8.9-8.4199-14.83-8.64c-0.55,8.88,0.37,17.8101-0.48,26.67
		c-1.22-15.0599,0.09-30.21-0.25-45.3099c-0.32-4.8301,0.98-9.91-0.91-14.52l0.02-0.16c0.29-0.47,0.85-1.4,1.14-1.87
		c0.22,1.49,0.47,3,0.73,4.51c8.49-0.38,16.5-7.23,16.89-15.96c1.21-9.65-7.2-19.26-16.98-19.02c-4.76-0.23-8.9,2.4199-12.98,4.48
		c-14.47-3.2001-28.99-6.1901-43.51-9.1901c-1.91-0.4099-3.81-0.8199-5.71-1.24c0.02-0.77,0.05-2.3099,0.06-3.0699
		c0.29-0.28,0.85-0.84,1.14-1.12c0.43-0.03,1.31-0.1,1.74-0.13l0.18-0.75c-0.39,0.03-1.16,0.08-1.55,0.1
		c1.86-2.9301,1.58-6.51,2.06-9.8c0.74-7.1399,2.18-14.1899,2.57-21.36c0.16-3.37,1.05-6.65,1.92-9.8799
		c-0.33-0.75-0.99-2.23-1.33-2.97c1.06-0.93,2.59-1.63,2.81-3.15c2.0699-9.47,4.54-18.87,7.83-27.9901
		c3.88-11.47,9.37-22.46,16.64-32.16c1.52-2.1,2.82-4.36,3.72-6.8l-0.65-0.71c2.98-1.35,6.09-2.6,8.53-4.85
		C557.6,931.56,569.14,926.87,581,925.06 M634.37,1004.44c-8.93,0.39-16.61,8.62-16.21,17.57c-0.41,9.39,8.58,17.71,17.82,17.27
		c9.38-0.04,17.72-8.85,16.94-18.26C652.78,1011.57,643.76,1003.53,634.37,1004.44 M701.32,1136.38
		c-9.56,2.64-15.05,14.29-10.96,23.34c3.18,8.78,14.26,13.03,22.72,9.4501c7.12-2.64,11.77-10.63,10.61-18.13
		C722.88,1140.66,711.2,1133.02,701.32,1136.38 M633.37,1201.41c-7.14,0.76-13.27,6.34-14.82,13.3199
		c-2.24,9.15,4.08,19.4501,13.48,21.02c10.5699,2.62,21.85-7,20.92-17.84C652.73,1208.1,643.12,1199.8,633.37,1201.41
		 M703.38,1201.46c-8.97,1.4401-15.59,10.62-14.19,19.5701c0.95,9.7,11.34,17.01,20.82,14.75c10.44-1.86,16.98-14.55,12.38-24.12
		C719.43,1204.36,711.03,1200.16,703.38,1201.46 M774.39,1201.4399c-6.85,1.26-12.74,6.7201-14.13,13.6001
		c-2.31,9.5299,4.97,19.7999,14.69,20.8999c10.3,1.8301,20.46-7.5499,19.78-17.9299
		C794.74,1207.8199,784.31,1199.5601,774.39,1201.4399 M564.95,1266.89c-0.71,5.6799-0.07,11.45-0.55,17.17
		c0.3199,5.95-0.82,12.0499,0.77,17.8899c8.72-0.61,16.9-7.8999,16.88-16.9199C582.74,1275.58,574.34,1266.89,564.95,1266.89
		 M631.32,1267.37c-10.21,2.23-16.28,14.61-11.66,24.02c3.45,8.9,14.95,12.8199,23.3701,8.67
		c6.74-3.02,10.85-10.8601,9.7599-18.1201C651.79,1272.03,640.94,1264.66,631.32,1267.37 M702.26,1267.37
		c-9.49,2.1801-15.96,13.26-12.25,22.51c2.6,8.99,13.3,14.05,21.99,10.9301c7.56-2.2001,12.45-10.2001,11.79-17.91
		c-0.63-5.91-4.21-11.49-9.5099-14.25C710.58,1266.84,706.25,1266.47,702.26,1267.37 M773.26,1267.36
		c-8.63,1.85-14.72,11.03-13.13,19.71c1,9.62,11.59,16.5601,20.85,14.29c9.32-1.77,15.89-12.14,13.21-21.2999
		C792.15,1271.0699,782.21,1264.9,773.26,1267.36 M844.29,1267.39c-9.04,1.78-15.38,11.67-13.09,20.63
		c1.52,8.12,9.61,14.2,17.79,13.71c10.72-0.0699,19.11-11.5599,16.06-21.78C863.07,1271.09,853.05,1265.01,844.29,1267.39z"/>
	<path fill="#BDBFC1" stroke="#BDBFC1" stroke-width="0.3" d="M807.56,919.13c3.42,2.65,6.17,6.06,8.86,9.44
		c10.45,14.05,16.97,30.64,21.72,47.38c2.6,9.63,5.83,19.74,3.52,29.78c-1.2,5.33-5.03,9.62-9.64,12.35
		c-0.4-6.88,8.48-9.25,7.94-16.08c0.5099-9.13-2.18-18-4.32-26.77c-3.12-11.93-7.11-23.72-12.85-34.66
		c-2.93,2.95-4.78,6.71-7.15,10.09c-11.98,18.06-24.43,35.8-36.95,53.4901c-5.84,8.22-11.79,16.36-17.68,24.5499
		c-8.68,11.7201-17.32,23.4701-26.43,34.87c-4.25,5.17-8.24,10.6801-13.57,14.8201c-3.27-2.15-6.16-4.78-8.63-7.8
		c-3.74-4.25-7.29-8.6599-10.72-13.15c-20.9-27.7-40.09-56.6299-59.3799-85.47c-6.39-9.54-12.54-19.25-18.83-28.86
		c-2.83-4.15-5.36-8.49-8.23-12.61c2.2401-2.81,4.69-5.44,7.35-7.85c2.75-0.91,5.51-1.84,8.31-2.6
		c29.3,41.8,58.56,83.66,88.08,125.31c17.55-24.59,34.79-49.41,52.13-74.14c11.8199-17.1899,24.18-34,35.89-51.2599L807.56,919.13z"
		/>
	<path fill="#E6E7E8" stroke="#E6E7E8" stroke-width="0.3" d="M840.36,924.08c16.71-0.54,34.23,3.5,47.44,14.2
		c6.02,3.89,9.92,10.03,14.58,15.3c-2.4,7.19,2.5,14.03,7.97,18.21c0.54-0.62,1.1-1.22,1.67-1.81c2.35,5.23,4.47,10.56,6.35,15.99
		c0.37,1.7,2.09,2.42,3.4,3.33c-0.49,0.93-1.56,1.83-1.16,3.01c0.96,4.22,2.43,8.32,3.21,12.6c-3.23-0.55-6.6-0.81-9.75,0.27
		c-7.2,2.08-12.77,9.25-12.37,16.83c-0.08,6.73,4.23,13.15,10.36,15.83c4.35,1.92,9.42,1.74,13.84,0.12
		c2.3199-0.62,2.44-3.5299,3.37-5.37c1.34,8.85,2.26,17.75,3.22,26.66c1.82,0.86,2.99,2.33,2.74,4.45l-1.37,0.26
		c-1.37,0.29-2.7,0.79-4.03,1.17c-16.77,3.8099-33.69,6.88-50.42,10.85c-2-15.9199-4.65-31.9199-10.41-46.96
		c-1.25-3.3301-3.06-6.51-3.47-10.09c-1.8101-16.07-4.67-32.02-8.72-47.67c8.93-4.69,11.63-17.53,5.35-25.4
		c-3.6-5.29-10.3-7.89-16.55-6.65c-1.68-3.58-3.5-7.1-5.26-10.63C840.43,927.07,840.41,925.57,840.36,924.08z"/>
	<path fill="#D2D3D5" stroke="#D2D3D5" stroke-width="0.3" d="M560.31,939.36c7.66-2.11,16.14,1.84,19.72,8.88
		c-2.27,7-3.82,14.23-4.67,21.54c-2.45,1.71-5.07,3.36-8.11,3.7c-8.07,1.48-16.56-3.8-19.09-11.55
		C544.71,952.78,550.76,941.49,560.31,939.36z"/>
	<path fill="#D2D3D5" stroke="#D2D3D5" stroke-width="0.3" d="M845.61,939.21c6.25-1.2401,12.95,1.36,16.55,6.65
		c6.28,7.87,3.58,20.71-5.35,25.4C853.83,960.33,850.24,949.55,845.61,939.21z"/>
	<path fill="#D2D3D5" stroke="#D2D3D5" stroke-width="0.3" d="M623.45,943.11c6.29,9.61,12.44,19.32,18.83,28.86
		c-8.69,4.73-20.35-0.9-23.23-10.06C616.66,955.37,619.05,948.19,623.45,943.11z"/>
	<path fill="#D1D2D4" stroke="#D1D2D4" stroke-width="0.3" d="M910.35,971.79c-5.47-4.18-10.37-11.02-7.97-18.21
		c1.37,1.98,2.77,3.98,4.49,5.7l-0.74-0.3101c2.05,3.61,4.16,7.21,5.89,11.01C911.45,970.57,910.89,971.17,910.35,971.79z"/>
	<path fill="#D2D3D5" stroke="#D2D3D5" stroke-width="0.3" d="M557.85,1005.82c5.23-2.41,11.21-1.49,16.17,1.13
		c0.32,9.24,1.42,18.42,2.61,27.59c-7.4,7.12-20.77,5.9199-26.3-2.89C543.98,1023.18,547.89,1009.49,557.85,1005.82z"/>
	<path fill="#D2D3D5" stroke="#D2D3D5" stroke-width="0.3" d="M634.37,1004.44c9.39-0.91,18.41,7.13,18.55,16.58
		c0.78,9.41-7.56,18.22-16.94,18.26c-9.24,0.4399-18.23-7.88-17.82-17.27C617.76,1013.06,625.44,1004.83,634.37,1004.44z"/>
	<path fill="#D2D3D5" stroke="#D2D3D5" stroke-width="0.3" d="M761.01,1028.7c5.89-8.1899,11.84-16.33,17.68-24.5499
		c5.6,1.12,10.97,4.1,13.86,9.18c3.68,6.26,2.59,14.66-2.25,19.9999c-5.01,6.0901-14.53,7.75-21.33,3.78
		C765.23,1035.53,763.16,1031.91,761.01,1028.7z"/>
	<path fill="#D2D3D5" stroke="#D2D3D5" stroke-width="0.3" d="M914.07,1005.18c3.15-1.08,6.52-0.82,9.75-0.27
		c2.24,8.54,3.73,17.2401,5.2,25.93c0.06,0.4401,0.19,1.3101,0.25,1.75c-0.93,1.8401-1.05,4.75-3.37,5.37
		c-4.42,1.62-9.4901,1.8-13.84-0.12c-6.13-2.6799-10.44-9.1-10.36-15.83C901.3,1014.43,906.87,1007.26,914.07,1005.18z"/>
	<path fill="#BDBFC1" stroke="#BDBFC1" stroke-width="0.3" d="M804.3,1040.21c4.68-4.3999,9.27-9.0499,14.81-12.39
		c-1.67,2.04-3.48,3.9501-5.41,5.7301c-12.78,12.0299-23.87,25.75-33.72,40.25c2.19,0.2699,4.4,0.59,6.62,0.7899
		c-14.98,18.75-27.12,40.12-33.48,63.36c-2.58,9.9301-3.89,20.7201-0.64,30.65c1.93,5.9,6.21,10.76,11.5,13.9301
		c2.19,2.76,4.92,5.0499,8.17,6.48c-4.36,0.11-9.1801-0.4301-12.22-3.9401c-3.59-4.0699-8.69-6.73-11.33-11.62
		c-4.95-8.1-4.64-18.1-3.22-27.1499c3.07-16.5901,10.29-32.14,19-46.4801c5.07-8.86,11.34-16.9299,17.81-24.7999
		c-2.07-0.42-4.13-0.8301-6.18-1.23c0.7-1.24,1.39-2.4601,2.17-3.63C786.28,1059.67,794.69,1049.38,804.3,1040.21z"/>
	<path fill="#BDBFC1" stroke="#BDBFC1" stroke-width="0.3" d="M845.2,1030.95c1.18-0.35,2.37-0.6499,3.59-0.8999
		c1.95,3.9399,3.84,8.12,3.9,12.62c-1.56,0.01-3.12,0.01-4.62-0.38l0.93-0.4501c-0.22-0.9399-0.44-1.87-0.67-2.7799
		c-0.68-2.6801-1.64-5.28-2.93-7.7101L845.2,1030.95z"/>
	<path fill="#D2D3D5" stroke="#D2D3D5" stroke-width="0.3" d="M839.66,1036.75c1.72-1.99,3.41-4.0699,5.7401-5.4
		c1.29,2.4301,2.25,5.03,2.93,7.7101C845.17,1039.66,842.15,1038.66,839.66,1036.75z"/>
	<path fill="#EEEEEF" stroke="#EEEEEF" stroke-width="0.3" d="M838.08,1039.77c0.35-1.1,0.75-2.1901,1.58-3.02
		c2.4901,1.91,5.51,2.91,8.67,2.3101c0.23,0.9099,0.45,1.84,0.67,2.7799l-0.93,0.4501
		C844.8,1041.1899,841.29,1041.05,838.08,1039.77z"/>
	<path fill="#BDBFC1" stroke="#BDBFC1" stroke-width="0.3" d="M829.87,1058.6899c8.22-2.08,17.05,1.65,21.86,8.4901
		c7.53,10.2799,7.62,23.61,7.55,35.8099c0.9399-0.33,1.89-0.66,2.84-0.98c2.63,8.73,2.05,18,2.04,27.01
		c-0.66,15.47-2.56,31.21-8.5099,45.63c-3.37,8.0599-9.04,16.22-18.08,18.27c-0.41-0.53-0.82-1.03-1.24-1.5
		c1.4-0.54,2.86-1.05,3.94-2.15c5.33-5.03,8.61-11.79,11.12-18.5701c3.64-10.47,5.63-21.45,6.71-32.47
		c1.09-11.26,1.1801-22.65-0.34-33.88c-1.29-0.01-2.56-0.01-3.83,0.05c1.06-11.7101,0.86-24.48-5.71-34.7001
		C844.49,1063.05,837.08,1059.86,829.87,1058.6899z"/>
	<path opacity="0.65" fill="#959596" stroke="#959596" stroke-width="0.3" enable-background="new    " d="M504.37,1059.12
		c0.39-0.02,1.16-0.0699,1.55-0.1l-0.18,0.75c-0.43,0.03-1.31,0.1-1.74,0.13L504.37,1059.12z"/>
	<path fill="#F8B57E" stroke="#F8B57E" stroke-width="0.3" d="M508.51,1065.33c14.52,3,29.04,5.99,43.51,9.1901
		c4.04,0.99,8.12,1.77,12.21,2.5499c0.21,4.5901,0.2,9.2001,0.14,13.8101c-0.42,3.8199-1.08,7.63-1.15,11.5l-0.02,0.16
		c-2.33,12.3999-3.38,24.99-5.32,37.46c-1.99,15.75-4.47,31.46-6.16,47.25c-4.43,30.65-8.49,61.36-12.43,92.08
		c-3.59,24.49-6.66,49.0701-10.08,73.6001c-0.67,3.0699,1.3,5.7699,2.4,8.5c5.27,11.37,9.71,23.1499,15.47,34.2799
		c0.6,3.37,1.82,6.89,0.64,10.3c-0.78,2.92-3.22,5.04-5.86,6.3099c-5.74,1.76-12.17-0.7-15.69-5.4399
		c-3.41-5.23-5.63-11.15-9.11-16.33c0.11,5.0399,0.5,10.08,0.78,15.13c0.54,12.13,1.5,24.2599,1.84,36.3999
		c0.27,7.5801-6.35,16.3401-14.63,13.9c-7.71-2.5599-9.57-11.64-9.89-18.77c-3.38-0.2-7.05-0.36-9.76-2.6599
		c-5.23-4.1801-6.42-11.17-7.55-17.3601c-3.9-1.85-5.62-6.0299-5.53-10.1499c-0.39-11.27-0.73-22.54-1.18-33.8
		c-0.53-8.4299-0.62-16.86-0.95-25.29c0.18-9.74-2.79-20.34,2.46-29.2699c2.89-4.3101,2.88-9.6101,3.62-14.55
		c3.04-23.01,6.22-46.01,9.28-69.02c0.69-4.53,1.3-9.0699,1.55-13.64c3.47-20.77,5.76-41.75,8.74-62.61
		c3.1-22.54,6.06-45.1,9.17-67.64C506.12,1082.58,507.28,1073.95,508.51,1065.33z"/>
	<path fill="#F8B57E" stroke="#F8B57E" stroke-width="0.3" d="M879.41,1075.98c16.73-3.97,33.65-7.04,50.42-10.85
		c2.24,17.21,4.58,34.41,6.89,51.61c2.4,16.86,4.41,33.78,6.97,50.62c4.02,32.25,8.68,64.4301,12.87,96.66
		c2.25,15.98,4.4,31.98,6.49,47.98c0.26,3.74,3.03,6.5699,4.11,10.05c2.53,6.01,1.3,12.62,1.23,18.9299
		c-0.04,5.41-0.56,10.8101-0.55,16.23c-0.73,12.9501-0.94,25.9301-1.5,38.89c-0.1801,4.97-0.6,9.9401-0.34,14.92
		c0,0.08-0.01,0.24-0.01,0.3199c-1.48,2.3201-3.27,4.4601-5.66,5.89c-0.98,6.0701-2.22,12.8201-7.12,17.05
		c-2.78,2.49-6.63,2.76-10.17,2.9399c-0.03,0.5901-0.08,1.77-0.11,2.36c-0.54,6.04-2.47,13.12-8.45,15.92
		c-5.1,2.54-11.27-0.53-13.75-5.3c-3.22-5.5499-2.03-12.1599-1.68-18.22c0.7-13.97,1.45-27.9399,2.26-41.91
		c-2.91,4.9501-5.36,10.16-8.13,15.1901c-3.18,5.61-10.36,9.16-16.66,6.99c-3.57-1.16-6.03-4.67-6.3-8.35
		c-0.46-3.36,0.57-6.6801,1.94-9.6901c5.81-13.01,11.4901-26.0599,17.26-39.08c-0.14-0.48-0.41-1.4301-0.55-1.91
		c-2.42-21.75-5.76-43.4-8.57-65.1c-3.95-28.85-7.59-57.75-11.77-86.5699c-2.6-21.5701-5.83-43.0701-8.53-64.63
		c-1.57-10.3201-3.01-20.66-4.2-31.02c0.43-1.38,0.82-2.75,1.17-4.12c1.7,0.49,3.41,1,5.13,1.52
		C881.3,1094.1801,880.45,1085.0699,879.41,1075.98z"/>
	<path fill="#D2D3D5" stroke="#D2D3D5" stroke-width="0.3" d="M552.02,1074.52c4.08-2.0601,8.22-4.71,12.98-4.48
		c9.78-0.24,18.19,9.37,16.98,19.02c-0.39,8.73-8.4,15.58-16.89,15.96c-0.26-1.51-0.51-3.02-0.73-4.51
		c0.1-3.22-0.01-6.4301,0.01-9.63c0.06-4.61,0.07-9.22-0.14-13.8101C560.14,1076.29,556.06,1075.51,552.02,1074.52z"/>
	<path fill="#D2D3D5" stroke="#D2D3D5" stroke-width="0.3" d="M630.92,1070.77c10.28-3.64,22.15,5.45,22.01,16.16
		c0.27,5.9099-2.87,11.4399-7.42,15.0399c-7.44-4.08-16.08-5.8199-24.51-4.9099c-1.3-2.52-2.63-5.15-2.77-8.03
		C617.27,1080.87,622.99,1072.8,630.92,1070.77z"/>
	<path fill="#D2D3D5" stroke="#D2D3D5" stroke-width="0.3" d="M700.92,1070.92c3.68-1.4,7.65-0.5,11.46-0.3301
		c2.47,3.02,5.36,5.65,8.63,7.8c5.94,8.09,2.01,20.72-7.01,24.71c-7.32,3.8201-17,1.23-21.69-5.47c-3.44-4.4-4.07-10.48-2.46-15.71
		C691.42,1076.7,695.91,1072.75,700.92,1070.92z"/>
	<path fill="#D2D3D5" stroke="#D2D3D5" stroke-width="0.3" d="M759.94,1088.01c-0.68-9.75,8.45-18.86,18.24-17.85
		c-0.78,1.1699-1.47,2.39-2.17,3.63c2.05,0.3999,4.11,0.8099,6.18,1.23c-6.47,7.87-12.74,15.9399-17.81,24.7999
		C762.2,1096.2,759.79,1092.4,759.94,1088.01z"/>
	<path fill="#D2D3D5" stroke="#D2D3D5" stroke-width="0.3" d="M831.34,1083.28c1.77-7.7101,9.17-13.03,16.8799-13.5801
		c6.57,10.2201,6.77,22.99,5.71,34.7001c-3.19,0.13-6.42,0.84-9.58,0.11C835.19,1102.64,828.72,1092.34,831.34,1083.28z"/>
	<path fill="#FEFEFE" stroke="#FEFEFE" stroke-width="0.3" d="M786.6,1074.59c2.9301,0.1,5.87,0.02,8.81,0
		c0.41,2.6801,0.64,5.38,1.02,8.0801c-0.75,0.51-1.47,1.0499-2.18,1.62c-5.79,6.0399-10.29,13.2-14.73,20.27
		c-6.51,11.5199-12.65,23.49-15.7,36.46c-2,6.64-2.93,13.8099-1.38,20.65c0.73,3.36,3.65,5.4199,6.43,7.08
		c-0.51,0.05-1.51,0.16-2.01,0.21c0.07,0.7201,0.22,2.16,0.29,2.88c-3.5,2.3401-4.54,6.8-3.17,10.6901
		c-5.29-3.17-9.57-8.03-11.5-13.9301c-3.25-9.9299-1.94-20.72,0.64-30.65C759.48,1114.71,771.62,1093.34,786.6,1074.59z"/>
	<path fill="#D2D3D5" stroke="#D2D3D5" stroke-width="0.3" d="M779.52,1104.5601c4.44-7.0701,8.94-14.2301,14.73-20.27
		C796.66,1093.65,789.17,1104.02,779.52,1104.5601z"/>
	<path fill="#FEFEFE" stroke="#FEFEFE" stroke-width="0.3" d="M862.12,1102.01c1.45-2.3201,3.14-4.47,4.93-6.54
		c2.21,1.28,4.56,2.37,6.57,3.98c1.49,1.8,1.75,4.2201,2.18,6.4501c1.19,10.36,2.63,20.7,4.2,31.02c-1.23-2.76-2.88-5.3-4.39-7.9
		c-0.39,9.62-2.56,19.11-2.21,28.76c-0.4901,0.37-1.4901,1.1-1.9901,1.47c-1.54,8.86-4.37,17.52-8.69,25.4399
		c-3.15,6.4501-7.92,12.1001-13.8199,16.2001c-3.15,1.54-6.5,2.6-9.88,3.46c-1.19-0.26-2.37-0.52-3.53-0.7899
		c3.07-2.63,4.07-7.0701,2.08-10.64c9.04-2.05,14.71-10.2101,18.08-18.27c5.95-14.42,7.85-30.16,8.5099-45.63
		C864.17,1120.01,864.75,1110.74,862.12,1102.01z"/>
	<path fill="#619C9A" stroke="#619C9A" stroke-width="0.3" d="M615.66,1097.9301c1.75-0.39,3.54-0.67,5.34-0.87
		c8.43-0.91,17.07,0.83,24.51,4.9099c7.46,4.0701,13.17,10.62,17.53,17.8101c4.23,10.53,5.48,22.61,1.19,33.34
		c-5.97,16.23-22.88,27.58-40.19,26.74c-7.52-0.02-14.49-3.04-21.19-6.1c-8.55-6.27-15.34-15.3-17.7599-25.73
		c-3.32-13.26,0.61-27.9601,9.92-37.9401C600.53,1104.15,607.8,1099.91,615.66,1097.9301 M620.15,1112.36
		c-14.37,2.58-24.44,18.4301-20.38,32.51c3.14,13.77,18.56,23.04,32.19,19.16c13.67-3.14,22.92-18.3301,19.22-31.9
		C648.27,1118.62,633.64,1109.3,620.15,1112.36z"/>
	<path fill="#FEFEFE" stroke="#FEFEFE" stroke-width="0.3" d="M620.15,1112.36c13.49-3.0599,28.12,6.26,31.03,19.77
		c3.7,13.5699-5.55,28.76-19.22,31.9c-13.63,3.88-29.05-5.39-32.19-19.16C595.71,1130.79,605.78,1114.9399,620.15,1112.36
		 M620.28,1123.35c-6.77,2.27-11.45,9.4601-10.5601,16.59c0.6,8.4,8.9,15.2301,17.27,14.16c9.11-0.63,16.14-10.25,13.93-19.13
		C639.2,1125.97,628.89,1120.17,620.28,1123.35z"/>
	<path opacity="0.95" fill="#BDBDBE" stroke="#BDBDBE" stroke-width="0.3" enable-background="new    " d="M357.04,1121.55
		c3.21-0.24,6.93,0.86,9.6-1.4701l0.17,1.0901c10.65,0.5699,21.33-0.15,31.98,0.3199c8.6,1.65,16.63,5.38,24.65,8.78
		c-17.11,7.15-34.78,12.9399-52.34,18.89c-34.93,11.6599-70.43,21.59-106.13,30.58c-1.75,0.4301-3.55,0.63-5.35,0.63
		c0.21-0.62,0.61-1.85,0.81-2.46l0.34,1.26c42.55-10.01,84.55-22.41,125.89-36.62c11.16-4.12,22.6-7.6001,33.44-12.5
		c-3.25-2.28-7.1-3.3201-10.76-4.6901c-3.44-1.17-6.86-2.6899-10.54-2.87c-12.59-0.3099-25.23,0.66-37.77-0.71
		c-11.38,0.08-22.76,0.01-34.13,0.01C336.92,1121.21,347,1121.6801,357.04,1121.55z"/>
	<path fill="#BDBFC1" stroke="#BDBFC1" stroke-width="0.3" d="M663.04,1119.78c8.72,12.0699,8.88,29.1799,1.79,42.0599
		c-8.03,15.1-25.96,24.01-42.85,21.12c-6.95-1.3199-14.38-3.6699-19.13-9.2c6.7,3.0599,13.67,6.08,21.19,6.1
		c17.31,0.84,34.22-10.51,40.19-26.74C668.52,1142.39,667.27,1130.3101,663.04,1119.78z"/>
	<path fill="#3C2515" stroke="#3C2515" stroke-width="0.3" d="M1044.37,1121.4399c19.23-0.0299,38.46,0.03,57.6901-0.0299
		c1.6599-0.02,3.36,0.0699,4.98,0.5399c17.7,4.9401,34.88,13.4401,47.5699,26.99c12.1801,13.1001,20.2001,30.25,21.6901,48.1201
		c1.1599,9.75,1.88,19.5599,1.74,29.3799c0.36,0.3301,1.09,1,1.46,1.3301l-1.3101-0.84c0.1001,14.2-0.9099,28.4099-2.7999,42.5
		c-0.46,0.1399-1.39,0.4299-1.85,0.58c-4.9301-6.37-8.05-13.86-11.4701-21.08c-9.47-21.15-18.08-42.66-26.48-64.25
		c-17.37,10.59-35.88,20.75-56.4299,23.0199c-9.7201,0.65-19.62,0.6801-29.13-1.7c-16.8-3.89-31.89-12.5601-46.59-21.24
		c-8.05,20.91-16.46,41.6899-25.52,62.1799c-3.9,8.0601-7.07,16.7201-12.99,23.5901c-2.04-2.1801-1.64-5.36-2.1-8.0701
		c-2.63-22.9299-2.65-46.1799,0.4-69.08c1.38-11.86,6.11-23.1801,12.47-33.21c7.71-12.03,18.83-21.67,31.4-28.3401
		c7.62-4.13,15.76-7.21,24.0701-9.64C1035.45,1120.89,1039.96,1121.59,1044.37,1121.4399z"/>
	<path fill="#E6E7E8" stroke="#E6E7E8" stroke-width="0.3" d="M274.32,1153.38c13.17-16.3,32.62-26.26,52.58-31.59
		c11.37,0,22.75,0.0699,34.13-0.01c12.54,1.37,25.18,0.4,37.77,0.71c3.68,0.1801,7.1,1.7,10.54,2.87
		c3.66,1.37,7.51,2.41,10.76,4.6901c-10.84,4.8999-22.28,8.38-33.44,12.5c-41.34,14.21-83.34,26.61-125.89,36.62l-0.34-1.26
		C263.79,1169.1,268.32,1160.6801,274.32,1153.38z"/>
	<path fill="#619C9A" stroke="#619C9A" stroke-width="0.3" d="M620.28,1123.35c8.61-3.1799,18.92,2.62,20.64,11.62
		c2.21,8.88-4.82,18.5-13.93,19.13c-8.37,1.0701-16.67-5.76-17.27-14.16C608.83,1132.8101,613.51,1125.62,620.28,1123.35z"/>
	<path fill="#E6E7E8" stroke="#E6E7E8" stroke-width="0.3" d="M423.44,1130.27c0.49,0.15,1.47,0.45,1.96,0.61
		c0.4,0.54,0.8,1.11,1.22,1.6801l0.15,0.2c7.94,3.86,15.02,9.4299,21.08,15.8199c0.12,0.51,0.35,1.52,0.47,2.03
		c4.53,0.67,6.65,4.97,8.7,8.53c-7.62,3.72-15.8,6.14-23.71,9.16c-28.18,10.11-56.75,19.1-85.56,27.24
		c-4.41,1.38-9.17,1.96-13.07,4.62c-1.8,0.6-3.64,1.12-5.47,1.63c-14.59,3.7999-29.19,7.59-43.88,11
		c-10.14,2.5699-20.34,4.9099-30.59,6.99c-0.12-1.6801-0.26-3.28-0.3-4.92c0.11-1.04,0.31-2.04,0.6-3.02
		c1.56-1.6799,1.26-4,0.21-5.83c-0.14-0.92-0.43-2.77-0.57-3.7c0.24-0.1901,0.72-0.5801,0.97-0.77c1.02-7.11,1.48-14.37,3.97-21.17
		c1.8,0,3.6-0.2,5.35-0.63c35.7-8.99,71.2-18.92,106.13-30.58C388.66,1143.21,406.33,1137.42,423.44,1130.27z"/>
	<path fill="#D2D3D5" stroke="#D2D3D5" stroke-width="0.3" d="M564.84,1135.7c5.93,0.2201,12.04,3.2101,14.83,8.64
		c4.31,6.85,2.56,16.53-3.46,21.79c-2.98,2.64-6.93,3.64-10.57,5c-0.36,9.91-0.23,19.85,0.02,29.76
		c6.7401,1.25,13.21,5.23,15.48,12.01c4.13,10.71-4.85,23.45-16.29,23.25c-0.14-3.75-0.31-7.49-0.4-11.23
		c0.02-1.26-0.17-2.53-0.41-3.7301c0.7401-19.5499,0.29-39.1799,0.32-58.7599v-0.0601C565.21,1153.51,564.29,1144.58,564.84,1135.7z
		"/>
	<path fill="#D2D3D5" stroke="#D2D3D5" stroke-width="0.3" d="M701.32,1136.38c9.88-3.36,21.56,4.28,22.37,14.66
		c1.16,7.5-3.49,15.49-10.61,18.13c-8.46,3.58-19.54-0.67-22.72-9.4501C686.27,1150.67,691.76,1139.02,701.32,1136.38z"/>
	<path fill="#D2D3D5" stroke="#D2D3D5" stroke-width="0.3" d="M763.82,1141.02c3.81-2.3101,7.6-5.27,12.28-5.3101
		c7.64-0.7999,15.12,4.41,17.58,11.5801c2.61,6.4299,0.3,14.14-4.74,18.72c-2.31,1.84-5.04,3.04-7.51,4.65
		c-4.65-1.42-10.14-1.77-14.28,1.1799c-0.07-0.72-0.22-2.1599-0.29-2.88c0.5-0.0499,1.5-0.1599,2.01-0.21
		c-2.78-1.66-5.7-3.72-6.43-7.08C760.89,1154.83,761.82,1147.66,763.82,1141.02z"/>
	<path fill="#D2D3D5" stroke="#D2D3D5" stroke-width="0.3" d="M830.79,1153.02c-0.13-8.77,7.36-17.02,16.21-17.3
		c3.87-0.33,7.59,1.02,11.1,2.51c-1.08,11.02-3.0699,22-6.71,32.47c-3.72-0.4399-7.71-0.1599-11.09-1.99
		C834.6,1165.74,830.59,1159.51,830.79,1153.02z"/>
	<path fill="#BDBFC1" stroke="#BDBFC1" stroke-width="0.3" d="M433.31,1168.3c7.91-3.02,16.09-5.4401,23.71-9.16
		c0.35,0.51,1.06,1.52,1.41,2.03c-3.29,0.3999-6.38,1.63-9.43,2.87c-32.85,12.2999-66.28,23-100.01,32.59
		c-3.13,0.9301-6.53,1.33-9.23,3.3199c13.33-1.97,26.83-1.9099,40.26-2.51c30.15-0.6699,60.35,0.0801,90.4,2.6901
		c-0.5-3.13-1.28-6.28-0.75-9.4401c0.24,0.4801,0.74,1.4501,0.99,1.9401c-0.2,0.33-0.59,0.99-0.78,1.3199
		c1,6.37,1.47,12.8101,1.83,19.25c-0.38-4.0199-0.9-8.01-1.63-11.96c-9.83-0.13-19.59-1.77-29.42-1.42
		c9.96,7.03,20.41,13.4,30.44,20.3601c0.27-1.15,0.53-2.28,0.78-3.4c0.13,1.78,0.29,3.5699,0.37,5.38
		c-11.7-6.98-22.64-15.1801-34.33-22.15c-1.79-0.98-3.9-0.83-5.86-0.9401c-9.19-0.09-18.38-0.6899-27.57-0.2799
		c12.16,11.72,25.05,22.72,37.16,34.5299c9.84,9.25,19.37,18.8201,29.19,28.0801l-0.07,1.27c-3.75-2.3-6.45-5.8401-9.62-8.8101
		c-19.43-18.67-38.76-37.53-59.27-54.99c-11.27-0.6801-22.6,0.11-33.88,0.34c-7.53,0.5901-15.14,0.4701-22.63,1.3501
		c-0.33,0.34-0.98,1.0199-1.31,1.36c-0.65-0.4501-1.29-0.87-1.94-1.26c-2.5,0.27-4.99-0.05-7.44-0.5c3.9-2.66,8.66-3.24,13.07-4.62
		C376.56,1187.4,405.13,1178.41,433.31,1168.3z"/>
	<path fill="#E6E7E8" stroke="#E6E7E8" stroke-width="0.3" d="M449,1164.04c3.05-1.24,6.14-2.4701,9.43-2.87
		c3.99,4.96,6.05,11.08,8.41,16.9099c1.27,4.1001,3.39,8.1901,2.83,12.61c-0.53,3.16,0.25,6.3101,0.75,9.4401
		c-30.05-2.61-60.25-3.36-90.4-2.6901c-13.43,0.6001-26.93,0.54-40.26,2.51c2.7-1.99,6.1-2.3899,9.23-3.3199
		C382.72,1187.04,416.15,1176.34,449,1164.04z"/>
	<path fill="#619C9A" stroke="#619C9A" stroke-width="0.3" d="M767.15,1171.84c4.14-2.95,9.63-2.6,14.28-1.1799
		c3.39,1.64,6.8,4.3199,7.52,8.25c0.76,3.73-1.71,7.37-4.98,8.98c-3.62,2.01-7.8799,1.48-11.8199,1.12
		c-3.25-1.4301-5.98-3.72-8.17-6.48C762.61,1178.64,763.65,1174.1801,767.15,1171.84z"/>
	<path fill="#FAC458" stroke="#FAC458" stroke-width="0.3" d="M1003.44,1184.76c14.7,8.6799,29.79,17.35,46.59,21.24
		c9.51,2.38,19.4099,2.35,29.13,1.7c20.5499-2.2699,39.0599-12.4299,56.4299-23.0199c8.4,21.59,17.01,43.1,26.48,64.25
		c3.42,7.22,6.54,14.71,11.4701,21.08c-0.87,4.14-1.89,8.27-3.23,12.3c-7.2101,22.3099-22.42,41.8099-42.01,54.62
		c-13.49,8.87-29.03,14.7-45.0701,16.6l0.03,0.21c-19.73,2.22-40.12-0.4-58.25-8.66c-13.23-5.87-25.07-14.61-34.95-25.1599
		c-9.14-10.17-16.41-22.03-21.05-34.91c-1.59-4.76-2.87-9.62-4.08-14.48c5.92-6.87,9.09-15.53,12.99-23.5901
		C986.98,1226.45,995.39,1205.67,1003.44,1184.76 M1017.44,1224.5699c-6.14,1.66-10.37,8.3-9.17,14.5801
		c0.97,6.4199,7.34,11.4399,13.83,10.73c7.62-0.39,13.6-8.58,11.49-15.95C1032.0699,1227.02,1024.22,1222.35,1017.44,1224.5699
		 M1113.37,1224.52c-5.85,1.5-10.12,7.5-9.49,13.54c0.4,6.9399,7.1801,12.6699,14.12,11.8099c7.61-0.49,13.4399-8.72,11.27-16.0599
		C1127.75,1227.01,1120.05,1222.47,1113.37,1224.52 M1068.38,1242.9c-4.3199,11.6899-9.77,23.12-11.89,35.49
		c-0.73,5.36-1.34,12,3.16,15.97c4.21,3.37,10.4199,3.58,15.3099,1.64c4.62-1.96,6.3101-7.34,6.2201-11.99
		c-0.14-8.41-3.0801-16.45-5.89-24.27C1072.92,1254.15,1071.3199,1248.22,1068.38,1242.9 M1037.52,1311.5699
		c0.72,8.3101,6.97,15.12,14.14,18.8101c12.62,6.45,29.13,5.46,40.36-3.4301c4.8099-3.75,8.04-9.26,9.13-15.25
		C1079.95,1311.4,1058.73,1311.66,1037.52,1311.5699z"/>
	<path fill="#FAC458" stroke="#FAC458" stroke-width="0.3" d="M165.1,1189.1801c7.76-3.17,16.48-3.76,24.65-1.92
		c17.95,3.96,31.77,21.16,31.61,39.58c0.18,13.23-6.56,26.15-17.3,33.8201c-10.36,7.27-24.09,9.4299-36.14,5.52
		c-7.35-2.13-13.31-7.05-18.9-12.03l0.5,0.0699c-8.49-9.97-12.22-23.98-8.85-36.74C143.6,1204.83,153.06,1193.97,165.1,1189.1801z"
		/>
	<path fill="#619C9A" stroke="#619C9A" stroke-width="0.3" d="M819.08,1187.16c5.95-1.66,13.14-0.77,17.25,4.26
		c0.42,0.47,0.83,0.97,1.24,1.5c1.99,3.5699,0.99,8.01-2.08,10.64c-2.93,2.37-6.77,2.5299-10.36,2.8199
		c-5.12-0.97-10.81-3.77-12.05-9.3101C812.06,1192.67,815.42,1188.98,819.08,1187.16z"/>
	<path fill="#FAC458" stroke="#FAC458" stroke-width="0.3" d="M1244.02,1186.59c3.8099-0.5299,7.6699-0.96,11.52-0.5399
		c16.39,1.1599,31.3199,13.35,35.64,29.23c4.12,13.08,0.61,27.86-8.16,38.27c-4.34,4.62-9.46,8.6-15.37,10.99
		c-12.8,5.37-28.3101,3.61-39.52-4.62c-4.22-3.12-7.9-6.9701-10.6801-11.42c-8.5699-13.27-8.2799-31.52,0.6801-44.52
		C1224.04,1195.05,1233.6,1188.84,1244.02,1186.59z"/>
	<path fill="#BDBFC1" stroke="#BDBFC1" stroke-width="0.3" d="M806.47,1193.35c2.19-4.8099,7.84-5.98,12.61-6.1899
		c-3.66,1.8199-7.02,5.51-6,9.9099c1.24,5.54,6.93,8.3401,12.05,9.3101c-3.72,0.71-7.68,1.48-11.25-0.22
		C808.83,1204.42,804.06,1198.86,806.47,1193.35z"/>
	<path fill="#3D2615" stroke="#3D2615" stroke-width="0.3" d="M329.21,1201.79c1.83-0.51,3.67-1.03,5.47-1.63
		c2.45,0.45,4.94,0.77,7.44,0.5c0.65,0.39,1.29,0.8099,1.94,1.26c7.76,5.7799,15.41,11.71,22.6,18.2
		c-5.1-3.88-9.58-8.5699-14.94-12.08C344.08,1206.51,336.44,1204.8,329.21,1201.79z"/>
	<path fill="#E6E7E8" stroke="#E6E7E8" stroke-width="0.3" d="M440.66,1199.8199c9.83-0.35,19.59,1.29,29.42,1.42
		c0.73,3.95,1.25,7.9401,1.63,11.96c0.06,1.1801,0.12,2.37,0.17,3.5801c-0.25,1.12-0.51,2.25-0.78,3.4
		C461.07,1213.22,450.62,1206.85,440.66,1199.8199z"/>
	<path fill="#D2D3D5" stroke="#D2D3D5" stroke-width="0.3" d="M633.37,1201.41c9.75-1.61,19.36,6.6899,19.58,16.5
		c0.93,10.84-10.35,20.46-20.92,17.84c-9.4-1.5699-15.72-11.87-13.48-21.02C620.1,1207.75,626.23,1202.17,633.37,1201.41z"/>
	<path fill="#D2D3D5" stroke="#D2D3D5" stroke-width="0.3" d="M703.38,1201.46c7.65-1.2999,16.05,2.9,19.01,10.2001
		c4.6,9.5699-1.94,22.26-12.38,24.12c-9.48,2.26-19.87-5.05-20.82-14.75C687.79,1212.08,694.41,1202.9,703.38,1201.46z"/>
	<path fill="#D2D3D5" stroke="#D2D3D5" stroke-width="0.3" d="M774.39,1201.4399c9.92-1.8799,20.35,6.38,20.34,16.5701
		c0.68,10.38-9.48,19.76-19.78,17.9299c-9.72-1.1-17-11.37-14.69-20.8999C761.65,1208.16,767.54,1202.7,774.39,1201.4399z"/>
	<path fill="#D2D3D5" stroke="#D2D3D5" stroke-width="0.3" d="M839.02,1204.35c3.38-0.86,6.73-1.9199,9.88-3.46
		c6.12,1.08,12.49,4.11,14.95,10.21c4.39,8.37,0.32,19.61-8.29,23.39c-7.69,3.77-18.02,0.71-22.22-6.8099
		C828.37,1220.23,830.76,1208.36,839.02,1204.35z"/>
	<path fill="#FAC458" stroke="#FAC458" stroke-width="0.3" d="M285.33,1212.79c14.69-3.41,29.29-7.2001,43.88-11
		c7.23,3.01,14.87,4.72,22.51,6.25c5.36,3.51,9.84,8.2,14.94,12.08c0.2,0.17,0.59,0.5,0.78,0.66c2.22,2.61,4.81,4.88,7.71,6.74
		c0.15,0.13,0.45,0.4,0.6,0.53c2.18,2.34,4.6,4.45,7.13,6.4099c0.5,0.4301,1,0.87,1.51,1.3301c3.61,3.9299,7.55,7.5499,11.74,10.87
		c0.39,0.33,0.78,0.6899,1.18,1.0499c5.01,5.64,10.82,10.49,16.03,15.9401c6.46,6.13,12.27,12.9299,18.84,18.95
		c0.47,0.5,0.95,1.02,1.44,1.55c3.22,3.9199,6.73,7.59,10.34,11.16c0.17,0.21,0.52,0.61,0.7,0.8099c2.26,2.89,4.66,5.6801,7.37,8.17
		c0.63,0.61,1.26,1.24,1.91,1.89c-11.29,17.4199-27.66,31.4099-46.62,39.88c-17.91,7.8099-37.88,10.6899-57.27,8.2899
		c-22.9-2.86-44.85-13.21-61.34-29.39c-11.88-11.4099-20.91-25.73-26.2-41.33c-1.5-4.23-2.21-8.6901-3.61-12.9401
		c4.42-5.5499,7.29-12.08,10.32-18.4199c5.93-12.9501,11.45-26.0801,16.73-39.3L285.33,1212.79 M313.54,1224.6899
		c-6.2,1.04-10.98,7.13-10.54,13.4c0.2,7,6.89,13.01,13.92,12.2101c7.93-0.24,14-9.02,11.46-16.52
		C326.69,1227.52,319.88,1223.37,313.54,1224.6899 M355.57,1265.7c-2.6,7.4401-4.69,15.42-3.55,23.3601
		c0.62,4.35,4.46,7.72,8.73,8.36c4.76,0.7899,10.66,0.2699,13.72-3.9601c3.04-4.1499,2.57-9.63,1.9-14.4399
		c-2.17-12.5-7.7-24.05-11.94-35.91C360.97,1250.42,358.31,1258.09,355.57,1265.7 M331.76,1312.03
		c0.84,8.63,7.38,15.65,14.93,19.3099c11.7,5.6901,26.45,5.1,37.4-2.0599c5.92-3.86,10.66-10.0701,11.34-17.27
		C374.21,1312.14,352.98,1312.11,331.76,1312.03z"/>
	<path fill="#D2CFCE" stroke="#D2CFCE" stroke-width="0.3" d="M255.25,1206.01c1.05,1.83,1.35,4.15-0.21,5.83
		C254.37,1209.91,254.34,1207.84,255.25,1206.01z"/>
	<path fill="#3C2515" stroke="#3C2515" stroke-width="0.3" d="M254.74,1219.78c10.25-2.0801,20.45-4.42,30.59-6.99l0.62,0.1799
		c-5.28,13.22-10.8,26.35-16.73,39.3c-3.03,6.34-5.9,12.87-10.32,18.4199c-0.38-0.2-1.15-0.6-1.53-0.7999
		c-3.01-18.16-3.12-36.67-2.93-55.03C254.48,1216.5,254.62,1218.1,254.74,1219.78z"/>
	<path fill="#3C2515" stroke="#3C2515" stroke-width="0.3" d="M313.54,1224.6899c6.34-1.3199,13.15,2.8301,14.84,9.0901
		c2.54,7.5-3.53,16.28-11.46,16.52c-7.03,0.7999-13.72-5.2101-13.92-12.2101C302.56,1231.8199,307.34,1225.73,313.54,1224.6899z"/>
	<path fill="#3C2515" stroke="#3C2515" stroke-width="0.3" d="M1017.44,1224.5699c6.78-2.22,14.6299,2.4501,16.15,9.3601
		c2.11,7.37-3.87,15.5599-11.49,15.95c-6.49,0.71-12.86-4.3101-13.83-10.73C1007.07,1232.87,1011.3,1226.23,1017.44,1224.5699z"/>
	<path fill="#3C2515" stroke="#3C2515" stroke-width="0.3" d="M1113.37,1224.52c6.6801-2.05,14.38,2.49,15.9,9.29
		c2.1699,7.34-3.66,15.5699-11.27,16.0599c-6.9399,0.86-13.72-4.87-14.12-11.8099C1103.25,1232.02,1107.52,1226.02,1113.37,1224.52z
		"/>
	<path fill="#F7964A" stroke="#F7964A" stroke-width="0.3" d="M355.57,1265.7c2.74-7.61,5.4-15.2799,8.86-22.59
		c4.24,11.86,9.77,23.41,11.94,35.91c0.67,4.8099,1.14,10.29-1.9,14.4399c-3.06,4.23-8.96,4.75-13.72,3.9601
		c-4.27-0.64-8.11-4.01-8.73-8.36C350.88,1281.12,352.97,1273.14,355.57,1265.7z"/>
	<path fill="#F7964A" stroke="#F7964A" stroke-width="0.3" d="M1068.38,1242.9c2.9399,5.3199,4.54,11.25,6.91,16.84
		c2.8099,7.8201,5.75,15.86,5.89,24.27c0.09,4.65-1.6001,10.03-6.2201,11.99c-4.89,1.9399-11.1,1.73-15.3099-1.64
		c-4.5-3.97-3.89-10.61-3.16-15.97C1058.61,1266.02,1064.0601,1254.59,1068.38,1242.9z"/>
	<path fill="#E6E7E8" stroke="#E6E7E8" stroke-width="0.3" d="M471.77,1245.35c0.6799-7.72,0.5601-15.46,0.48-23.1899
		c-11.7-6.98-22.64-15.1801-34.33-22.15c-1.79-0.98-3.9-0.83-5.86-0.9401c-9.19-0.09-18.38-0.6899-27.57-0.2799
		c12.16,11.72,25.05,22.72,37.16,34.5299c9.84,9.25,19.37,18.8201,29.1901,28.0801c0.2899-3.13,0.5999-6.23,0.8199-9.34
		c0.61-1.7001,0.62-3.51,0-5.16C471.6899,1246.51,471.74,1245.73,471.77,1245.35z"/>
	<path fill="#CFC1CE" stroke="#CFC1CE" stroke-width="0.3" d="M1267.65,1264.54c5.91-2.39,11.03-6.37,15.37-10.99
		c0.99,17.1499-1.88,34.2999-5.91,50.9199c-5.65,18.64-14.5499,36.41-27.3199,51.2101c-17.37,20.5099-40.53,35.33-64.98,46.0199
		c-8.8301,3.89-17.9,7.2301-27.0601,10.2101c1.9,15.6799,3.26,31.4199,4.53,47.1599c1.53,26.0601,1.75,52.2001,0.28,78.26
		c-0.9601,10.55-1.7001,21.15-3.4301,31.61c-4.64,0.3401-9.3,0.05-13.9401,0.14c0.05,33.5701,0.01,67.15,0.02,100.7201
		c0.15,5.6399-0.52,11.34,0.3401,16.96c-12.64-0.46-25.3101,0.15-37.9701,0.14c0.04,1.37,0.1001,2.75,0.1901,4.15
		c-0.98-10.66-1.48-21.3501-2.6801-31.9801c-0.5499-0.25-1.64-0.73-2.1899-0.98c0.59,0.13,1.75,0.38,2.33,0.51
		c-2.53-29.7999-5.02-59.62-7.2-89.4399c-7.3401-0.17-14.6901-0.01-22.02-0.11c-11.23,0-22.46-0.17-33.6801,0.11
		c-1.72,21.88-3.46,43.77-5.35,65.64c-0.0499,0.48-0.15,1.4299-0.2,1.9099c-1.5,3.61-0.7001,7.49-0.77,11.28
		c-1.05,12.96-2.1901,25.92-3.14,38.89c-12.58-0.04-25.16-0.36-37.73-0.29c0.08-16.5499-0.02-33.1,0.03-49.65
		c-0.08-18.6399-0.01-37.2899-0.03-55.9299c-0.06-4.02,0.55-8.22-1.32-11.9301c-6.14,0.01-12.26,0-18.39,0.01
		c-2.7-18.39-3.84-37-3.91-55.58c26.74-0.01,53.49,0,80.24,0c8.04,6.95,18.49,11.33,29.23,10.79
		c17.25-0.2001,33.3201-12.75,37.9301-29.3301c4.96-16.1899-1.4401-34.99-15.36-44.6799c-11.25-8.23-26.8501-9.98-39.66-4.5
		c-3.62,1.51-6.86,3.74-10.17,5.8099c-9.4199-31.52-19.26-62.9199-28.36-94.52c20.1901,0,40.39-0.1,60.58,0.02
		c19.9401,0.04,39.88,0.03,59.8201,0.01l-0.62-0.77c2.0399,0.8,4.34,1.01,6.4399,0.2001c21.6801-8.14,43.05-19.9501,57.03-38.9301
		c11.23-15.0599,16.91-33.5599,18.9401-52.0699c0.2-1.88,0.37-3.76,0.5699-5.62C1239.34,1268.15,1254.85,1269.91,1267.65,1264.54z"
		/>
	<path fill="#E6E7E8" stroke="#E6E7E8" stroke-width="0.3" d="M149.02,1254.15c5.59,4.98,11.55,9.9,18.9,12.03
		c12.05,3.9099,25.78,1.75,36.14-5.52c0.77,3.74,1.04,7.5599,1.58,11.35c2.45,16.79,8.49,33.3099,18.85,46.86
		c10.36,13.98,25.11,24.01,40.6,31.55c7.43,2.96,14.61,7.95,22.93,7.4399c19.82-0.21,39.64,0.15,59.46-0.1799
		c17.54-0.2301,35.1,0.33,52.62-0.27c15.16,1.21,30.43-0.1,45.63,0.6699c0.77,1.78,0.55,4.5,2.62,5.41c3.78,1.77,7.79,3,11.62,4.7
		c3.76,1.5901,7.47,3.3,11.17,5.05c0.45,11.26,0.79,22.53,1.18,33.8c-0.09,4.12,1.63,8.2999,5.53,10.1499
		c1.13,6.1901,2.32,13.1801,7.55,17.3601c2.71,2.2999,6.38,2.46,9.76,2.6599c0.32,7.13,2.18,16.2101,9.89,18.77
		c8.28,2.4401,14.9-6.3199,14.63-13.9c-0.34-12.14-1.3-24.2699-1.84-36.3999c3.98,2.0499,6.36,5.9399,9.39,9.08
		c3.65,3.88,6.59,8.36,9.78,12.63c12.96,19.15,20.72,41.67,23.12,64.62c1.11,5.9399,1.08,12,1.59,18.02
		c0.2401,2.4199-0.05,4.85-0.54,7.24c-13.6-14.86-38.2-17.09-54.24-4.88c-2.04-11.15-2.98-22.62-7.08-33.3
		c-4.98-16.0499-15.17-29.98-27.64-41.0599l-0.46-0.3401c-5.29-3.6599-10.28-7.8199-16.09-10.6399
		c1.89,13.0399,2.8,26.1899,4.12,39.2999c2.32,34.48,2.64,69.27-2.13,103.5801c-6.58,0.3999-13.17-0.05-19.76,0.1699
		c-0.18,22.9-0.44,45.8301,0.08,68.73c10.03-1.61,20.1-2.96,30.15-4.48c1.59-0.16,3.01-0.91,3.9-2.25l-0.55,1.67
		c18.38-2.42,36.8-4.59,55.25-6.48c13.1-1.0801,26.17-2.48,39.29-3.36c6.27-0.4301,12.54-1.3501,18.85-1.02
		c0.05,30.76-0.09,61.5299,0.07,92.2899c-4.05,0.03-8.09,0.03-12.14-0.0299c-0.2,14-0.04,28-0.08,42.01
		c11.63-0.02,23.26-0.01,34.89-0.01c0.06,1.7699,0.13,3.5499,0.22,5.36c-2.66-1.26-5.51-2.05-8.4-2.53
		c-2.28,3.0699-4.82,5.95-7.45,8.73c-0.88,0.85-1.78,1.7001-2.68,2.55c-0.82,0.7-1.63,1.4399-2.45,2.1699
		c-1.74,1.52-3.75,2.6901-5.68,3.9601c-2.74,1.9199-5.48,3.85-8.45,5.4199c-2.3799,1.01-4.74,2.0901-7.18,2.9801
		c-6.79,1.5399-13.21,4.37-19.65,6.96c-9.91,4.39-20.1,9.41-27.17,17.89c-3.85,5.0399-7.6,11.9099-4.53,18.24
		c-3.44,3.51-6.45,7.99-6.27,13.11c0.53,3.72,3.11,6.9,6.4,8.63c7.67,4.2999,16.57,5.24,25.05,6.9299
		c16.33,2.9601,33.19,3.9601,49.6,1.05c16.3701-2.91,31.78-9.35,47.16-15.46c12.91-4.9701,25.96-9.76,39.54-12.62
		c3.73-0.8,7.87-2.77,8.86-6.8101c1.64-7.2999,0.23-15.14-3.55-21.5499c-0.38,0.1399-1.16,0.4299-1.54,0.5699
		c0.24-9.66-4.76-18.4-5.59-27.9c-0.11-2.53-2.13-5.38-4.9-5.02c-2.49,0.0901-3.86,2.4501-4.78,4.4501
		c-0.33-5.7001-0.15-11.41-0.2-17.11c13.72,0,27.4301-0.02,41.15,0.01c-0.03-13.8101,0.04-27.6101-0.04-41.42l-0.01-0.73
		c-3.9,0.0699-7.8,0.1-11.69,0.11c1.03-32.12,2.02-64.24,3.05-96.36c6.69-1.4601,13.57-0.36,20.36-0.88
		c9.75-0.12,19.51,0.03,29.27-0.03c0.99,32.45,2.04,64.9,3.11,97.34c-3.99,0.03-7.96-0.0399-11.93,0l-0.96,0.03
		c-0.33,13.87-0.1801,27.76-0.05,41.63l0.98,0.21c13.8,0.2201,27.61,0.02,41.42,0.0901c-0.05,6.24-0.37,12.51,0.23,18.75
		c-1-2.38-1.94-5.5701-4.88-6.03c-2.76-0.64-5.07,1.98-5.26,4.5499c-0.92,8.65-4.53,16.7101-5.79,25.3
		c-4.92,7.15-7.1,16.5601-4.54,24.98c0.98,3.36,4.36,4.9601,7.56,5.5701c18.99,4.09,37.03,11.49,55.02,18.6599
		c11.67,4.4,23.5601,8.52,35.9901,10.17c20.32,3.11,40.94-0.03,60.81-4.49c5.87-1.51,12.3-3.6901,15.76-9.02
		c3.09-5.79-0.72-12.76-5.4301-16.4c0.96-2.23,1.78-4.6699,1.23-7.09c-1.43-7.39-6.52-13.52-12.36-18
		c-8.5699-6.51-18.54-10.8199-28.54-14.62c-3.92-1.37-7.75-3.16-11.91-3.6899c-2.25-1.0901-4.51-2.17-6.85-3.01
		c-2.82-1.5-5.39-3.4-8.03-5.16c-2.03-1.3-4.05-2.59-5.88-4.13c-0.88-0.75-1.72-1.51-2.55-2.25c-0.93-0.87-1.82-1.73-2.68-2.59
		c-2.72-2.77-5.2401-5.7101-7.59-8.77c-2.73,0.62-5.43,1.35-7.99,2.49c-0.02-1.77-0.01-3.5,0-5.22
		c11.63-0.03,23.26,0.0499,34.89-0.04c-0.07-13.98-0.01-27.95-0.03-41.92c-4.04,0.01-8.07,0.01-12.09,0
		c-0.0099-30.97,0.03-61.9299-0.02-92.8999c8.68,0.5599,17.37,1.0699,26.02,2.0399c-0.17-0.87-0.5099-2.6-0.68-3.47
		c0.36,1.0699,0.75,2.15,1.16,3.25c10.26,1.4,20.63,1.85,30.92,3.04c15.62,1.4299,31.18,3.39,46.77,5.14
		c11.11,1.45,22.21,2.9399,33.28,4.6299c-0.05,16.55,0.05,33.1001-0.03,49.65c-18.2,7.9601-36.44,15.86-54.48,24.16l0.85,0.27
		c2.35,1.03,4.94,1.09,7.48,1.02c27.23-0.3401,54.48,0.2899,81.6901-0.3101l0.1399-0.8199c0.88-8,1.28-16.03,2.05-24.03
		c0.95-12.97,2.09-25.9301,3.14-38.89c0.0699-3.79-0.73-7.67,0.77-11.28c-0.15,2.39-0.29,4.79-0.39,7.2201
		c22.34,3.84,44.52,8.6599,66.51,14.1599c0.5499,0.25,1.64,0.73,2.1899,0.98c1.2001,10.63,1.7001,21.3201,2.6801,31.9801
		c0.54,6.6,1.11,13.21,1.5699,19.83l0.0901,0.84c27.5299,0.6801,55.08-0.0599,82.62,0.3201c2.2,0.0699,4.45-0.0701,6.5-1.02
		l0.95-0.3301c-17.87-8.23-35.9301-16.0499-53.95-23.9299c-0.8601-5.62-0.1901-11.3201-0.3401-16.96
		c23.86,7.5199,47.48,16.0699,69.92,27.21c15.73,7.85,31.03,16.9399,44.17,28.73c11.85,10.6901,22.3999,24.8101,23.1399,41.33
		c0.8101,16.17-8.5299,30.7401-19.6599,41.65c-13.8401,13.52-30.67,23.5-47.86,32.14c-29.62,14.58-61.0901,25-92.8401,33.8201
		c-39.4399,10.7999-79.61,18.74-119.9899,25.09c-93.83,14.5-188.86,20.1-283.75,20.2c-21.83-0.2-43.66-0.72-65.48-1.1899
		c-54.45-1.9-108.85-5.78-162.93-12.4501c-50.49-6.25-100.76-14.74-150.13-27.12c-36.31-9.27-72.34-20.3999-106.26-36.51
		c-17.84-8.6499-35.29-18.7-49.88-32.2699c-11.21-10.5901-21.03-24.4501-21.42-40.41c-0.55-16.47,9.29-31.13,20.78-42.0601
		c13.12-12.49,28.8-21.9299,44.88-30.11c19.19-9.63,39.24-17.49,59.65-24.12l1.11-0.37c0.32-28.11,0.08-56.24,0.17-84.36
		c-0.11-6.23,0.2-12.47-0.18-18.6801l-1.07-0.08c-4.72-0.14-9.43-0.02-14.14-0.0599c-5.08-36.05-5.47-72.63-3.05-108.91
		c0.91-16.25,2.85-32.41,4.29-48.6c-17.1-5.78-34.04-12.41-49.56-21.7001c-15.56-8.85-30.02-20.01-41.54-33.77
		c-19.31-21.5499-30.03-49.76-33.23-78.2899C149.17,1270.7,149.24,1262.4,149.02,1254.15 M335,1570.16
		c-0.99,5.9099-0.93,11.9199-1.65,17.87c-0.06,1.62-0.6,3.48,0.34,4.98l-0.54-0.48c-2.09,23.0599-3.78,46.1699-5.72,69.25
		c22.83-6.0701,45.87-11.38,69.1-15.6801c-0.14-3.58-0.49-7.14-0.84-10.6899c-0.1-3.49-0.59-6.9601-0.71-10.4301
		c-0.25-1.51,0.31-3.35-0.87-4.49c0.63-3.15-0.2-6.38-0.36-9.53c-1.05-13.58-2.26-27.14-3.21-40.72
		c-11.03-0.09-22.06-0.08-33.09-0.01C349.97,1569.97,342.48,1570.13,335,1570.16 M285.7,1688.64c-15.48,6.89-31,13.72-46.5,20.58
		c-1.88,0.87-3.99,1.4-5.53,2.88c29.87,0.1,59.75,0,89.62,0.05c0.67-8.03,1.47-16.04,1.87-24.0801
		c-10.73,0.1001-21.47-0.0599-32.19-0.1799C290.54,1687.91,287.96,1687.49,285.7,1688.64 M400.03,1688.17
		c0.69,7.99,1.28,15.98,1.99,23.98c29.92,0.01,59.83-0.05,89.75,0.03c-2.81-2.38-6.77-3.1101-10.01-4.89
		c-13.18-5.8401-26.39-11.63-39.55-17.5c-2.02-0.86-4-2.0901-6.26-1.92C423.98,1688,412,1688.0699,400.03,1688.17z"/>
	<path fill="#D2D3D5" stroke="#D2D3D5" stroke-width="0.3" d="M564.95,1266.89c9.39,0,17.79,8.6899,17.1,18.14
		c0.02,9.02-8.16,16.3099-16.88,16.9199c-1.59-5.84-0.45-11.9399-0.77-17.8899C564.88,1278.34,564.24,1272.5699,564.95,1266.89z"/>
	<path fill="#D2D3D5" stroke="#D2D3D5" stroke-width="0.3" d="M631.32,1267.37c9.62-2.71,20.47,4.66,21.47,14.5699
		c1.09,7.26-3.02,15.1001-9.7599,18.1201c-8.42,4.1499-19.92,0.23-23.3701-8.67C615.04,1281.98,621.11,1269.6,631.32,1267.37z"/>
	<path fill="#D2D3D5" stroke="#D2D3D5" stroke-width="0.3" d="M702.26,1267.37c3.99-0.9,8.32-0.53,12.02,1.28
		c5.3,2.76,8.8799,8.34,9.5099,14.25c0.66,7.71-4.23,15.71-11.79,17.91c-8.69,3.12-19.39-1.9401-21.99-10.9301
		C686.3,1280.63,692.77,1269.55,702.26,1267.37z"/>
	<path fill="#D2D3D5" stroke="#D2D3D5" stroke-width="0.3" d="M773.26,1267.36c8.95-2.46,18.89,3.71,20.93,12.7001
		c2.68,9.1599-3.89,19.5299-13.21,21.2999c-9.26,2.27-19.85-4.67-20.85-14.29C758.54,1278.39,764.63,1269.21,773.26,1267.36z"/>
	<path fill="#D2D3D5" stroke="#D2D3D5" stroke-width="0.3" d="M844.29,1267.39c8.76-2.38,18.78,3.7,20.76,12.5599
		c3.05,10.2201-5.34,21.7101-16.06,21.78c-8.18,0.49-16.27-5.59-17.79-13.71C828.91,1279.0601,835.25,1269.17,844.29,1267.39z"/>
	<path fill="#E6E7E8" stroke="#E6E7E8" stroke-width="0.3" d="M461.15,1253.86c-19.43-18.67-38.76-37.53-59.27-54.99
		c-11.27-0.6801-22.6,0.11-33.88,0.34c-7.53,0.5901-15.14,0.4701-22.63,1.3501c-0.33,0.34-0.98,1.0199-1.31,1.36
		c7.76,5.7799,15.41,11.71,22.6,18.2c0.2,0.17,0.59,0.5,0.78,0.66c2.22,2.61,4.81,4.88,7.71,6.74c0.15,0.13,0.45,0.4,0.6,0.53
		c2.18,2.34,4.6,4.45,7.13,6.4099c0.5,0.4301,1,0.87,1.51,1.3301c3.61,3.9299,7.55,7.5499,11.74,10.87
		c0.39,0.33,0.78,0.6899,1.18,1.0499c5.01,5.64,10.82,10.49,16.03,15.9401c6.46,6.13,12.27,12.9299,18.84,18.95
		c0.47,0.5,0.95,1.02,1.44,1.55c3.22,3.9199,6.73,7.59,10.34,11.16c0.17,0.21,0.52,0.61,0.7,0.8099c2.26,2.89,4.66,5.6801,7.37,8.17
		c0.63,0.61,1.26,1.24,1.91,1.89c7.05-9.52,10.9101-20.92,13.9101-32.2401c1.48-3.62,3.0499-7.2799,2.9199-11.2699
		C467.02,1260.37,464.3201,1256.83,461.15,1253.86z"/>
	<path fill="#ED3237" stroke="#ED3237" stroke-width="0.3" d="M331.76,1312.03c21.22,0.08,42.45,0.11,63.67-0.02
		c-0.68,7.2-5.42,13.41-11.34,17.27c-10.95,7.1599-25.7,7.75-37.4,2.0599C339.14,1327.6801,332.6,1320.66,331.76,1312.03z"/>
	<path fill="#ED3237" stroke="#ED3237" stroke-width="0.3" d="M1037.52,1311.5699c21.21,0.0901,42.4299-0.1699,63.63,0.13
		c-1.09,5.99-4.3201,11.5-9.13,15.25c-11.23,8.89-27.74,9.88-40.36,3.4301C1044.49,1326.6899,1038.24,1319.88,1037.52,1311.5699z"/>
	<path fill="#D2D3D5" stroke="#D2D3D5" stroke-width="0.3" d="M564.59,1332.01c3.16,0.8199,6.45,1.47,9.29,3.1899
		c7.22,4.1101,10.11,14.02,6.76,21.53c-1.01,2.8101-3.34,4.77-5.18,7.02c1.12,1.02,3.04,0.36,4.48,0.62
		c15-0.21,30.01,0.24,45.01-0.22c-3-3.29-6.21-6.8-6.59-11.4601c-1.77-8.8999,4.72-18.3099,13.66-19.8099
		c9.6-2.36,20.04,5.21,20.81,15.0699c1.01,6.25-2.29,12.15-6.82,16.1901c12.32,0.49,24.65,0.04,36.98,0.21
		c4.25-0.0499,8.56,0.36,12.76-0.5499c-5.77-4.6001-8.37-12.79-5.72-19.77c2.66-8.41,12.53-13.4301,20.93-10.89
		c8.97,1.96,14.86,12.21,12.36,20.99c-0.66,4.09-3.8,6.9399-6.38,9.92c8.35,0.6399,16.75,0.1599,25.13,0.2999
		c8.24-0.2899,16.56,0.5801,24.76-0.51c-9.25-6.38-9.09-21.65,0.15-27.9399c8.76-7.16,23.65-2.35,26.8,8.45
		c2.8199,7.12-0.66,14.84-5.94,19.78c9.04,0.47,18.1,0.08,27.15,0.1899c7.56-0.24,15.21,0.65,22.72-0.5099
		c-4.21-3.3-6.95-8.4701-6.94-13.8401c-0.28-8.84,7.33-17.1699,16.24-17.4099c10.59-1.1001,20.24,9.3799,18.44,19.83
		c-0.47,4.6799-3.58,8.3099-6.56,11.6899c4.82,0.4601,9.66,0.36,14.48,0.0701l0.01,0.71c-25.76-0.42-51.52,0.09-77.28-0.04
		c-28.7-0.3999-57.39,0.3301-86.08-0.1799c-25.68,0.22-51.37,0.25-77.04,0.01c-16.99,0.3099-33.98,0.11-50.97,0.15
		c-5.9,0.23-11.81-0.65-17.69,0.0499c0.01-7.86,0.14-15.72,0-23.5699C564.35,1338.1801,564.56,1335.09,564.59,1332.01z"/>
	<path fill="#3DA3B9" stroke="#3DA3B9" stroke-width="0.3" d="M979.15,1357.16c11.03-0.3301,22.0699-0.39,33.12-0.24
		c4.36,0.1,8.72,0.0499,13.1,0.1599c9.1,31.6001,18.9401,63,28.36,94.52c6.1801,20.64,12.46,41.25,18.65,61.89
		c-6.88,0.02-13.75-0.03-20.62,0.02c-26.75,0-53.5-0.01-80.24,0c-9.79,0.02-19.58-0.01-29.36,0.02
		c3.73-15.8101,7.53-31.6,11.19-47.4301c3.2401-13.09,6.22-26.23,9.37-39.34c1.01-5.16,2.85-10.16,3.27-15.42
		c0-0.08,0.01-0.24,0.01-0.3199c4.02-12.6901,6.3-25.92,9.61-38.8301C976.79,1367.17,977.99,1362.17,979.15,1357.16z"/>
	<path fill="#BDBFC1" stroke="#BDBFC1" stroke-width="0.3" d="M564.32,1364.85c5.88-0.7,11.79,0.1801,17.69-0.0499
		c16.99-0.04,33.98,0.1599,50.97-0.15c25.67,0.24,51.36,0.21,77.04-0.01c28.69,0.51,57.38-0.22,86.08,0.1799
		c25.76,0.13,51.52-0.38,77.28,0.04c0.01,9.8101,0.12,19.62-0.05,29.4301c-5.19,0.1499-10.38,0.0499-15.57,0.0499
		c-39.52,0.05-79.04,0.13-118.56-0.0499c-3.51-1.5601-7.49-0.4701-11.19-0.75c-8.2-0.52-16.29,1.33-24.49,0.88
		c-38.5,0.11-76.99,0.0599-115.49,0.0299c-1.27-0.1899-2.3701,0.13-3.28,0.9501l-0.71,0.6799c0.06-0.4199,0.17-1.26,0.23-1.6899
		l-0.29-1.09c-6.54-0.2301-13.09,0.11-19.62-0.3C564.34,1383.62,564.38,1374.23,564.32,1364.85z"/>
	<path fill="#D2D5D7" stroke="#D2D5D7" stroke-width="0.3" d="M564.36,1393c6.53,0.41,13.08,0.0699,19.62,0.3l0.29,1.09
		c-6.63,0.03-13.27,0.01-19.9,0.02L564.36,1393z"/>
	<path fill="#5BBBA6" stroke="#5BBBA6" stroke-width="0.3" d="M739.2,1394.29c39.52,0.1799,79.04,0.1,118.56,0.0499
		c0.01,37.42-0.17,74.8401,0.09,112.25c-0.3199,38.5601-0.02,77.15-0.15,115.7201c0.05,30.97,0.01,61.9299,0.02,92.8999
		c-36.1899,0-72.37,0.0701-108.55,0c-1.07-32.4399-2.12-64.89-3.11-97.34c-2.03-59.3-3.76-118.6-5.75-177.9
		C740.09,1424.74,738.93,1409.52,739.2,1394.29z"/>
	<path fill="#5BBBA6" stroke="#5BBBA6" stroke-width="0.3" d="M584.75,1395.4c0.91-0.8201,2.01-1.14,3.28-0.9501
		c38.5,0.03,76.99,0.0801,115.49-0.0299c-2.17,74.7899-4.75,149.5699-7.09,224.36c-1.03,32.12-2.02,64.24-3.05,96.36
		c3.89-0.01,7.79-0.04,11.69-0.11l0.01,0.73c-23-0.91-46.04-0.4-69.06-0.53c-17.03-0.03-34.05,0.0701-51.08-0.03
		c-0.16-30.76-0.02-61.5299-0.07-92.2899C584.82,1547.0699,584.97,1471.23,584.75,1395.4z"/>
	<path fill="#FAC458" stroke="#FAC458" stroke-width="0.3" d="M1063.9,1445.79c12.8099-5.48,28.41-3.73,39.66,4.5
		c13.9199,9.6899,20.3199,28.49,15.36,44.6799c-4.61,16.5801-20.6801,29.13-37.9301,29.3301
		c-10.74,0.5399-21.1899-3.8401-29.23-10.79c6.87-0.05,13.74,0,20.62-0.02c-6.1901-20.64-12.47-41.25-18.65-61.89
		C1057.04,1449.53,1060.28,1447.3,1063.9,1445.79z"/>
	<path fill="#FAC458" stroke="#FAC458" stroke-width="0.3" d="M506.94,1512.39c16.04-12.21,40.64-9.98,54.24,4.88
		c2.76,3.14,5.24,6.58,7.04,10.38c6.73,13.66,4.86,30.99-4.64,42.9c-6.43,8.3999-16.26,13.85-26.66,15.51
		c-17.47,2.48-35.72-7.4801-42.87-23.64c-4.73-10.5-4.93-22.99-0.21-33.53C496.66,1522.36,501.33,1516.72,506.94,1512.39z"/>
	<path fill="#F9F9FB" stroke="#F9F9FB" stroke-width="0.3" d="M287.58,1570.24l1.07,0.08c0.38,6.2101,0.07,12.4501,0.18,18.6801
		c-0.09,28.12,0.15,56.25-0.17,84.36l-1.11,0.37C287.52,1639.23,287.46,1604.74,287.58,1570.24z"/>
	<g>
		<path fill="#FCFCFC" stroke="#FCFCFC" stroke-width="0.3" d="M537.01,1427.39c1.64-5.02,3.1599-10.0701,4.85-15.0701
			c-5.74,1.76-12.17-0.7-15.6901-5.4399c-3.4099-5.23-5.6299-11.15-9.1099-16.33c0.1099,5.0399,0.5,10.08,0.78,15.13
			c3.98,2.0499,6.3599,5.9399,9.3899,9.08C530.88,1418.64,533.8201,1423.12,537.01,1427.39z"/>
		<path fill="#FCFCFC" stroke="#FCFCFC" stroke-width="0.3" d="M728.01,1393.54c-8.2-0.52-16.29,1.33-24.49,0.88
			c-2.17,74.7899-4.75,149.5699-7.0901,224.36c6.6901-1.4601,13.5701-0.36,20.3601-0.88c-0.14-74.51-0.04-149.01-0.24-223.52
			c7.5499-0.08,15.1,0.09,22.6499-0.09C735.6899,1392.73,731.71,1393.8199,728.01,1393.54z"/>
		<path fill="#FCFCFC" stroke="#FCFCFC" stroke-width="0.3" d="M584.75,1395.4l-0.71,0.6799c-8.01,31.9601-15.7,64.01-23.91,95.9301
			c1.11,5.9399,1.08,12,1.59,18.02c0.24,2.4199-0.05,4.85-0.54,7.24c2.76,3.14,5.24,6.58,7.04,10.38
			c6.73,13.66,4.8601,30.99-4.6399,42.9c-6.4301,8.3999-16.26,13.85-26.6602,15.51c-3.3499,13.75-6.8398,27.47-10.1899,41.23
			c13.1001-1.0801,26.17-2.48,39.29-3.36c6.27-0.4301,12.54-1.3501,18.85-1.02C584.8201,1547.0699,584.97,1471.23,584.75,1395.4z"/>
		<path fill="#FCFCFC" stroke="#FCFCFC" stroke-width="0.3" d="M254.68,1202.3101c-11.11,8.1699-22.27,16.2699-33.32,24.5299
			c0.18,13.23-6.56,26.15-17.3,33.8201c0.77,3.74,1.04,7.5599,1.58,11.35c2.45,16.79,8.49,33.3099,18.85,46.86
			c12.73-11.6899,25.42-23.42,38.02-35.24c-1.5-4.23-2.21-8.6901-3.61-12.9401c-0.38-0.2-1.15-0.6-1.53-0.7999
			c-3.01-18.16-3.12-36.67-2.93-55.03c0.11-1.04,0.31-2.04,0.6-3.02c-0.67-1.9299-0.7-4,0.21-5.83
			C255.11,1205.09,254.82,1203.24,254.68,1202.3101z"/>
		<path fill="#FCFCFC" stroke="#FCFCFC" stroke-width="0.3" d="M150.35,1278.91c-15.4,11.36-30.85,22.6699-46.27,34
			c14.68,25.62,29.27,51.2999,43.89,76.97c8.42-7.9,16.91-15.72,25.39-23.55c3.45-3,6.47-6.49,10.22-9.13
			C164.27,1335.65,153.55,1307.4399,150.35,1278.91z"/>
		<path fill="#FCFCFC" stroke="#FCFCFC" stroke-width="0.3" d="M966.3401,1396.1c-0.1802,4.97-0.6001,9.9401-0.3401,14.92
			c4.02-12.6901,6.3-25.92,9.61-38.8301c-2.65-4.97-5.08-10.0399-7.7699-14.98C967.11,1370.16,966.9,1383.14,966.3401,1396.1z"/>
		<path fill="#FCFCFC" stroke="#FCFCFC" stroke-width="0.3" d="M873.37,1364.15l0.01,0.71c0.01,9.8101,0.12,19.62-0.0499,29.4301
			c-5.1901,0.1499-10.3801,0.0499-15.5701,0.0499c0.01,37.42-0.1699,74.8401,0.09,112.25c8.37,38.1,16.76,76.2001,25.1901,114.29
			c0.36,1.0699,0.75,2.15,1.1599,3.25c10.26,1.4,20.6301,1.85,30.92,3.04c15.62,1.4299,31.1801,3.39,46.77,5.14
			c-29.2999-91.66-58.49-183.3601-87.9601-274.9601C873.02,1359.5,873.4099,1361.87,873.37,1364.15z"/>
		<path fill="#FCFCFC" stroke="#FCFCFC" stroke-width="0.3" d="M873.48,1262.8101c11.46,30.2599,23.64,60.2599,35.39,90.4099
			c-2.42-21.75-5.76-43.4-8.5699-65.1c-3.9501-28.85-7.5901-57.75-11.77-86.5699c-4.6201-9.0801-9.23-18.17-13.91-27.2201
			c-1.15,2.39-1.66,5.01-1.5,7.66C873.55,1208.9301,872.64,1235.89,873.48,1262.8101z"/>
		<path fill="#FCFCFC" stroke="#FCFCFC" stroke-width="0.3" d="M311.64,705.8201c52.97,20.6599,105.96,41.2599,158.92,61.95
			c22.5599,8.7,45.0399,17.65,67.6399,26.25l1.3101,0.48c-1.05-5.1-2.38-10.23-2.13-15.47c0.17-3.94,0.4-7.86,0.4501-11.8
			c-16.02-8.63-31.99-17.36-48.0801-25.87c-54.39-29.49-108.89-58.7999-163.36-88.16c-39.56-21.34-79.07-42.77-118.71-63.97
			c-48.51-26.36-97.2-52.4199-145.75-78.72c-9.27,28.99-18.35,58.04-27.8,86.97c47.68,19.01,95.65,37.3501,143.44,56.0801
			C222.25,671.01,266.96,688.39,311.64,705.8201z"/>
		<path fill="#FCFCFC" stroke="#FCFCFC" stroke-width="0.3" d="M382.96,811.15c65.09,10.22,130.17,20.43,195.2599,30.64
			c-12.55-6.1-23.6799-15.48-30.72-27.63c-48.3201-14.02-96.58-28.27-144.92-42.21c-70.67-20.75-141.4-41.32-212.11-61.95
			C133.5,693.35,76.51,676.74,19.54,660.0901c-4.73,30.6199-9.5,61.23-14.1,91.8699c59.49,9.19,118.94,18.64,178.41,27.93
			C250.22,790.34,316.59,800.71,382.96,811.15z"/>
		<path fill="#FCFCFC" stroke="#FCFCFC" stroke-width="0.3" d="M249.44,832.79c-50.68-3.28-101.34-6.7-152.02-9.94
			c-32.33-2.18-64.67-4.23-97-6.41c0.02,31.12,0.02,62.24,0,93.35c34.03-2.15,68.05-4.42,102.07-6.6
			c51.69-3.37,103.38-6.63,155.05-10.09c55.98-3.49,111.94-7.2599,167.91-10.83c77.17-4.98,154.33-10.05,231.4999-14.98
			c0.02-2.62,0.0801-5.22,0.1401-7.82C583.6,854.87,510.15,849.65,436.65,845.2C374.27,840.8,311.84,836.97,249.44,832.79z"/>
		<path fill="#FCFCFC" stroke="#FCFCFC" stroke-width="0.3" d="M328.53,948.86c-53.73,11.72-107.43,23.58-161.12,35.48
			c-52.11,11.37-104.16,23-156.27,34.36c5.77,30.3,12.1,60.5099,17.89,90.81c55.45-19.73,110.81-39.6901,166.23-59.49
			c45.72-16.38,91.44-32.76,137.16-49.14c44.6-15.96,89.18-31.96,133.7899-47.91c49.99-17.96,100.04-35.7599,150-53.81
			c12.41-8.8199,26.3801-15.1299,40.77-19.96c0-0.71,0-2.11,0-2.81c-67.1499,14.9-134.36,29.52-201.48,44.49
			C413.15,930.11,370.82,939.42,328.53,948.86z"/>
		<path fill="#FCFCFC" stroke="#FCFCFC" stroke-width="0.3" d="M165.1,1189.1801c7.7599-3.17,16.48-3.76,24.65-1.92
			c8.89-5.2,17.59-10.74,26.39-16.11c32.01-19.6901,64.02-39.4,96.03-59.1c35.3-21.7001,70.56-43.4501,105.87-65.14
			c34.05-21,68.1599-41.91,102.1899-62.9401c3.88-11.47,9.37-22.46,16.64-32.16c1.52-2.1,2.8199-4.36,3.7201-6.8l-0.6501-0.71
			C492.27,966.2,444.56,988.04,396.92,1010.01c-40.2,18.38-80.35,36.89-120.53,55.3099c-33.27,15.3-66.56,30.5601-99.82,45.8601
			c-43.41,19.9299-86.8,39.88-130.22,59.7899c10.54,28.41,20.94,56.87,31.54,85.27c20.92-12.9399,41.96-25.6799,62.78-38.76
			C143.6,1204.83,153.06,1193.97,165.1,1189.1801z"/>
		<path fill="#FCFCFC" stroke="#FCFCFC" stroke-width="0.3" d="M366.64,1120.08l0.17,1.0901c10.65,0.5699,21.33-0.15,31.98,0.3199
			c8.6,1.65,16.63,5.38,24.65,8.78c0.49,0.15,1.47,0.45,1.96,0.61c0.4,0.54,0.8,1.11,1.22,1.6801c0.62-2.13,2.67-3.27,4.15-4.7401
			c24.04-22.2599,48.0701-44.5299,72.09-66.7999c0.29-0.28,0.85-0.84,1.14-1.12l0.37-0.78c1.86-2.9301,1.58-6.51,2.0599-9.8
			c0.7401-7.1399,2.1801-14.1899,2.5701-21.36c0.16-3.37,1.05-6.65,1.92-9.8799c-0.33-0.75-0.9901-2.23-1.33-2.97
			C461.91,1050.05,414.27,1085.0601,366.64,1120.08z"/>
		<path fill="#FCFCFC" stroke="#FCFCFC" stroke-width="0.3" d="M680.12,1.01c-25.6901,2.98-51.3099,6.48-76.97,9.6
			c6.09,47.34,12.46,94.65,18.7799,141.9601C631.87,228.51,642.01,304.4099,652.0901,380.33
			c14.3198-3.15,29.0399-4.25,43.6799-3.8199c-3.3201-79.27-6.48-158.54-9.99-237.8C684.05,92.8,681.98,46.9099,680.12,1.01z"/>
		<path fill="#FCFCFC" stroke="#FCFCFC" stroke-width="0.3" d="M794.9299,152.6799C800.61,104.3101,805.6599,55.87,811.22,7.49
			c-25.78-2.52-51.5699-4.98-77.36-7.34c-0.67,41.9401-1.71,83.86-2.51,125.7999c-0.3099,21.8701-1.15,43.74-1.1901,65.6201
			c-0.8799,16.45-0.5898,32.95-1.21,49.4199c-0.51,17.9199-0.53,35.87-1.1299,53.79c-0.4601,28.1599-1.3,56.2999-1.6101,84.46
			c0.8301,0.13,1.67,0.3,2.51,0.48c13.53,2.5801,26.96,5.88,39.9301,10.5701c2.42-22.22,5.11-44.42,7.2999-66.67
			c5.74-49.16,10.96-98.39,16.51-147.58C793.27,168.25,794.3201,160.49,794.9299,152.6799z"/>
		<path fill="#FCFCFC" stroke="#FCFCFC" stroke-width="0.3" d="M813.6,412.29c7.17,4.5499,13.58,10.24,21.2201,14.0399
			c10.2-37.3099,20.2899-74.66,30.4399-111.98C872.6,287.3201,879.95,260.3,887.28,233.28C904.49,169.72,921.87,106.21,939,42.63
			c-24.98-8-49.89-16.25-74.9199-24.1C851.7,90.9,838.77,163.1899,826.1799,235.52c-4.76,27.0699-9.5299,54.1399-14.22,81.22
			c-5.0699,28.6-10.09,57.2-15.02,85.8201C802.63,405.55,808.21,408.77,813.6,412.29z"/>
		<path fill="#FCFCFC" stroke="#FCFCFC" stroke-width="0.3" d="M587.35,427.13c0.75,2.9,2.17,5.7799,1.76,8.85
			c2.5-19.65,16.4801-36.15,33.7201-45.05c-12.2001-62-24.4501-123.98-36.7001-185.97c-11.9601-60.5699-23.9-121.1499-35.88-181.73
			c-24.75,8.9299-49.58,17.5901-74.29,26.6101C494.27,111.61,512.45,173.4199,530.7,235.21
			C549.5801,299.1799,568.45,363.1599,587.35,427.13z"/>
		<path fill="#FCFCFC" stroke="#FCFCFC" stroke-width="0.3" d="M532.6,481.72c1.64-8.73,4.29-17.4399,9.29-24.85
			c4.5499-6.87,11.49-12.4301,19.71-14.01c-28.34-77.0699-56.63-154.16-84.97-231.22c-16.87-45.9601-33.8-91.89-50.63-137.86
			c-23.07,14.01-46.01,28.24-69.05,42.3099c20.6,43.04,41.33,86.02,61.99,129.04C456.79,324.01,494.79,402.8201,532.6,481.72z"/>
		<path fill="#FCFCFC" stroke="#FCFCFC" stroke-width="0.3" d="M901.12,519.23c-2.3099,5.8601-4.7101,11.7-7.89,17.15
			c-1.59,2.63-3.3999,5.12-5.35,7.5c-2.83,5.2101-5.6801,10.42-8.4301,15.6801c-1.26,2.24-0.51,4.8899-0.6799,7.33
			c0.46,8.59,0.6699,17.1801,1.0601,25.7699c1.25,1.02,2.3899,2.2401,3.0999,3.7201c0.5601,4.99,0.2001,10.0299,0.0901,15.0399
			c-0.03,2.6501-1.03,5.1501-1.9399,7.6001c17.26-25.49,34.45-51.02,51.6799-76.54c41.62-61.6799,83.29-123.34,124.9-185.04
			c36.9-54.6899,73.89-109.33,110.7-164.09c-20.9399-18.1901-41.77-36.51-62.62-54.7999
			c-35.52,65.9299-70.91,131.9299-106.3999,197.8699C966.61,397.36,933.8201,458.28,901.12,519.23z"/>
		<path fill="#FCFCFC" stroke="#FCFCFC" stroke-width="0.3" d="M332.24,323.3101c28.59,40.3099,57.26,80.5599,85.87,120.8599
			C459.6,502.55,501.12,560.9199,542.6,619.3101c-1.25-3.6301-2.39-7.3601-2.13-11.25c0.24-5.22-1.71-11.8401,3.27-15.47
			c0.12-4.3101,0.16-8.6101,0.52-12.9001c0.24-3.8999,0.2-7.8199,0.38-11.72c0.0299-2.86,0.62-5.9299-1.04-8.46
			c-27.7-48.49-55.11-97.14-82.8-145.63c-0.9675-0.4801-1.8676-1.0613-2.7169-1.7058c0.8493,0.6444,1.7494,1.2257,2.7169,1.7058
			c-24.95-44.1-50.02-88.13-75.03-132.2001c-24.76-43.6299-49.59-87.23-74.3-130.8899c-20.13,18.1299-39.8,36.77-59.8,55.0499
			c-0.6,0.6901-2.22,1.53-1.1,2.58C277.77,246.73,305,285.03,332.24,323.3101z"/>
		<path fill="#FCFCFC" stroke="#FCFCFC" stroke-width="0.3" d="M409.93,565.52c38.43,37.36,76.81,74.77,115.2599,112.11
			c-0.7899-9.67-2.48-19.28-5.1199-28.62c-1.75-6.46-1.4501-13.91,2.8099-19.36c-27.42-33.3199-54.98-66.52-82.44-99.8
			c-45.56-55.08-91.07-110.2001-136.62-165.2799C272.63,326.89,241.54,289.14,210.31,251.5c-17.23,23.1599-34.55,46.24-51.82,69.37
			c33.13,32.2001,66.26,64.41,99.34,96.67C308.55,466.84,359.24,516.1799,409.93,565.52z M416.69,557.71
			c-1.035,1.375-2.12,2.7126-3.2487,4.0138C414.57,560.4225,415.655,559.085,416.69,557.71z"/>
		<path fill="#FCFCFC" stroke="#FCFCFC" stroke-width="0.3" d="M865.45,427.6c9.1301-6.6,13.2001-17.7799,16.04-28.23
			c11.3,14.52,17.9399,32.11,22.0901,49.89c25.75-56.21,51.0599-112.64,76.6399-168.9301
			c26.4399-58.2799,52.7101-116.63,79.27-174.85c-23.1799-13.64-46.6599-26.77-69.87-40.36
			c-22.92,66.42-45.5599,132.9501-68.38,199.41C902.6599,318.89,883.9199,373.2,865.45,427.6z"/>
		<path fill="#FCFCFC" stroke="#FCFCFC" stroke-width="0.3" d="M1083.6,540.8401c-50.4199,44.2799-100.89,88.5-151.2699,132.8198
			C920.9,683.63,909.48,693.61,898.15,703.6899c-0.17,3.26-0.76,6.8901-3.4,9.1301c-2.6699,2.46-6.53,2.6899-9.96,2.33
			c-1.25,2.2799-0.67,4.9301-0.79,7.41c0.5,7.8599,0.48,15.7499,0.89,23.6199l0.0299,0.42
			c24.74-17.13,49.4801-34.2599,74.2301-51.37c55.11-38.1799,110.26-76.3,165.36-114.49c41.1-28.4199,82.16-56.89,123.26-85.3
			c29.9399-20.77,59.9299-41.47,89.88-62.23c-14.2101-26.04-28.0801-52.26-42.3-78.28c-33.51,29.5901-67.1799,59-100.76,88.51
			C1157.59,475.9099,1120.61,508.39,1083.6,540.8401z"/>
		<path fill="#FCFCFC" stroke="#FCFCFC" stroke-width="0.3" d="M87,453.1799c50.96,33.24,101.94,66.4601,152.9,99.7201
			c42.8,27.91,85.61,55.8099,128.41,83.74c37.27,24.3099,74.56,48.6,111.82,72.9301c19.4701,12.6599,38.89,25.3699,58.36,38.0299
			c0.4199-10.21,0.5601-20.41,1.0801-30.61c-0.4001-0.4299-1.2001-1.3101-1.6001-1.74c-5.8999,0.95-11.52-3.5701-11.6299-9.5701
			c-9.5901-8.3099-19.5-16.26-29.2001-24.4399c-33.16-27.48-66.16-55.1499-99.38-82.5601c-41.83-34.97-83.83-69.75-125.73-104.6499
			c-48.55-40.3801-97.13-80.72-145.64-121.16c-13.4,25.58-26.21,51.47-39.43,77.14C86.52,451,85.33,452.59,87,453.1799z"/>
		<path fill="#FCFCFC" stroke="#FCFCFC" stroke-width="0.3" d="M958.6,554.73c-19.3099,24.6001-38.67,49.17-57.95,73.79
			c4.67,5.3899,5.5399,13.0701,3.7799,19.8c-2.4399,8.95-4.33,18.0699-5.0898,27.33c28.98-29.6,57.9199-59.26,86.8099-88.9501
			c41.0499-41.97,82.0599-83.98,123.01-126.04c51.0499-52.1799,101.97-104.48,152.98-156.6899
			c-17.74-22.58-35.5701-45.09-53.26-67.71c-48.24,61.1699-96.26,122.5-144.42,183.73C1029.16,464.89,993.9,509.8201,958.6,554.73z
			 M1113.8199,453.4199h-0.0001c-1.875-1-3.7068-2.0713-5.5073-3.1929C1110.113,451.3486,1111.9449,452.4199,1113.8199,453.4199z"/>
		<path fill="#FCFCFC" stroke="#FCFCFC" stroke-width="0.3" d="M1107.1,637.98c-48.03,27.66-96.0399,55.38-144.0699,83.05
			c-25.8,14.9199-51.6801,29.7-77.4301,44.71c0.1,8.39,1.36,16.94-0.89,25.18c0.49,0.11,1.47,0.33,1.96,0.44
			c30.54-13.4,61.4102-26.07,92.0601-39.21c52.74-22.35,105.48-44.6801,158.21-67.04c44.4701-18.84,88.9401-37.6801,133.4-56.5299
			c40.65-17.2101,81.27-34.4801,121.9301-51.6401c-9.8301-28.72-19.76-57.4099-29.5601-86.1299
			c-45.5399,25.8099-90.75,52.25-136.1599,78.3099C1186.73,592.0601,1146.92,615.02,1107.1,637.98z"/>
		<path fill="#FCFCFC" stroke="#FCFCFC" stroke-width="0.3" d="M1111.3101,735.25c-49.9301,16.03-99.78,32.34-149.6801,48.49
			c-27.98,9.04-55.9401,18.16-83.92,27.21c-5.6299,11.08-14.58,20.26-25.09,26.8c40.4701-7.66,80.9701-15.16,121.42-22.9
			c54.73-10.21,109.45-20.52,164.1599-30.88c49.77-9.31,99.54-18.66,149.3-28.08c45.59-8.51,91.15-17.16,136.74-25.6901
			c-5.26-30.4399-10.73-60.85-16.03-91.28c-50.5399,16.27-101,32.75-151.51,49.1001C1208.24,703.77,1159.74,719.39,1111.3101,735.25
			z"/>
		<path fill="#FCFCFC" stroke="#FCFCFC" stroke-width="0.3" d="M948.8101,871.33c8.5599,0.37,17.1199,0.7,25.6899,0.88
			c6.24,0.25,12.49,0.48,18.75,0.58c51.73,2.02,103.49,3.57,155.23,5.42c39.37,1.29,78.73,2.74,118.09,3.99
			c55.3301,1.96,110.66,3.81,165.9901,5.72c-0.6001-31.12-1.42-62.24-1.9801-93.36c-55.98,5.5-111.98,10.78-167.96,16.23
			c-42.41,4.13-84.86,7.98-127.25,12.36c-47.86,4.28-95.67,9.19-143.51,13.67c-18.16,1.85-36.36,3.38-54.51,5.37
			c-52.8099,4.87-105.61,10.04-158.4,15.21c-0.08,2.72-0.03,5.45-0.01,8.19c54.5,1.79,109,3.79,163.51,5.53
			C944.5601,871.19,946.6799,871.3,948.8101,871.33z"/>
		<path fill="#FCFCFC" stroke="#FCFCFC" stroke-width="0.3" d="M1216.41,926.04c-39.3301-4.99-78.6801-9.84-118.02-14.8
			c-37.8-4.71-75.58-9.53-113.39-14.14c-68.6699-8.74-137.37-17.21-206.04-25.85c0.02,2.79,0.0601,5.59,0.0801,8.4
			c62.47,16.33,125.01,32.42,187.52,48.6c42.3199,10.97,84.62,21.98,126.96,32.85c42.33,11.03,84.6899,21.96,127.04,32.9
			c37.36,9.7,74.73,19.37,112.1,29.03c28.12,7.1899,56.1599,14.72,84.33,21.6899c3.74-30.73,8.13-61.39,11.9401-92.11
			c-33.67-4.17-67.3301-8.41-100.9901-12.63C1290.76,935.35,1253.59,930.65,1216.41,926.04z"/>
		<path fill="#FCFCFC" stroke="#FCFCFC" stroke-width="0.3" d="M1154.61,1148.9399c12.1801,13.1001,20.2001,30.25,21.6901,48.1201
			c1.1599,9.75,1.88,19.5599,1.74,29.3799c0.36,0.3301,1.09,1,1.46,1.3301c16.01,12.6,32.01,25.22,48.0601,37.77
			c0.2-1.88,0.37-3.76,0.5699-5.62c-4.22-3.12-7.9-6.9701-10.6801-11.42c-8.5699-13.27-8.2799-31.52,0.6801-44.52
			c5.91-8.9299,15.47-15.14,25.89-17.39c-26.84-16.5299-53.77-32.9299-80.64-49.4099c-41.96-25.7001-83.9301-51.38-125.9-77.0701
			c-38.5701-23.6-77.11-47.24-115.71-70.81c-0.49,0.93-1.5601,1.83-1.16,3.01c0.9601,4.22,2.4301,8.32,3.2101,12.6
			c2.24,8.54,3.73,17.2401,5.2,25.93c29.29,23.01,58.55,46.0601,87.84,69.0701c9.1801,7.1599,18.25,14.46,27.51,21.5299
			c19.23-0.0299,38.46,0.03,57.6901-0.0299c1.6599-0.02,3.36,0.0699,4.98,0.5399C1124.74,1126.89,1141.92,1135.39,1154.61,1148.9399
			z"/>
		<path fill="#FCFCFC" stroke="#FCFCFC" stroke-width="0.3" d="M1208.37,1038.33c-33.96-12.09-67.9301-24.16-101.9-36.22
			c-34.89-12.42-69.7999-24.82-104.7-37.21c-60.95-21.63-121.8601-43.41-182.8601-64.9h-1.0999
			c9.1399,8.09,16.5499,17.97,22.5399,28.58c0.08-1.51,0.0599-3.01,0.01-4.5c16.7101-0.54,34.2301,3.5,47.4401,14.2
			c6.02,3.89,9.9199,10.03,14.58,15.3c1.37,1.98,2.77,3.98,4.49,5.7c29.01,14.47,57.9401,29.12,86.9401,43.61
			c29.84,14.94,59.62,30.03,89.5099,44.87c31.92,16.17,63.9,32.23,95.9301,48.2c37.13,18.78,74.37,37.36,111.55,56.0701
			c29.01,14.49,57.8899,29.23,86.97,43.5699c8.48-29.33,17.1899-58.6,25.8099-87.89c-29.39-10.47-58.7899-20.8999-88.1899-31.35
			C1279.72,1063.67,1244.04,1051,1208.37,1038.33z"/>
		<path fill="#FCFCFC" stroke="#FCFCFC" stroke-width="0.3" d="M933.86,1063.96c-1.37,0.29-2.7001,0.79-4.0299,1.17
			c2.24,17.21,4.5798,34.41,6.8899,51.61c12.74,14.8101,25.67,29.47,38.45,44.25l0.53-0.8199c7.71-12.03,18.8301-21.67,31.4-28.3401
			C982.8,1109.08,958,1086.86,933.86,1063.96z"/>
		<path fill="#FCFCFC" stroke="#FCFCFC" stroke-width="0.3" d="M943.6899,1167.36c4.02,32.25,8.6801,64.4301,12.8701,96.66
			c4.0399,7.0599,8.48,13.89,12.45,20.99c-1.5901-4.76-2.87-9.62-4.0801-14.48c-2.0399-2.1801-1.6399-5.36-2.0999-8.0701
			c-2.6301-22.9299-2.6501-46.1799,0.3999-69.08C956.78,1184.66,950.3201,1175.9399,943.6899,1167.36z"/>
		<path fill="#FCFCFC" stroke="#FCFCFC" stroke-width="0.3" d="M1283.02,1253.55c0.99,17.1499-1.88,34.2999-5.91,50.9199
			c12.98,10.35,26.11,20.52,39.12,30.8401c13.15-26.8301,25.98-53.8401,38.8101-80.8301c-21.3-13.0499-42.7001-25.9399-63.86-39.2
			C1295.3,1228.36,1291.79,1243.14,1283.02,1253.55z"/>
		<path fill="#FCFCFC" stroke="#FCFCFC" stroke-width="0.3" d="M1208.62,1317.61c-12.8-11.73-25.54-23.54-38.3099-35.2999
			c-7.2101,22.3099-22.42,41.8099-42.01,54.62c5.6899,6.4099,11.35,12.84,16.85,19.4099c2.0399,0.8,4.34,1.01,6.4399,0.2001
			C1173.27,1348.4,1194.64,1336.59,1208.62,1317.61z"/>
		<path fill="#FCFCFC" stroke="#FCFCFC" stroke-width="0.3" d="M1085.95,1357.1c-0.9199-1.2-1.83-2.39-2.72-3.5699l0.03,0.21
			c-19.73,2.22-40.12-0.4-58.25-8.66c-13.23-5.87-25.0701-14.61-34.95-25.1599c7.4199,12.3199,14.8199,24.6599,22.21,37
			c4.36,0.1,8.72,0.0499,13.1,0.1599C1045.5601,1357.08,1065.76,1356.98,1085.95,1357.1z"/>
		<path fill="#FCFCFC" stroke="#FCFCFC" stroke-width="0.3" d="M1184.8101,1401.7c16.7,19.1901,33.33,38.4401,50.1499,57.53
			c16.7201-23.6799,33.5801-47.27,50.27-70.98c-11.88-10.78-23.5599-21.79-35.4399-32.5699
			C1232.42,1376.1899,1209.26,1391.01,1184.8101,1401.7z"/>
		<path fill="#FCFCFC" stroke="#FCFCFC" stroke-width="0.3" d="M960.3301,1417.23c-0.9801,6.0701-2.2201,12.8201-7.1201,17.05
			c-2.78,2.49-6.6299,2.76-10.1699,2.9399c-0.03,0.5901-0.0801,1.77-0.1101,2.36c3.3501,8.88,6.8801,17.7001,10.42,26.52
			c3.2401-13.09,6.2201-26.23,9.37-39.34c1.01-5.16,2.8501-10.16,3.27-15.42C964.51,1413.66,962.72,1415.8,960.3301,1417.23z"/>
		<path fill="#FCFCFC" stroke="#FCFCFC" stroke-width="0.3" d="M1162.5601,1537.33c11.2699-10.85,22.37-21.88,33.6899-32.6699
			c-11.08-15.37-22.6801-30.37-33.97-45.5901C1163.8101,1485.13,1164.03,1511.27,1162.5601,1537.33z"/>
		<path fill="#FCFCFC" stroke="#FCFCFC" stroke-width="0.3" d="M1042.33,1569.16c-1.72,21.88-3.46,43.77-5.35,65.64
			c18.03-12.01,36.28-23.7101,54.35-35.66c-5.21-9.97-10.3099-20.01-15.3199-30.09C1064.78,1569.05,1053.55,1568.88,1042.33,1569.16
			z"/>
		<path fill="#FCFCFC" stroke="#FCFCFC" stroke-width="0.3" d="M470.66,1192.63c8.37-11.27,16.75-22.54,25.1801-33.77
			c3.0999-22.54,6.0599-45.1,9.1699-67.64c-18.23,20-36.8201,39.66-55.05,59.65c-0.53-0.5699-1.58-1.71-2.11-2.29
			c0.12,0.51,0.35,1.52,0.47,2.03c4.53,0.67,6.65,4.97,8.7,8.53c0.35,0.51,1.06,1.52,1.41,2.03
			c3.9901,4.96,6.05,11.08,8.4101,16.9099c1.2699,4.1001,3.3899,8.1901,2.83,12.61C469.91,1191.17,470.41,1192.14,470.66,1192.63z"
			/>
		<path fill="#FCFCFC" stroke="#FCFCFC" stroke-width="0.3" d="M563.2,1102.54c-2.33,12.3999-3.3799,24.99-5.3199,37.46
			c-1.99,15.75-4.4701,31.46-6.16,47.25c4.3601-8.2,8.47-16.52,12.64-24.8199v-0.0601c-1.22-15.0599,0.09-30.21-0.25-45.3099
			C563.79,1112.23,565.0901,1107.15,563.2,1102.54z"/>
		<path fill="#FCFCFC" stroke="#FCFCFC" stroke-width="0.3" d="M448.35,1363.49c3.78,1.77,7.79,3,11.62,4.7
			c3.43-6.74,6.9699-13.4199,10.2199-20.24c0.1801-9.74-2.7899-20.34,2.4601-29.2699c2.89-4.3101,2.88-9.6101,3.62-14.55
			c3.04-23.01,6.22-46.01,9.28-69.02c0.6899-4.53,1.3-9.0699,1.55-13.64c-5.26,7.86-10.3201,15.86-15.3301,23.88
			c-0.03,0.38-0.0801,1.16-0.11,1.55c0.62,1.65,0.61,3.46,0,5.16c-0.2201,3.11-0.53,6.21-0.8199,9.34l-0.0701,1.27
			c0.13,3.99-1.4399,7.6499-2.9199,11.2699c-3,11.3201-6.8601,22.7201-13.9101,32.2401c-11.29,17.4199-27.66,31.4099-46.62,39.88
			c-2.55,3.6899-4.91,7.5-7.22,11.35c15.16,1.21,30.43-0.1,45.63,0.6699C446.5,1359.86,446.28,1362.58,448.35,1363.49z"/>
		<path fill="#FCFCFC" stroke="#FCFCFC" stroke-width="0.3" d="M529.21,1352.9301c-0.6699,3.0699,1.3,5.7699,2.4,8.5
			c5.27,11.37,9.7101,23.1499,15.4701,34.2799c5.75-18.14,11.5898-36.25,17.24-54.4299c0.0299-3.1,0.24-6.1901,0.27-9.27
			c-0.6201-9-0.1802-18.03-0.3801-27.03c-0.5599-20.99,0.0801-41.97,0-62.95c0.05-5.7101-0.8899-11.4501,0.24-17.11
			c0.02-1.26-0.1699-2.53-0.4099-3.7301c-8.42,19.3-16.6001,38.7101-24.75,58.14C535.7,1303.8199,532.63,1328.4,529.21,1352.9301z"
			/>
		<path fill="#FCFCFC" stroke="#FCFCFC" stroke-width="0.3" d="M350.05,1354.35c-22.9-2.86-44.85-13.21-61.34-29.39
			c-7.94,8.42-15.76,16.9601-23.62,25.4601c7.43,2.96,14.61,7.95,22.93,7.4399c19.82-0.21,39.64,0.15,59.46-0.1799
			C348.33,1356.55,349.19,1355.4399,350.05,1354.35z"/>
		<path fill="#FCFCFC" stroke="#FCFCFC" stroke-width="0.3" d="M225.12,1390.97c0.5213,0.312,1.0482,0.6135,1.5726,0.9197
			c0.0092-0.0099,0.0182-0.0198,0.0274-0.0297C226.32,1391.64,225.52,1391.1899,225.12,1390.97z"/>
		<path fill="#FCFCFC" stroke="#FCFCFC" stroke-width="0.3" d="M182.31,1439.8101c18.35,21.9299,36.56,43.97,54.78,66.0099
			c11.1-14.85,22.08-29.7899,33.3-44.5499c0.91-16.25,2.85-32.41,4.29-48.6c-16.5256-5.5858-32.8978-11.973-47.9874-20.7804
			C211.8718,1407.8398,197.0809,1423.8199,182.31,1439.8101z"/>
		<path fill="#FCFCFC" stroke="#FCFCFC" stroke-width="0.3" d="M472.22,1438.03l-0.46-0.3401c-3.8,9.6201-8.21,19.01-11.97,28.66
			c2.3199,34.48,2.6399,69.27-2.13,103.5801c-6.58,0.3999-13.17-0.05-19.76,0.1699c-0.18,22.9-0.44,45.8301,0.08,68.73
			c10.03-1.61,20.1-2.96,30.15-4.48c1.59-0.16,3.01-0.91,3.9-2.25c7.3-23.24,14.86-46.4,22.02-69.6799
			c-4.73-10.5-4.9301-22.99-0.21-33.53c2.8199-6.53,7.49-12.17,13.0999-16.5c-2.0399-11.15-2.98-22.62-7.08-33.3
			C494.88,1463.04,484.6899,1449.11,472.22,1438.03z"/>
		<path fill="#FCFCFC" stroke="#FCFCFC" stroke-width="0.3" d="M335,1570.16c-0.99,5.9099-0.93,11.9199-1.65,17.87
			c-0.06,1.62-0.6,3.48,0.34,4.98c2.77,2.46,5.71,4.73,8.51,7.17c5.25-9.9,10.2-19.9601,15.25-29.9501
			C349.97,1569.97,342.48,1570.13,335,1570.16z"/>
		<path fill="#FCFCFC" stroke="#FCFCFC" stroke-width="0.3" d="M394.11,1620.49c-1.61,3.83-3.28,7.64-4.87,11.5
			c2.15,1.12,4.3,2.27,6.45,3.42c-0.1-3.49-0.59-6.9601-0.71-10.4301C394.73,1623.47,395.29,1621.63,394.11,1620.49z"/>
	</g>
	<path fill="#3DA3B9" stroke="#3DA3B9" stroke-width="0.3" d="M940.66,1710.75c18.04-8.3,36.28-16.2,54.48-24.16
		c12.57-0.0699,25.15,0.25,37.73,0.29c-0.77,8-1.17,16.03-2.05,24.03c-29.77,0.01-59.5399-0.2201-89.3099,0.11L940.66,1710.75z"/>
	<path fill="#3DA3B9" stroke="#3DA3B9" stroke-width="0.3" d="M1107.58,1686.9c12.66,0.01,25.3301-0.6,37.9701-0.14
		c18.0199,7.88,36.08,15.7,53.95,23.9299l-0.95,0.3301c-29.74-0.34-59.4801-0.0701-89.2101-0.14
		c-0.46-6.62-1.0299-13.23-1.5699-19.83C1107.6801,1689.65,1107.62,1688.27,1107.58,1686.9z"/>
	<path fill="#3DA3B9" stroke="#3DA3B9" stroke-width="0.3" d="M285.7,1688.64c2.26-1.15,4.84-0.73,7.27-0.75
		c10.72,0.12,21.46,0.28,32.19,0.1799c-0.4,8.04-1.2,16.05-1.87,24.0801c-29.87-0.05-59.75,0.0499-89.62-0.05
		c1.54-1.48,3.65-2.01,5.53-2.88C254.7,1702.36,270.22,1695.53,285.7,1688.64z"/>
	<path fill="#3DA3B9" stroke="#3DA3B9" stroke-width="0.3" d="M400.03,1688.17c11.97-0.1001,23.95-0.17,35.92-0.3
		c2.26-0.17,4.24,1.0601,6.26,1.92c13.16,5.87,26.37,11.6599,39.55,17.5c3.24,1.7799,7.2,2.51,10.01,4.89
		c-29.92-0.0801-59.83-0.02-89.75-0.03C401.31,1704.15,400.72,1696.16,400.03,1688.17z"/>
	<path fill="#FDF0EF" stroke="#FDF0EF" stroke-width="0.3" d="M941.51,1711.02c29.77-0.3301,59.54-0.1,89.3099-0.11l-0.1399,0.8199
		c-27.2101,0.6-54.4601-0.03-81.6901,0.3101C946.45,1712.11,943.86,1712.05,941.51,1711.02z"/>
	<path fill="#FDF0EF" stroke="#FDF0EF" stroke-width="0.3" d="M1109.34,1710.88c29.73,0.0699,59.4701-0.2,89.2101,0.14
		c-2.05,0.95-4.3,1.09-6.5,1.02c-27.54-0.38-55.0901,0.36-82.62-0.3201L1109.34,1710.88z"/>
	<path fill="#3BA990" stroke="#3BA990" stroke-width="0.3" d="M572.8,1715.17c4.05,0.0599,8.09,0.0599,12.14,0.0299
		c17.03,0.1001,34.05,0,51.08,0.03c23.02,0.13,46.06-0.38,69.06,0.53c0.08,13.8099,0.01,27.61,0.04,41.42
		c-13.72-0.03-27.43-0.01-41.15-0.01c-18.79,0-37.5699,0-56.36,0c-11.63,0-23.26-0.01-34.89,0.01
		C572.76,1743.17,572.6,1729.17,572.8,1715.17z"/>
	<path fill="#FFF1F6" stroke="#FFF1F6" stroke-width="0.3" d="M736.28,1715.24l0.96-0.03c-0.01,13.9501,0.04,27.91-0.03,41.87
		l-0.98-0.21C736.1,1743,735.95,1729.11,736.28,1715.24z"/>
	<path fill="#3BA990" stroke="#3BA990" stroke-width="0.3" d="M737.24,1715.21c3.97-0.0399,7.94,0.03,11.93,0
		c36.18,0.0701,72.36,0,108.55,0c4.02,0.01,8.05,0.01,12.09,0c0.02,13.9701-0.04,27.9401,0.03,41.92
		c-11.63,0.09-23.26,0.01-34.89,0.04c-18.77,0-37.55,0-56.32,0c-13.81-0.0701-27.62,0.13-41.42-0.0901
		C737.28,1743.12,737.23,1729.16,737.24,1715.21z"/>
	<path fill="#F8B57E" stroke="#F8B57E" stroke-width="0.3" d="M607.61,1757.17c18.79,0,37.57,0,56.36,0
		c0.05,5.7-0.1299,11.4099,0.2,17.11c-0.61,3.21-3.42,5.1899-5.72,7.22c-4.19,3.49-9.86,5.4399-15.29,4.25
		c-5.83-1.24-10.8199-4.77-15.1-8.76c-6.24-5.47-12.72-10.83-20.23-14.46C607.74,1760.72,607.67,1758.9399,607.61,1757.17z"/>
	<path fill="#F8B57E" stroke="#F8B57E" stroke-width="0.3" d="M778.63,1757.17c18.77,0,37.55,0,56.32,0c-0.01,1.72-0.02,3.45,0,5.22
		c-8.38,4.01-15.48,10.14-22.39,16.24c-3.82,3.36-8.35,6.11-13.38,7.15c-8.01,1.64-16.05-3.37-20.32-9.86
		C778.26,1769.6801,778.58,1763.41,778.63,1757.17z"/>
	<path fill="#555555" stroke="#555555" stroke-width="0.3" d="M599.43,1760c2.89,0.48,5.74,1.27,8.4,2.53
		c7.51,3.63,13.99,8.99,20.23,14.46c4.28,3.99,9.27,7.52,15.1,8.76c5.4301,1.1899,11.1-0.76,15.29-4.25
		c2.3-2.03,5.11-4.01,5.72-7.22c0.92-2,2.29-4.36,4.78-4.4501c2.77-0.36,4.79,2.49,4.9,5.02c0.83,9.5,5.83,18.24,5.59,27.9
		c-0.66,4.04-3.94,6.63-7.49,8.1801c-17.47,9.3199-36.04,16.4399-55.03,22c-8.72,2.2599-16.98,6.0199-25.81,7.9099
		c-23.11,5.65-48.13,3.73-69.79-6.26c-2.79-1.3199-5.22-3.2899-7.13-5.6799c-3.07-6.3301,0.68-13.2001,4.53-18.24
		c7.07-8.48,17.26-13.5,27.17-17.89c6.44-2.59,12.86-5.42,19.65-6.96c4.07,0.71,8.18,1.2599,12.29,1.7799
		c0.03,4.15,0.01,8.3101,0.01,12.48c2.02-0.0599,4.04-0.09,6.0699-0.11c-0.0099-4.02-0.02-8.0299-0.02-12.0299
		c3.27,0.86,6.55,1.7,9.84,2.5299c0.04-3.49,0.11-6.95,0.2-10.4099c4.67-0.7101,9.36-1.3501,14.02-2.1801
		c-5.21-3.25-10.6-6.1801-15.97-9.14C594.61,1765.95,597.15,1763.0699,599.43,1760z"/>
	<path fill="#555555" stroke="#555555" stroke-width="0.3" d="M834.95,1762.39c2.56-1.14,5.26-1.87,7.99-2.49
		c2.35,3.0599,4.87,6,7.59,8.77c-5.35,3.0299-10.77,5.95-15.9901,9.2c4.71,0.85,9.47,1.4301,14.19,2.27
		c0.03,3.42,0.08,6.86,0.12,10.3099c3.25-0.84,6.51-1.6899,9.79-2.48c-0.04,4.01-0.05,8.03-0.03,12.0601
		c2.02-0.01,4.04-0.01,6.07,0.03c0.07-4.15,0.07-8.29,0.01-12.42c3.95-0.58,7.91-1.0601,11.83-1.83
		c4.16,0.5299,7.99,2.3199,11.91,3.6899c10,3.8,19.97,8.11,28.54,14.62c5.84,4.48,10.9301,10.61,12.36,18
		c0.55,2.42-0.27,4.86-1.23,7.09c-4.7599,5.6801-12.23,7.66-18.96,9.9701c-23.07,7.4299-48.39,5.86-71.06-2.2401
		c-6.91-2.7-14.15-4.3099-21.16-6.6699c-17.02-5.47-33.65-12.26-49.27-20.97c-3.6-1.7301-4.66-5.9-4.72-9.5601
		c1.26-8.59,4.87-16.65,5.79-25.3c0.19-2.5699,2.5-5.1899,5.26-4.5499c2.94,0.46,3.88,3.65,4.88,6.03
		c4.27,6.49,12.31,11.5,20.32,9.86c5.03-1.04,9.56-3.79,13.38-7.15C819.47,1772.53,826.57,1766.4,834.95,1762.39z"/>
	<path fill="#FEFEFE" stroke="#FEFEFE" stroke-width="0.3" d="M591.98,1768.73c5.37,2.96,10.76,5.89,15.97,9.14
		c-4.66,0.83-9.35,1.47-14.02,2.1801c-0.09,3.46-0.16,6.9199-0.2,10.4099c-3.29-0.83-6.57-1.6699-9.84-2.5299
		c0,4,0.01,8.0099,0.02,12.0299c-2.03,0.02-4.05,0.05-6.0699,0.11c0-4.1699,0.02-8.33-0.01-12.48
		c-4.11-0.52-8.22-1.0699-12.29-1.7799c2.44-0.89,4.8-1.9701,7.18-2.9801c5.58,0.1801,11.13,0.8401,16.71,1.0701
		c0.2-1.37,0.4-2.73,0.62-4.0601c-2.96-0.84-5.91-1.6699-8.88-2.4299c1.93-1.27,3.94-2.4401,5.68-3.9601
		c3.8,0.75,7.51,1.8601,11.2401,2.91c-2.82-1.9-5.8701-3.39-8.79-5.08C590.2,1770.4301,591.1,1769.58,591.98,1768.73z"/>
	<path fill="#FDFDFD" stroke="#FDFDFD" stroke-width="0.3" d="M834.54,1777.87c5.22-3.25,10.64-6.17,15.9901-9.2
		c0.86,0.86,1.75,1.72,2.68,2.59c-3,1.72-6.08,3.28-9,5.13c3.83-1.04,7.62-2.25,11.55-2.88c1.83,1.54,3.85,2.83,5.88,4.13
		c-3.1,0.33-6.07,1.3099-9.06,2.09c0.19,1.4,0.36,2.79,0.58,4.24c5.5-0.4099,11-0.89,16.51-1.1699c2.34,0.84,4.6,1.9199,6.85,3.01
		c-3.92,0.7699-7.88,1.25-11.83,1.83c0.06,4.13,0.06,8.27-0.01,12.42c-2.03-0.04-4.05-0.04-6.07-0.03
		c-0.02-4.03-0.01-8.05,0.03-12.0601c-3.28,0.79-6.54,1.64-9.79,2.48c-0.04-3.45-0.09-6.8899-0.12-10.3099
		C844.01,1779.3,839.25,1778.72,834.54,1777.87z"/>
	<path fill="#3C2515" stroke="#3C2515" stroke-width="0.3" d="M586.85,1773.45c0.82-0.73,1.63-1.47,2.45-2.1699
		c2.92,1.6899,5.97,3.1799,8.79,5.08C594.36,1775.3101,590.65,1774.2,586.85,1773.45z"/>
	<path fill="#3C2515" stroke="#3C2515" stroke-width="0.3" d="M844.21,1776.39c2.92-1.85,6-3.41,9-5.13
		c0.83,0.74,1.67,1.5,2.55,2.25C851.83,1774.14,848.04,1775.35,844.21,1776.39z"/>
	<path fill="#565656" stroke="#565656" stroke-width="0.3" d="M581.17,1777.41c2.97,0.76,5.92,1.59,8.88,2.4299
		c-0.22,1.3301-0.42,2.6901-0.62,4.0601c-5.58-0.23-11.13-0.89-16.71-1.0701C575.69,1781.26,578.43,1779.33,581.17,1777.41z"/>
	<path fill="#555555" stroke="#555555" stroke-width="0.3" d="M852.58,1779.73c2.99-0.78,5.96-1.76,9.06-2.09
		c2.64,1.76,5.21,3.66,8.03,5.16c-5.51,0.2799-11.01,0.76-16.51,1.1699C852.94,1782.52,852.77,1781.13,852.58,1779.73z"/>
	<path fill="#E0D4C8" stroke="#E0D4C8" stroke-width="0.3" d="M758.39,1824.72c-2.56-8.4199-0.38-17.83,4.54-24.98
		c0.06,3.66,1.12,7.83,4.72,9.5601c15.62,8.71,32.25,15.5,49.27,20.97c7.01,2.36,14.25,3.97,21.16,6.6699
		c22.67,8.1001,47.99,9.67,71.06,2.2401c6.73-2.3101,14.2-4.29,18.96-9.9701c4.71,3.64,8.52,10.61,5.4301,16.4
		c-3.46,5.33-9.89,7.51-15.76,9.02c-19.87,4.46-40.49,7.6-60.81,4.49c-12.43-1.65-24.32-5.77-35.9901-10.17
		c-17.99-7.1699-36.03-14.5699-55.02-18.6599C762.75,1829.6801,759.37,1828.08,758.39,1824.72z"/>
	<path fill="#E0D4C8" stroke="#E0D4C8" stroke-width="0.3" d="M679.44,1802.75c0.38-0.14,1.16-0.4301,1.54-0.5699
		c3.78,6.4099,5.19,14.25,3.55,21.5499c-0.9901,4.04-5.13,6.01-8.86,6.8101c-13.58,2.86-26.63,7.6499-39.54,12.62
		c-15.38,6.11-30.79,12.5499-47.16,15.46c-16.41,2.91-33.27,1.91-49.6-1.05c-8.48-1.6899-17.38-2.63-25.05-6.9299
		c-3.29-1.73-5.87-4.91-6.4-8.63c-0.18-5.12,2.83-9.6,6.27-13.11c1.91,2.39,4.34,4.36,7.13,5.6799
		c21.66,9.99,46.68,11.91,69.79,6.26c8.83-1.89,17.09-5.65,25.81-7.9099c18.99-5.5601,37.56-12.6801,55.03-22
		C675.5,1809.38,678.78,1806.79,679.44,1802.75z"/>
	<path opacity="0.13" fill="#1C1C1C" stroke="#1C1C1C" stroke-width="0.3" enable-background="new    " d="M652.86,1918.78
		c21.82,0.47,43.65,0.99,65.48,1.1899L717.6,1920h-57.1C658,1919.3199,655.45,1918.83,652.86,1918.78z"/>
</g>
</svg>
