<?xml version="1.0" encoding="utf-8"?>
<!-- Generator: Adobe Illustrator 25.0.0, SVG Export Plug-In . SVG Version: 6.00 Build 0)  -->
<svg version="1.1" id="_x2018_лой_x5F_1" xmlns="http://www.w3.org/2000/svg" xmlns:xlink="http://www.w3.org/1999/xlink"
	 x="0px" y="0px" viewBox="0 0 3000 2000" style="enable-background:new 0 0 3000 2000;" xml:space="preserve">
<style type="text/css">
	.st0{fill:#EBF3FA;}
	.st1{fill:#F5F9FD;}
	.st2{fill:#DFEBFA;}
	.st3{fill:#EEF6FF;}
	.st4{fill:#CBDCF7;}
	.st5{fill:#2E3552;}
	.st6{fill:#8FADEF;}
	.st7{fill:#BBD0FF;}
	.st8{fill:#AEC3FF;}
	.st9{fill:#D2E0FF;}
	.st10{fill:#C0D8FB;}
	.st11{fill:#DFEBFD;}
	.st12{fill:#B7D3F3;}
	.st13{fill:#2B478B;}
	.st14{fill:#FFB27D;}
	.st15{fill:#F99746;}
	.st16{fill:#E8945B;}
	.st17{fill:#2C3A64;}
	.st18{fill:#94B0ED;}
	.st19{fill:#C8DBF4;}
	.st20{fill:#FFFFFF;}
	.st21{fill:#D4E4F8;}
	.st22{fill:#ABDDDA;}
	.st23{fill:#233862;}
	.st24{fill:#93312C;}
	.st25{fill:#B5453C;}
	.st26{fill:#E2915A;}
	.st27{fill:#91CECF;}
	.st28{fill:#C65447;}
	.st29{fill:#ED985F;}
	.st30{fill:#6BB7BF;}
</style>
<g>
	<path class="st0" d="M2705.4,1588.3l-2403.82-3.37c-7.45-19.05-257.66-840.74,126.7-1104.02c0.74-0.51,1.48-1.01,2.23-1.52
		c5.05-3.41,10.08-6.77,15.11-10.05c247.95-162.63,460.81-184.73,637.65-148.98h0.01c5.81,1.17,11.59,2.41,17.32,3.71
		c260.6,58.95,440.72,240.96,537.19,270.61c413.78,127.17,572.2-167.05,895.28-69.81C2897.89,634.67,2872.99,1313.17,2705.4,1588.3z
		"/>
	<g>
		<path class="st1" d="M1083.26,320.35c-176.83-35.75-389.7-13.64-637.65,148.98c-5.02,3.28-10.06,6.64-15.11,10.05
			c-0.74,0.51-1.48,1.01-2.23,1.52v354.23v4.93h654.99v-4.93V320.35H1083.26z"/>
		<g>
			<path class="st2" d="M1023.29,513.6V410.32c-0.77-0.41-1.54-0.82-2.32-1.24h-14.92v-0.05h-86.79v0.05h-0.07v15.49h0.07v10.64
				h-0.07v15.48h0.07v10.69h-0.07v15.48h0.07v0.05l-9.19-0.05v-80.99h-97.39v10.26h-0.05v15.48h0.05v13.6h-0.05v15.48h0.05v10.69
				h-0.05v15.48h0.05v9.89h-0.05v15.48h0.05v9.88h-0.05v15.49h0.05v9.31h-0.05v9.83h0.05v1.07H702.89v88.6h-41.01v22.32h-44.22
				v-38.44h-79.55V515.87h-12.44v-10.41h-1.77v10.41h-10.32v-0.02h-51.6v-10.39h-1.77v10.39h-13.44v52.51h-1.03l-17.38-0.08v266.84
				h-26.41v23.74h681.32V513.6H1023.29z"/>
			<g>
				<rect x="812.69" y="395.87" class="st3" width="62.33" height="20.63"/>
				<rect x="812.69" y="427.62" class="st3" width="62.33" height="20.63"/>
				<rect x="812.69" y="460.03" class="st3" width="62.33" height="20.63"/>
				<rect x="812.69" y="492.96" class="st3" width="62.33" height="20.63"/>
				<rect x="812.69" y="524.73" class="st3" width="62.33" height="20.63"/>
			</g>
			<g>
				<rect x="812.69" y="559.69" class="st3" width="62.33" height="20.63"/>
				<rect x="812.69" y="591.44" class="st3" width="62.33" height="20.63"/>
				<rect x="812.69" y="623.85" class="st3" width="62.33" height="20.63"/>
				<rect x="812.69" y="656.77" class="st3" width="62.33" height="20.63"/>
				<rect x="812.69" y="688.54" class="st3" width="62.33" height="20.63"/>
			</g>
			<g>
				<rect x="919.38" y="409.4" class="st3" width="62.33" height="20.63"/>
				<rect x="919.38" y="441.15" class="st3" width="62.33" height="20.63"/>
				<rect x="919.38" y="473.56" class="st3" width="62.33" height="20.63"/>
				<rect x="919.38" y="506.48" class="st3" width="62.33" height="20.63"/>
				<rect x="919.38" y="538.25" class="st3" width="62.33" height="20.63"/>
			</g>
			<g>
				<rect x="919.38" y="571.37" class="st3" width="62.33" height="20.63"/>
				<rect x="919.38" y="603.12" class="st3" width="62.33" height="20.63"/>
				<rect x="919.38" y="635.53" class="st3" width="62.33" height="20.63"/>
				<rect x="919.38" y="668.46" class="st3" width="62.33" height="20.63"/>
				<rect x="919.38" y="700.23" class="st3" width="62.33" height="20.63"/>
			</g>
			<g>
				<rect x="919.38" y="736.66" class="st3" width="62.33" height="20.63"/>
				<rect x="919.38" y="768.41" class="st3" width="62.33" height="20.63"/>
				<rect x="919.38" y="800.82" class="st3" width="62.33" height="20.63"/>
				<rect x="919.38" y="833.74" class="st3" width="62.33" height="20.63"/>
			</g>
			<rect x="723.33" y="506.48" class="st2" width="3.09" height="42.08"/>
			<rect x="775.44" y="470.34" class="st2" width="4.81" height="81.5"/>
			<rect x="822.34" y="384.29" class="st2" width="1.55" height="11.58"/>
			<rect x="895.46" y="384.29" class="st2" width="1.55" height="11.58"/>
		</g>
		<rect x="401.94" y="835.12" class="st4" width="705.22" height="23.74"/>
		<path class="st4" d="M445.61,469.33v365.8h-17.33V480.9c0.74-0.51,1.49-1.01,2.23-1.52C435.55,475.98,440.59,472.62,445.61,469.33
			z"/>
		<path class="st4" d="M1083.27,320.35c5.81,1.17,11.59,2.41,17.32,3.71v511.07h-17.32h-0.01V320.35H1083.27z"/>
	</g>
	<path class="st5" d="M2794.97,1591.68H225.72c-1.6,0-2.9-1.3-2.9-2.9v-0.95c0-1.59,1.31-2.9,2.9-2.9h2569.25
		c1.59,0,2.9,1.31,2.9,2.9v0.95C2797.87,1590.37,2796.56,1591.68,2794.97,1591.68z"/>
	<g>
		<path class="st6" d="M2407.12,1284.67v7.62c0,2.67,0.86,4.84,1.92,4.84h277.91c1.05,0,1.92-2.18,1.92-4.84v-7.62
			c0-2.66-0.86-4.84-1.92-4.84h-277.91C2407.98,1279.83,2407.12,1282.01,2407.12,1284.67z"/>
		<path class="st7" d="M2407.12,1284.67v7.62c0,2.67,0.79,4.84,1.76,4.84h220.63c0.97,0,1.76-2.18,1.76-4.84v-7.62
			c0-2.66-0.79-4.84-1.76-4.84h-220.63C2407.91,1279.83,2407.12,1282.01,2407.12,1284.67z"/>
		
			<rect x="2477.46" y="1297.13" transform="matrix(-1 -1.224647e-16 1.224647e-16 -1 5152.2139 2881.8369)" class="st8" width="197.3" height="287.58"/>
		
			<rect x="2422.16" y="1297.13" transform="matrix(-1 -1.224647e-16 1.224647e-16 -1 5041.6309 2881.8369)" class="st9" width="197.3" height="287.58"/>
		<g>
			<g>
				<path class="st8" d="M2432.76,1305.25h176.1v263.58h-176.1V1305.25z M2606.96,1307.16h-172.29v259.77h172.29V1307.16z"/>
			</g>
			<g>
				<rect x="2433.71" y="1392.45" class="st8" width="174.2" height="1.9"/>
			</g>
			<g>
				<rect x="2433.71" y="1481.34" class="st8" width="174.2" height="1.9"/>
			</g>
			<path class="st8" d="M2502.96,1322.25h32.32c1.57,0,2.85-1.28,2.85-2.85l0,0c0-1.57-1.28-2.85-2.85-2.85h-32.32
				c-1.57,0-2.85,1.28-2.85,2.85l0,0C2500.11,1320.97,2501.39,1322.25,2502.96,1322.25z"/>
			<path class="st8" d="M2502.96,1409.18h32.32c1.57,0,2.85-1.28,2.85-2.85l0,0c0-1.57-1.28-2.85-2.85-2.85h-32.32
				c-1.57,0-2.85,1.28-2.85,2.85l0,0C2500.11,1407.9,2501.39,1409.18,2502.96,1409.18z"/>
			<path class="st8" d="M2502.96,1499.79h32.32c1.57,0,2.85-1.28,2.85-2.85l0,0c0-1.57-1.28-2.85-2.85-2.85h-32.32
				c-1.57,0-2.85,1.28-2.85,2.85l0,0C2500.11,1498.51,2501.39,1499.79,2502.96,1499.79z"/>
		</g>
	</g>
	<g>
		<path class="st10" d="M2546.48,734.1h-104.25c-4.79,0-8.7-3.92-8.7-8.7V624.78c0-4.79,3.92-8.7,8.7-8.7h104.25
			c4.79,0,8.7,3.92,8.7,8.7V725.4C2555.18,730.18,2551.27,734.1,2546.48,734.1z"/>
		<path class="st11" d="M2541.96,728.98h-95.22c-4.37,0-7.95-3.58-7.95-7.95v-91.9c0-4.37,3.58-7.95,7.95-7.95h95.22
			c4.37,0,7.95,3.58,7.95,7.95v91.9C2549.91,725.41,2546.33,728.98,2541.96,728.98z"/>
		<g>
			<g>
				<path class="st12" d="M2491.83,631.96c0-1.39,1.13-2.52,2.52-2.52s2.52,1.13,2.52,2.52s-1.13,2.52-2.52,2.52
					S2491.83,633.35,2491.83,631.96z"/>
				<path class="st12" d="M2512.17,635.52c0.68-1.22,2.21-1.65,3.43-0.98c1.22,0.68,1.65,2.21,0.98,3.43
					c-0.68,1.22-2.21,1.65-3.43,0.98C2511.93,638.27,2511.49,636.74,2512.17,635.52z"/>
				<path class="st12" d="M2529.59,649.36c1.17-0.75,2.73-0.42,3.48,0.75c0.75,1.17,0.42,2.73-0.75,3.48
					c-1.17,0.75-2.73,0.42-3.48-0.75C2528.08,651.68,2528.42,650.12,2529.59,649.36z"/>
				<path class="st12" d="M2538.22,670.78c1.39,0,2.52,1.13,2.52,2.52c0,1.39-1.13,2.52-2.52,2.52c-1.39,0-2.52-1.13-2.52-2.52
					C2535.7,671.91,2536.83,670.78,2538.22,670.78z"/>
				<path class="st12" d="M2533.81,695.64c0.98,0.98,0.98,2.58,0,3.56c-0.98,0.98-2.58,0.98-3.56,0c-0.98-0.98-0.98-2.58,0-3.56
					C2531.23,694.66,2532.83,694.66,2533.81,695.64z"/>
				<path class="st12" d="M2517.99,711.51c0.98,0.98,0.98,2.58,0,3.56c-0.98,0.98-2.58,0.98-3.56,0c-0.98-0.98-0.98-2.58,0-3.56
					C2515.41,710.52,2517,710.52,2517.99,711.51z"/>
				<path class="st12" d="M2491.83,719.69c0-1.39,1.13-2.52,2.52-2.52s2.52,1.13,2.52,2.52c0,1.39-1.13,2.52-2.52,2.52
					S2491.83,721.08,2491.83,719.69z"/>
			</g>
			<g>
				<path class="st12" d="M2476.46,635.52c-0.68-1.22-2.21-1.65-3.43-0.98c-1.22,0.68-1.65,2.21-0.98,3.43
					c0.68,1.22,2.21,1.65,3.43,0.98C2476.7,638.27,2477.14,636.74,2476.46,635.52z"/>
				<path class="st12" d="M2459.04,649.36c-1.17-0.75-2.73-0.42-3.48,0.75c-0.75,1.17-0.42,2.73,0.75,3.48
					c1.17,0.75,2.73,0.42,3.48-0.75C2460.54,651.68,2460.21,650.12,2459.04,649.36z"/>
				<path class="st12" d="M2450.41,670.78c-1.39,0-2.52,1.13-2.52,2.52c0,1.39,1.13,2.52,2.52,2.52s2.52-1.13,2.52-2.52
					C2452.93,671.91,2451.8,670.78,2450.41,670.78z"/>
				<path class="st12" d="M2454.82,695.64c-0.98,0.98-0.98,2.58,0,3.56c0.98,0.98,2.58,0.98,3.56,0c0.98-0.98,0.98-2.58,0-3.56
					C2457.4,694.66,2455.8,694.66,2454.82,695.64z"/>
				<path class="st12" d="M2470.64,711.51c-0.98,0.98-0.98,2.58,0,3.56c0.98,0.98,2.58,0.98,3.56,0c0.98-0.98,0.98-2.58,0-3.56
					C2473.22,710.52,2471.62,710.52,2470.64,711.51z"/>
			</g>
		</g>
		<g>
			<path class="st12" d="M2493.67,673.3c0-1.39,1.13-2.52,2.52-2.52c1.39,0,2.52,1.13,2.52,2.52c0,1.39-1.13,2.52-2.52,2.52
				C2494.8,675.82,2493.67,674.69,2493.67,673.3z"/>
			<g>
				<rect x="2495.85" y="641.82" class="st12" width="0.69" height="31.48"/>
			</g>
			<g>
				
					<rect x="2493.61" y="665.68" transform="matrix(0.7867 -0.6173 0.6173 0.7867 122.5771 1688.1744)" class="st12" width="21.22" height="2.06"/>
			</g>
		</g>
	</g>
	<g>
		<path class="st9" d="M1471.25,1264.07H949.67l-228.47-226.13c-14.67-14.52-12.97-38.7,3.6-51.02l11.6-8.63l462.24,6.86
			L1471.25,1264.07z"/>
		<path class="st8" d="M953.29,1269.98l-43.09,32.04L713.05,1036.9c-10.91-14.67-7.86-35.4,6.81-46.31l16.53-12.29L953.29,1269.98z"
			/>
		<path class="st8" d="M721.78,1302.02h1282.04c15.73,0,28.47-12.75,28.47-28.47l0,0c0-15.73-12.75-28.47-28.47-28.47H721.78
			c-15.73,0-28.47,12.75-28.47,28.47l0,0C693.3,1289.27,706.05,1302.02,721.78,1302.02z"/>
		<rect x="910.2" y="1302.02" class="st8" width="20.49" height="259.45"/>
		<rect x="2271.05" y="1302.02" class="st8" width="20.49" height="259.45"/>
		<rect x="1960.19" y="1302.02" class="st8" width="20.49" height="259.45"/>
		<rect x="1271.46" y="1302.02" class="st8" width="20.49" height="259.45"/>
		<rect x="910.2" y="1467.58" class="st8" width="947.63" height="21.68"/>
		<rect x="1837.34" y="1467.58" class="st8" width="454.19" height="21.68"/>
		<g>
			
				<ellipse transform="matrix(0.9216 -0.3882 0.3882 0.9216 -533.9348 479.7173)" class="st13" cx="920.45" cy="1561.47" rx="23.23" ry="23.23"/>
			
				<ellipse transform="matrix(0.0263 -0.9997 0.9997 0.0263 -664.6681 2440.5811)" class="st8" cx="920.45" cy="1561.47" rx="12.96" ry="12.95"/>
		</g>
		<g>
			<path class="st13" d="M1258.47,1561.47c0-12.83,10.4-23.23,23.23-23.23s23.23,10.4,23.23,23.23s-10.4,23.23-23.23,23.23
				S1258.47,1574.3,1258.47,1561.47z"/>
			
				<ellipse transform="matrix(0.0263 -0.9997 0.9997 0.0263 -312.9234 2801.6848)" class="st8" cx="1281.7" cy="1561.47" rx="12.96" ry="12.95"/>
		</g>
		<g>
			
				<ellipse transform="matrix(0.9239 -0.3827 0.3827 0.9239 -447.5589 872.9131)" class="st13" cx="1970.44" cy="1561.47" rx="23.23" ry="23.23"/>
			<path class="st8" d="M1957.48,1561.47c0-7.16,5.8-12.96,12.96-12.96s12.95,5.8,12.95,12.96c0,7.15-5.8,12.96-12.95,12.96
				S1957.48,1568.63,1957.48,1561.47z"/>
		</g>
		<polygon class="st8" points="740.17,1022.79 740.17,1257.53 768.94,1257.53 768.94,1054.93 		"/>
		<polygon class="st14" points="1172.27,1036.37 1281.48,1077.68 1222.75,1087.06 1182.3,1059.8 		"/>
		<path class="st15" d="M1367.86,1248.41c4.24,1.62,68.85-91.53,60.82-117.54c-0.39-1.27-139.21-28.12-162.24-34.63
			c-50.82-14.4-108.21-65.77-136.91-70.6c-59.47-10.02-158.02,49.26-142.34,100.4c23.64,77.08,68.37,122.39,143.39,121.69
			C1133.26,1247.71,1363.18,1246.72,1367.86,1248.41z"/>
		<g>
			<path class="st14" d="M1076.83,1070.97c8.41-4.08,16.88-10.36,20.42-19.11c3.35-8.28-1.74-16.58-10-18.16
				c-3.56-0.68-10.95-8.35-14.45-11.81c-12.66-12.51-20.6-18.66-20.6-18.66l-56.06,1.17c6.9,1.74,22.92,36.89,26.16,56.83
				C1025.13,1078.65,1060.77,1078.77,1076.83,1070.97z"/>
			<path class="st16" d="M1072.8,1021.89c-8.43-13.98-13.84-22.21-13.84-22.21l-51.09,16.63
				C1021.97,1026.53,1040.9,1033.29,1072.8,1021.89z"/>
			<g>
				<path class="st14" d="M1075.64,1009.53c0,0-61.37,31.39-80.33-7.12c-18.96-38.52-39.65-60.41-1.27-82.08
					c38.38-21.67,53.29-10.75,62.74,0.57C1066.24,932.21,1091.12,1000.37,1075.64,1009.53z"/>
				<path class="st17" d="M1003.86,988.2c0,0-11.37-5.95-8.16-13.01c3.21-7.05,8.73,0.38,12.56-1.13
					c3.83-1.51,7.21-15.22,4.42-25.81c-2.8-10.59,39.9-6.66,53.44-16.43c13.54-9.77,20.36-34.2-6.74-37.57
					c-15.93-1.98-95.87-12.85-111.58,29c-20.02,53.35,39.08,83.75,47.23,88.62c8.15,4.87,10.95,1.78,10.95,1.78
					S1011.99,995.96,1003.86,988.2z"/>
			</g>
		</g>
		<path class="st15" d="M1114.59,1024.53c0,0,30.19-4.83,82.47,14.55c0,0-3.6,15.08-19.83,23.99
			C1161.01,1071.98,1114.59,1024.53,1114.59,1024.53z"/>
		<path class="st13" d="M1836.84,1144.43c0,0-268.51,3.18-393.08-34.64s-225.83-35.35-225.83-35.35s-81.62,84.74-101.45,162.33
			c-1.26,4.92-1.88,9.97-1.88,15.04v90.55c0,0,151.06-37.08,331.84,0c139,28.51,380.43,0,380.43,0L1836.84,1144.43z"/>
		<path class="st14" d="M1016.77,1175.68c0,0,155.1,56.15,186.6,50.42s114.51-95.02,114.51-95.02l-15.82-11.34l-107.26,58.59
			c0,0-98.42-52.2-140.68-78.81C1031.37,1085.19,1004.27,1170.51,1016.77,1175.68z"/>
		<path class="st15" d="M1121.73,1138.18c-8.11,28.83-23.05,54.24-58.78,74.67c-5.84,3.34-10.52,8.34-15.24,3.82
			c-16.91-16.15-51.82-51.42-60.5-90.64c-0.82-3.68,3.36-10.98,6.07-13.63c10.25-10.04,37.34-29.98,59.68-24.38
			c19.86,4.98,51.12,23.3,67.78,33.64C1126.25,1125.1,1123.63,1131.41,1121.73,1138.18z"/>
		<path class="st14" d="M1302.06,1119.75c0,0,6.48-16.5,8.17-20.73c1.69-4.23,14.53-14.96,15.04-11.96c0.51,3-4.39,9.64-2.53,9.87
			c1.86,0.23,9.63-13.97,14.87-13.8c5.24,0.17,2.37,18.38,0.51,26.67s-20.23,21.29-20.23,21.29L1302.06,1119.75z"/>
		<path class="st8" d="M2293.23,1302.02h-488.39c-5.98,0-10.86-4.89-10.86-10.86v-205.88c0-5.98,4.89-10.86,10.86-10.86h488.39
			c5.98,0,10.86,4.89,10.86,10.86v205.88C2304.09,1297.13,2299.2,1302.02,2293.23,1302.02z"/>
	</g>
	<g>
		<g>
			<rect x="362.2" y="1356.28" class="st8" width="12.18" height="195.82"/>
			
				<rect x="491.14" y="1366.64" transform="matrix(-1.836970e-16 1 -1 -1.836970e-16 1998.9092 1004.4434)" class="st8" width="12.18" height="270.06"/>
			<rect x="620.09" y="1356.28" class="st8" width="12.18" height="195.82"/>
			<rect x="529.98" y="1356.28" class="st8" width="12.18" height="195.82"/>
			<g>
				<path class="st13" d="M347.36,1564c0-11.56,9.37-20.93,20.93-20.93c11.56,0,20.93,9.37,20.93,20.93s-9.37,20.93-20.93,20.93
					C356.73,1584.92,347.36,1575.56,347.36,1564z"/>
				<path class="st8" d="M356.62,1564c0-6.44,5.22-11.67,11.67-11.67c6.44,0,11.67,5.22,11.67,11.67c0,6.44-5.22,11.67-11.67,11.67
					C361.85,1575.67,356.62,1570.44,356.62,1564z"/>
			</g>
			<g>
				<path class="st13" d="M515.14,1564c0-11.56,9.37-20.93,20.93-20.93c11.56,0,20.93,9.37,20.93,20.93s-9.37,20.93-20.93,20.93
					C524.51,1584.92,515.14,1575.56,515.14,1564z"/>
				<path class="st8" d="M524.4,1564c0-6.44,5.22-11.67,11.67-11.67c6.44,0,11.67,5.22,11.67,11.67c0,6.44-5.22,11.67-11.67,11.67
					C529.62,1575.67,524.4,1570.44,524.4,1564z"/>
			</g>
			<g>
				<path class="st13" d="M605.25,1564c0-11.56,9.37-20.93,20.93-20.93c11.56,0,20.93,9.37,20.93,20.93s-9.37,20.93-20.93,20.93
					C614.62,1584.92,605.25,1575.56,605.25,1564z"/>
				<path class="st8" d="M614.51,1564c0-6.44,5.22-11.67,11.67-11.67c6.44,0,11.67,5.22,11.67,11.67c0,6.44-5.22,11.67-11.67,11.67
					C619.73,1575.67,614.51,1570.44,614.51,1564z"/>
			</g>
			<rect x="452.18" y="1252.07" class="st18" width="179.96" height="132.7"/>
			<rect x="362.2" y="1252.07" class="st8" width="179.96" height="132.7"/>
		</g>
		<g>
			<path class="st19" d="M443.55,1201.64v50.43H392.7v-50.59c0-0.49,0.02-0.97,0.07-1.45c0.53-5.79,4.26-10.66,9.39-12.83
				c3.66-1.55,6.23-4.9,6.43-8.87l0.37-7.29h18.67l0.12,7.26c0.07,3.96,2.58,7.36,6.23,8.9c5.15,2.18,8.9,7.04,9.48,12.82
				C443.52,1200.56,443.55,1201.09,443.55,1201.64z"/>
			<polygon class="st12" points="428.97,1174.25 407.19,1174.25 407.77,1168.56 428.39,1168.56 			"/>
			<path class="st20" d="M443.55,1201.64v32.52H392.7v-32.68c0-0.49,0.02-0.97,0.07-1.45h50.69
				C443.52,1200.56,443.55,1201.09,443.55,1201.64z"/>
		</g>
		<g>
			<path class="st19" d="M485.32,1223.86v28.21h-28.44v-28.3c0-0.27,0.01-0.54,0.04-0.81c0.3-3.24,2.38-5.96,5.25-7.18
				c2.05-0.87,3.48-2.74,3.6-4.96l0.21-4.08h10.44l0.07,4.06c0.04,2.21,1.44,4.12,3.48,4.98c2.88,1.22,4.98,3.94,5.3,7.17
				C485.31,1223.26,485.32,1223.56,485.32,1223.86z"/>
			<polygon class="st12" points="477.17,1208.54 464.99,1208.54 465.31,1205.36 476.84,1205.36 			"/>
			<path class="st20" d="M485.32,1223.86v18.19h-28.44v-18.28c0-0.27,0.01-0.54,0.04-0.81h28.35
				C485.31,1223.26,485.32,1223.56,485.32,1223.86z"/>
		</g>
	</g>
	<g>
		<g>
			<path class="st8" d="M2564.1,1164.3c0,0-18.48-21.56-1.14-35.26c0,0,12.67-7.67,23-7.05c0,0-14.64,24.54-9.9,26.98
				c4.73,2.44,14.34-28.52,14.34-28.52s28.83-2.8,38.1,1.66c0,0-24.64,20.17-19.45,21.37c5.19,1.2,31.81-18.59,31.81-18.59
				s26.83,4.57,25.4,20.93s-10.67,21.42-14.74,20.99s-27.83-9.51-28.35-6.18c-0.52,3.33,13.79,14.21,23.81,14.72
				c0,0-18.92,20.86-31.49,14.84c-12.57-6.02-13.64-15.56-21.48-19.14s-14.53-3.57-11.29,0.08s17.42,7.2,21.9,15.13
				c4.48,7.93,8.5,13.27-4.5,11.32s-34.15-11.47-35.08-22.37C2564.1,1164.3,2564.1,1164.3,2564.1,1164.3z"/>
			<g>
				<path class="st8" d="M2653.06,1146.27c0,0-72.87-2.81-88.97,18.03c0,0-3.56,10.66-14.51,20.37l-1.71,4.65
					c0,0,12.63-13.31,17.15-14.12C2565.03,1175.2,2557.96,1149.38,2653.06,1146.27z"/>
				<path class="st8" d="M2549.59,1184.67c0,0-15.64,11.57-16.73,32.24l2.84,0.25c0,0,5-21.37,14.02-29.73
					S2549.59,1184.67,2549.59,1184.67z"/>
			</g>
		</g>
		<g>
			<path class="st21" d="M2499.48,1137.19c0,0,29.4-16.46,15.68-38.81c0,0-10.98-13.72-22.74-17.25c0,0,6.27,33.32,0,34.1
				c-6.27,0.78-4.31-37.63-4.31-37.63s-30.97-14.9-43.12-13.72c0,0,19.21,32.54,12.94,31.75c-6.27-0.78-27.83-33.71-27.83-33.71
				s-31.75-5.88-36.85,12.94c-5.1,18.82,3.14,28.22,7.84,29.4c4.71,1.18,34.89,0.78,34.11,4.7c-0.78,3.92-21.17,10.19-32.54,6.66
				c0,0,12.54,30.97,29.01,29.4c16.46-1.57,21.56-11.76,31.75-12.54c10.19-0.78,17.64,1.96,12.54,4.7c-5.1,2.74-22.34,0.9-30.58,7.9
				c-8.23,7-14.9,11.31,0.39,14.45s42.73,1.18,48.22-10.58C2499.48,1137.19,2499.48,1137.19,2499.48,1137.19z"/>
			<g>
				<path class="st21" d="M2407.75,1080.74c0,0,82.32,26.66,91.73,56.45c0,0-0.39,13.33,7.84,28.62v5.88c0,0-8.62-19.99-13.33-22.74
					C2493.99,1148.95,2512.41,1123.07,2407.75,1080.74z"/>
				<path class="st21" d="M2507.32,1165.8c0,0,12.7,19.28,5.46,42.75l-3.27-0.88c0,0,3.17-25.85-3.47-38.85
					C2499.4,1155.82,2507.32,1165.8,2507.32,1165.8z"/>
			</g>
		</g>
		<g>
			<path class="st9" d="M2546.25,1114.48c0,0-38.75-21.7-20.67-51.16c0,0,14.47-18.09,29.97-22.74c0,0-8.27,43.92,0,44.96
				c8.27,1.03,5.68-49.61,5.68-49.61s40.82-19.64,56.84-18.09c0,0-25.32,42.89-17.05,41.86c8.27-1.03,36.69-44.44,36.69-44.44
				s41.86-7.75,48.57,17.05c6.72,24.8-4.13,37.21-10.33,38.75c-6.2,1.55-45.99,1.03-44.96,6.2s27.9,13.43,42.89,8.78
				c0,0-16.54,40.82-38.24,38.76c-21.7-2.07-28.42-15.5-41.86-16.54c-13.44-1.03-23.25,2.58-16.54,6.2
				c6.72,3.62,29.46,1.19,40.31,10.41c10.85,9.22,19.64,14.91-0.52,19.04s-56.32,1.55-63.56-13.95S2546.25,1114.48,2546.25,1114.48z
				"/>
			<g>
				<path class="st21" d="M2667.17,1040.07c0,0-108.51,35.14-120.92,74.41c0,0,0.52,17.57-10.33,37.72v7.75
					c0,0,11.37-26.35,17.57-29.97C2553.49,1129.98,2529.2,1095.88,2667.17,1040.07z"/>
				<path class="st21" d="M2535.92,1152.2c0,0-16.73,25.41-7.19,56.35l4.31-1.16c0,0-4.18-34.07,4.58-51.21
					C2546.36,1139.05,2535.92,1152.2,2535.92,1152.2z"/>
			</g>
		</g>
		<path class="st8" d="M2544.95,1275.63c41.93,0,75.92-33.99,75.92-75.92h-151.83C2469.03,1241.64,2503.02,1275.63,2544.95,1275.63z
			"/>
		<path class="st8" d="M2621.91,1279.49h-153.93l0,0c0-5.17,4.19-9.37,9.37-9.37h135.2
			C2617.72,1270.13,2621.91,1274.32,2621.91,1279.49L2621.91,1279.49z"/>
		<rect x="2466.53" y="1199.71" class="st7" width="156.05" height="2.33"/>
	</g>
	<g>
		<path class="st22" d="M2215.62,776.55c0,0-42.16,7.4-51.69,32.29c-9.53,24.88-63.38,426.85-63.38,426.85s26.67,21.13,83.9,13.54
			C2241.69,1241.64,2215.62,776.55,2215.62,776.55z"/>
		<path class="st23" d="M2152.86,1568.01c-0.14,7.2-1.05,14.01-3.66,16.7h-104.65c1.33-3.79,5.1-9.48,15.84-11.23
			c12.21-1.98,31.24-7.85,42.35-19.6c3.96-4.17,6.91-9.1,8.2-14.85c4.92-21.92,40.71,6.72,40.71,6.72
			S2153.09,1557.29,2152.86,1568.01z"/>
		<path class="st23" d="M2314.21,1568.01c-0.14,7.2-1.05,14.01-3.66,16.7h-104.65c1.33-3.79,5.1-9.48,15.84-11.23
			c12.21-1.98,31.24-7.85,42.35-19.6c3.96-4.17,6.91-9.1,8.2-14.85c4.92-21.92,40.71,6.72,40.71,6.72
			S2314.44,1557.29,2314.21,1568.01z"/>
		<path class="st24" d="M2107.79,1557.35c11.7,3.73,34.05,15.12,48.25,9.76c9.18-3.46,60.47-151.83,63.8-216.73
			c0.25-4.72,1.17-11.3,2.63-19.33c3.04-16.75,8.35-39.76,14.47-65.16c16.42-68.05,38.62-153.18,38.14-180.39
			c-0.74-42.23-125.86-8.85-125.86-8.85s-8.61,34.64-10.32,84.8c-3.4,99.56-12.74,267.73-38.14,384.52
			C2099.67,1550.92,2102.94,1555.81,2107.79,1557.35z"/>
		<path class="st25" d="M2194.63,1085.64l60.37,469.77c0,0,38.83,5.19,61.43-0.41c0,0,15.34-243.54,13.73-305.18
			c-1.61-61.64,13.9-164.93-3.54-176.32S2194.63,1085.64,2194.63,1085.64z"/>
		<path class="st20" d="M2334.98,798.51c0,0-69.51-44.94-119.36-21.96c-7.94,3.66-17.01,13.88-23.5,21.03
			c-18.02,19.86-53.23,335.3-53.23,335.3s99.96,33.85,196.09-11.49V798.51z"/>
		<path class="st22" d="M2211.66,775.41c0,0-70.37,28.84-79.9,51c-9.53,22.16-40.51,158.23-40.51,174.18
			c0,15.96,53.93,3.57,62.62-22.17c7.21-21.37,31.53-87.02,44.35-128.54L2211.66,775.41z"/>
		<g>
			<path class="st14" d="M2226.28,797.38c15.36,3.01,37.93-0.2,54.45-11.09c-7.46-17.82-10.52-31.88-11.6-40.98
				c-0.06-0.48-0.11-0.95-0.16-1.41c-0.49-4.72-0.42-7.92-0.19-9.39h-39.71c0,0-10.86,4.96-10.86,8.4c0,1.83-0.02,3.59-0.05,5.27
				c-0.08,4.57-0.26,8.55-0.5,11.98c-0.75,11.14-2.03,16.39-2.03,16.39S2210.76,794.34,2226.28,797.38z"/>
			<path class="st26" d="M2217.65,760.15c30.09,5.81,47.55-10.63,51.47-14.84c0.56-0.6,0.84-0.96,0.84-0.96
				c-0.32-0.16-0.65-0.3-1-0.44c-11.2-4.54-36.62-0.93-50.81,4.27C2218.07,752.74,2217.89,756.73,2217.65,760.15z"/>
			<path class="st14" d="M2278.95,727.99c-5.38,28.94-42.71,27.99-58.85,26.17c-4.54-0.5-7.4-1.08-7.4-1.08
				c-5.12-1.37-7.98-9.43-9.3-20c-2.63-20.91,0.69-51.59,4.22-59.44c5.32-11.81,15.33-24.58,52.93-15.37
				C2298.15,667.49,2285.85,690.91,2278.95,727.99z"/>
			<path class="st23" d="M2206.22,657.49c5.14-7.11,16.04-15.81,25.93-21.16c21.26-11.5,48.47,0.36,48.59,0.41
				c30.71,13.5,38.73,37,22.45,73.6c-17.22,38.71-33.61,34.35-33.61,34.35s3.48-2.16,3.17-14.23c-0.02-0.69-0.04-1.26-0.08-1.75
				c-0.16-2.47,0.71-4.95,2.56-6.6c3.81-3.4,5.67-13.7,2.48-16.57c-3.85-3.46-9.27,0.74-11,3.97c-1.51,2.28-4.22,3.08-6.74,1.49
				c-9.56-6.04-3.35-18.13-12.48-25.52c-9.13-7.39-27.67-1.19-41.37-7.08C2188.17,671.72,2202.35,662.85,2206.22,657.49z"/>
		</g>
		<path class="st22" d="M2201.94,1265.22c6.05,1.56,12.04,2.84,18,3.82c5.27,0.9,10.51,1.56,15.76,2.01
			c29.75,2.59,59.63-1.6,94.55-11.61c7.86-2.25,15.99-4.81,24.42-7.65c0.9-0.3-2.29-92.65-5.98-187.91
			c-0.37-9.83-0.76-19.71-1.14-29.51c-0.17-4.15-0.33-8.28-0.49-12.41c-3.34-84.25-6.66-160.33-7.35-164.43
			c-1.6-9.27-3.09-17.17-4.72-24.02c-4.76-19.96-10.67-30.91-23.55-40.32c-1.25-0.95-11.56-6.15-20.64-10.67
			c-7.53-3.74-14.22-7.01-14.22-7.01c-0.01,0-0.01,0-0.01,0c-2.99,1.47-6.59,8.33-10.36,17.97c-6.92,17.76-14.38,44.96-19.58,65.27
			c-0.02,0.06-0.02,0.09-0.02,0.1c0,0.01,0,0.01,0,0.01c-3.34,13.11-5.74,23.33-6.42,26.26c-1.16,4.95-2.69,14.53-4.5,27.51
			c-2.45,17.67-5.37,41.66-8.46,68.88c-0.32,2.8-0.64,5.63-0.95,8.49c-0.37,3.26-0.74,6.57-1.1,9.9c-0.12,1.07-0.24,2.14-0.35,3.22
			c-1.19,10.78-2.39,21.91-3.58,33.22c-0.99,9.35-15.17,16.11-16.15,25.62c-0.56,5.58-1.74,57.1-3.26,73.54
			C2200.74,1147.24,2201.51,1259.7,2201.94,1265.22z"/>
		<path class="st27" d="M2304.53,891.5c0.04,0.19,2.41,85.19-61.53,95.52c-63.94,10.33-21.46,13.06-21.46,13.06
			s120.3-5.11,122.29-8.29C2345.81,988.6,2304.53,891.5,2304.53,891.5z"/>
		<path class="st27" d="M2250.5,1023.5c0,0,1.2,0.85,3.5,2.33c0.04,0.02,0.08,0.05,0.12,0.07c9.75,6.23,38.71,23.2,80.86,34.58
			c4.42,1.2,9,2.33,13.71,3.38c-0.37-9.83-0.76-19.71-1.14-29.51c5.57-0.44,10.9-1.14,15.85-2.19c-0.17-1.29-0.34-2.59-0.51-3.88
			c-5.36-2.2-10.69-4.32-15.83-6.33c-4.19-1.64-8.24-3.19-12.07-4.64c-17.32-6.58-30.15-11.03-30.15-11.03l-51.25,16.24
			L2250.5,1023.5z"/>
		<path class="st22" d="M2236.94,1022.08c0,0,6.58,1.64,17.07,3.76c0.04,0,0.07,0.01,0.11,0.02c19.33,3.88,51.83,9.33,80.87,9.04
			c4.28-0.05,8.49-0.21,12.56-0.53c5.57-0.44,10.9-1.14,15.85-2.19c10.61-2.24,19.5-6.03,25.31-11.95
			c43.18-43.99-23.57-201.86-37.6-217.22c-16.39-17.93-46.29-24.23-62.8-26.39c-0.69-0.09-1.35-0.17-1.99-0.25
			c-5.81-0.69-9.53-0.83-9.74-0.84c-0.01,0-0.01,0-0.01,0s1.29,4.16,3.46,11.22c0.84,2.73,1.82,5.9,2.89,9.44
			c10.14,33.22,29.71,98.5,38.34,135.31c3.16,13.47,4.85,23.13,4.08,26.01c-3.37,12.57-38.26,19.04-60.37,21.9
			c-9.22,1.19-16.22,1.76-17.78,1.87c-0.11,0-0.21,0.01-0.33,0.02l-1.28,5.24l-3.06,12.57l-3.01,12.35L2236.94,1022.08z"/>
		<polygon class="st23" points="2116.49,1097.75 2264.8,1091.51 2234.71,906.67 2086.4,912.92 		"/>
		<path class="st14" d="M2246.86,981.31c0,0-28.87-2.01-30.32,4.72c-3.38,15.69,24.82,28.57,33.96,27.69
			C2259.63,1012.83,2253.51,980.26,2246.86,981.31z"/>
		<path class="st14" d="M2094.51,950.46c0,0,27.62-8.64,30.59-2.43c6.91,14.48-17.54,33.53-26.63,34.79
			C2089.38,984.08,2087.8,950.97,2094.51,950.46z"/>
		<path class="st27" d="M2273.57,766.24c0,0,13.7,2.38,19.79,11.11c0,0-46.96,82.24-46.75,81.5
			C2246.81,858.12,2261.95,776.34,2273.57,766.24z"/>
		<path class="st27" d="M2217.02,767.35c-4,1.51-11.67,9.37-13.4,13.71l-5.4,68.82c0,0,11.52-50.5,17.39-73.33
			C2217.11,770.74,2216.83,768.98,2217.02,767.35z"/>
		<path class="st28" d="M2185.55,908.74c0,0-1.17-5.13-7.92-4.53c-6.75,0.6-44.68,2.46-44.68,2.46s-7.31-0.12-6.64,4.57
			L2185.55,908.74z"/>
	</g>
	<polygon class="st20" points="1421.89,810.88 1424.14,827.63 1429.34,827.63 1431.07,810.88 	"/>
	<g>
		<path class="st20" d="M1353.69,1190.72c-14,0-29.87-2.77-47.36-8.32c-31.89-10.12-58.33-26.1-58.59-26.26l1.75-2.88
			c1.04,0.63,104.06,62.45,149.87,18.03c34.4-33.35,39.64-124.84,37.98-195.71c-1.8-77.05-11.96-147.01-12.06-147.71l3.34-0.49
			c0.1,0.7,10.29,70.87,12.1,148.12c2.44,104.06-10.69,170.75-39.01,198.21C1390.03,1185.03,1373.78,1190.72,1353.69,1190.72z"/>
	</g>
	<path class="st20" d="M1240.09,1161.6L1240.09,1161.6c-1.34-2.32-0.54-5.31,1.78-6.65l8.61-4.97c2.32-1.34,5.31-0.54,6.65,1.78l0,0
		c1.34,2.32,0.54,5.31-1.78,6.65l-8.61,4.97C1244.42,1164.72,1241.43,1163.92,1240.09,1161.6z"/>
	<g>
		<path class="st17" d="M1714.17,686.99c0.08-2.21,1.79-25.99,38.01-27.23c0,0-17.81,2.12-20.89,9.95c0,0,12.13-9.68,22.01-6.56
			c9.88,3.11,15.68,20.42,15.74,26.11c0.06,5.69-5.43,24.04-11.7,25.6c-2.37,0.59-5.11,0.43-7.59,0.01c1.67,2.6,3.3,5.48,4.87,8.69
			c14.45,29.67-0.45,58.67-12.69,55.46c-7.85-2.05-10.07,11.34-10.07,11.34l-76.25-61.73
			C1655.6,728.63,1683.61,670.68,1714.17,686.99z"/>
		<path class="st14" d="M1506.37,1057.98c6.37,5.64,23.29-13.73,25.62-16.3c0.12-0.25,0.25-0.37,0.25-0.37l-5.15-14.34
			c0,0-22.18-0.86-25.86,2.82C1497.54,1033.47,1499.38,1051.98,1506.37,1057.98z"/>
		<path class="st14" d="M1527.08,1026.98l2.21,14.83c0,0,0.98,0,2.69-0.13c5.39-0.37,18.51-1.1,33.34-2.69
			c14.15-1.39,29.99-3.49,42.35-6.49c7.13-1.73,13.12-3.77,16.97-6.14c16.05-9.8,42.41-39.83,59.56-69.86
			c0.5-0.73,0.87-1.47,1.23-2.21c5.77-10.29,10.43-20.53,13.13-29.89c1.49-5.13,2.38-10,2.55-14.47c0.37-7.72-0.49-14.34-2.09-20.11
			c-2.08-7.6-5.51-13.6-9.07-18.14c-0.49-0.73-0.97-1.47-1.71-2.08c-5.89-6.99-11.65-9.93-11.65-9.93c-2.35-0.97-4.84-0.24-7.43,1.9
			c-0.29,0.23-0.57,0.49-0.86,0.75c-0.01,0.01-0.02,0.03-0.04,0.04c-0.37,0.35-0.74,0.71-1.1,1.11v0.12
			c-0.95,0.99-1.92,2.17-2.92,3.51c-0.01,0.01-0.02,0.02-0.02,0.03c-1.83,2.46-3.7,5.48-5.51,8.96c-0.12,0.12-0.25,0.24-0.25,0.37
			c-0.61,1.1-1.22,2.32-1.96,3.68c-0.25,0.24-0.37,0.61-0.49,0.85c-1.35,2.82-2.7,5.76-4.05,8.82
			c-15.07,32.85-31.12,82.61-44.48,97.44c-3.11,3.45-12.25,8.68-23.29,14.24v0.01c-0.21,0.1-0.42,0.21-0.64,0.31
			c-0.02,0.01-0.04,0.02-0.07,0.03c-9.21,4.62-19.68,9.43-29.08,13.6C1539.34,1022.07,1527.08,1026.98,1527.08,1026.98z"/>
		<path class="st22" d="M1583.65,1002.05c0.71,1.63,3.93,9.32,9.13,17.13c4.22,6.34,9.76,12.77,16.32,16.07
			c5.04-2.43,14.12-6.01,17.97-8.38c13.92-8.51,33.78-32.62,49.99-58.48c2.47-3.95,4.86-7.92,7.13-11.9
			c0.5-0.73,0.87-1.47,1.23-2.21c5.77-10.29,10.43-20.53,13.13-29.89l-29.39-62.83l-0.08-0.15c-0.11,0.11-0.38,0.42-0.79,0.9
			c-0.01,0.01-0.02,0.03-0.04,0.04c-0.82,0.96-2.22,2.6-4.02,4.75c-0.01,0.01-0.02,0.02-0.02,0.03c-1.83,2.46-3.7,5.48-5.51,8.96
			c-0.12,0.12-0.25,0.24-0.25,0.37c-0.61,1.1-1.22,2.32-1.96,3.68c-0.25,0.24-0.37,0.61-0.49,0.85c-1.35,2.82-2.7,5.76-4.05,8.82
			c-15.07,32.85-31.12,82.61-44.48,97.44c-3.11,3.45-12.25,8.68-23.29,14.24v0.01C1583.95,1001.87,1583.77,1002.05,1583.65,1002.05z
			"/>
		<path class="st27" d="M1592.78,1019.19c4.22,6.34,9.76,12.77,16.32,16.07c5.04-2.43,14.12-6.01,17.97-8.38
			c13.92-8.51,33.78-32.62,49.99-58.48c-0.61-8.13-43.15,33.62-48.56,41.18C1624.43,1015.29,1603.38,1018.13,1592.78,1019.19z"/>
		<path class="st25" d="M1687.62,1561.11l16.2,6.03c0,0,70.34-97.56,79-183.4c1.55-15.32,1.03-30.17-2.31-43.88
			c0,0,0.69-3.93,1.89-10.87c0.55-3.24,1.24-7.14,2.02-11.61c2.29-13.1,5.43-31.03,9.03-51.45c8.28-46.98,19-107.03,27.33-151.18
			l-4.36-1.4l-47.22-15.23l-9.76-30.99l-35.16-9.25c0,0-7.85,15.36-14.88,87.94c-1.3,9.52-2.47,20.02-3.36,31.4
			c-2.74,34.75-2.94,77.85,3.34,127.13c1.61,12.61,3.65,25.64,6.17,39.02c1.85,9.81,2.13,23.18,1.35,38.53
			C1713.38,1452.06,1687.62,1561.11,1687.62,1561.11z"/>
		<path class="st24" d="M1706.05,1177.21l76.34,151.78c0.55-3.24,1.24-7.14,2.02-11.61c2.29-13.1,5.43-31.03,9.03-51.45
			c8.28-46.98,19-107.03,27.33-151.18l-4.36-1.4l-47.22-15.23l-9.76-30.99l-35.16-9.25c0,0-7.85,15.36-14.88,87.94
			C1708.11,1155.33,1706.94,1165.83,1706.05,1177.21z"/>
		<path class="st25" d="M1739.64,1077.35l1.77-15.16c29.61,7.87,108.72-21.97,108.72-21.97s28.68,25.21,24.92,85.65
			c-1.84,29.5-5.2,154.86-8.7,191.95c-1.27,13.44-2.38,23.01-2.83,26.83c-0.01,0.02-0.01,0.03-0.01,0.04
			c-0.14,1.17,0.27,2.27,0.86,3.29c5.16,8.76,9.44,17.89,12.95,27.22c34.42,91.72-5.3,204.68-5.3,204.68l-10.31-4.16
			c0,0-22.6-125.71-40.97-181.25c-3.12-9.42-6.11-16.82-8.85-21.25c-7.99-12.89-15.4-33.95-22.12-59
			c-12.71-47.36-22.95-108.96-29.76-156.51C1759.06,1157.77,1739.64,1077.35,1739.64,1077.35z"/>
		<path class="st14" d="M1717.17,901.5c50.9,2.79,39.72-73.09,36.61-72.71c-6.23-3.25-17.41-19.05-23.88-45.48l-2.2,1.02
			l-36.73,17.27c0,0,3.9,11.95,6.78,23.39c2.25,8.95,3.86,17.6,2.51,20.02c-2.9,1.18-4.63,1.92-4.63,1.92s0,0.01-0.01,0.04
			C1695.26,847.9,1703.59,900.76,1717.17,901.5z"/>
		<path class="st29" d="M1690.98,801.6c0,0,3.91,11.94,6.78,23.39c21.47-5.99,27.99-28.56,29.95-40.66L1690.98,801.6z"/>
		<path class="st14" d="M1686.45,814.25c0,0,51.37-11.89,43.47-43.76c-7.9-31.87-6.58-54.88-39.71-48.63
			c-33.13,6.24-36.46,19.98-36.42,31.26C1653.84,764.39,1672.89,816.52,1686.45,814.25z"/>
		<path class="st17" d="M1650.91,735.01c5.52-11.55,12.02-10.94,16.09-8.89c24.14-22.33,47.81-4.09,47.81-4.09
			c9.11,22.01,28.86,31.01,28.86,31.01s-7.89,8.08-30.76,7.9c-6.99-0.05-14.01-3.26-20.4-7.68c12.33,12.42,26.78,19.98,26.78,19.98
			c-28.63-5.48-47.83-38.62-49.8-42.14c-2.42,3.58-7.06,11.21-7.46,17.64c-0.53,8.75,2.48,25.74-2.53,26.38
			C1659.5,775.12,1642.62,752.34,1650.91,735.01z"/>
		<path class="st23" d="M1812.07,1588.3h81.57c0,0,1.96-12.43-2.31-21.86c-4.08-9.05-10.48-13.16-8.95-24.11
			c-5.18,5.34-13.63,11.31-25.42,9.73c-1.45,2.34-9.33,14.88-14.15,18.35C1837.48,1574.23,1813.71,1572.86,1812.07,1588.3z"/>
		<path class="st23" d="M1636.93,1588.3h81.57c0,0,3.05-13.01-2.31-21.86c-4.74-7.83-2.92-12.29,0.59-18.78
			c-3.7,1.51-8.48,2.89-13.74,2.59c-4.06-0.23-8.36-2.08-12.13-4.27c-3.51,4-18.54,21.04-23.24,24.41
			C1662.35,1574.23,1638.58,1572.86,1636.93,1588.3z"/>
		<path class="st22" d="M1669.1,861.43l13.37,179.62l8.18,109.99c12.58,3.91,24.56,6.97,35.92,9.32c0.75-9.22,3.73-20.25,3.73-20.25
			c-0.13,5.78,6.64,16.85,10.65,22.87c104.45,16.73,153.42-28.83,153.42-28.83c-4.06-40.33-21.66-121.91-42.73-190.3
			c-4.39-14.23-8.92-27.88-13.51-40.47c-10.44-28.63-17.08-43.58-22.71-55.17c-10.71-22.03-58.6-20.65-58.6-20.65
			c-9.22,33.24-34.57,53.96-34.57,53.96c-13.51-7.93-23.58-35.83-23.58-35.83L1669.1,861.43z"/>
		<path class="st30" d="M1746.26,821.42c0,0,8.69,0.58,10.55,6.14c0,0-11.34,45.65-34.56,53.96L1746.26,821.42z"/>
		<path class="st30" d="M1722.25,881.52c0,0-21.67-36.05-21.58-41.46c0,0-8.95,3.48-8.4,9.03
			C1692.27,849.1,1710.96,879.03,1722.25,881.52z"/>
		<path class="st27" d="M1781.73,865.28c-0.63,2.16-78.83,127.01-80.53,151.87c-1.71,24.86,32.88,10.81,33.42,7.57
			C1735.17,1021.48,1781.73,865.28,1781.73,865.28z"/>
		<path class="st27" d="M1682.47,1041.05l8.18,109.99c111.87-32.22,118.02-268.28,118.02-268.28l-69.14,124.82l-56.46,32.63
			C1683.07,1040.21,1682.86,1040.5,1682.47,1041.05z"/>
		<path class="st14" d="M1632.72,1051.13l4.29,15.69c0,0,5.39-0.98,13.98-2.57c2.57-0.5,4.04-0.86,4.04-0.86
			c6.86-1.34,15.07-3.18,24.02-5.15h0.13c15.32-3.68,32.47-8.09,46.94-12.99c1.3-0.45,2.57-0.91,3.82-1.36
			c8.55-3.16,15.94-6.47,21.19-9.79c0.62-0.37,1.1-0.74,1.72-1.22c14.33-10.42,31.37-41.05,44.61-73.91
			c1.84-4.53,3.56-9.07,5.26-13.48c6.13-16.42,11.04-32.6,13.98-46.58c1.84-8.33,3.06-15.93,3.31-22.18
			c0.12-2.2,0.25-4.29,0.12-6.25c-0.24-35.54-25.37-39.22-28.68-35.17c-4.16,5.03-8.57,13.23-13.11,23.16
			c-6.98,15.8-14.33,36.28-21.2,56.62c-3.81,11.16-7.48,22.31-11.16,32.6c-2.09,6.25-4.17,12.13-6.13,17.52
			c-3.8,10.3-7.23,18.64-10.29,23.9c-1.97,3.44-7.6,8.21-15.08,13.61c-1.98,1.44-4.11,2.92-6.33,4.44
			c-12.4,8.42-28.18,17.8-42.2,25.71c-6.86,3.92-13.36,7.48-18.75,10.42C1638.49,1048.06,1632.72,1051.13,1632.72,1051.13z"/>
		<path class="st22" d="M1708.14,1007.15c0,0-0.9,29.64,26.84,44.05c32.07-11.57,49.22-59.4,62.46-92.25
			c1.84-4.53,3.56-9.07,5.26-13.48c6.13-16.42,11.04-32.6,13.98-46.58c1.84-8.33,3.06-15.93,3.31-22.18
			c0.12-2.2,0.25-4.29,0.12-6.25c-0.24-35.54-25.37-39.22-28.68-35.17c-4.16,5.03-8.57,13.23-13.11,23.16
			c-6.98,15.8-14.33,36.28-21.2,56.62c-3.81,11.16-7.48,22.31-11.16,32.6c-2.09,6.25-4.17,12.13-6.13,17.52
			c-3.8,10.3-7.23,18.64-10.29,23.9c-1.97,3.44-7.6,8.21-15.08,13.61C1712.5,1004.15,1710.37,1005.63,1708.14,1007.15z"/>
		<path class="st22" d="M1583.49,1001.86c0.03,0.13,0.09,0.19,0.16,0.19c-0.04-0.1-0.08-0.17-0.1-0.23
			C1583.45,1001.63,1583.43,1001.63,1583.49,1001.86z"/>
		<g>
			<g>
				
					<rect x="1512.19" y="659.76" transform="matrix(-1 -1.224647e-16 1.224647e-16 -1 3045.7373 2239.6416)" class="st20" width="21.36" height="920.12"/>
				<g>
					<path class="st20" d="M1428.28,813.32h2.12c18.23,0,33.14-14.91,33.14-33.14v-87.71h-68.41v87.71
						C1395.14,798.41,1410.05,813.32,1428.28,813.32z"/>
					<path class="st8" d="M1428.17,807.31h0.87c15.56,0,28.29-12.73,28.29-28.29v-19.19h-57.45v19.19
						C1399.88,794.57,1412.61,807.31,1428.17,807.31z"/>
				</g>
				
					<rect x="1380.52" y="659.76" transform="matrix(-1 -1.224647e-16 1.224647e-16 -1 2914.0713 1336.0195)" class="st20" width="153.03" height="16.5"/>
				
					<rect x="1422.71" y="676.26" transform="matrix(-1 -1.224647e-16 1.224647e-16 -1 2857.2031 1372.4448)" class="st20" width="11.79" height="19.93"/>
			</g>
			<rect x="1465.16" y="1561.47" class="st20" width="120.26" height="23.23"/>
		</g>
		<rect x="1512.19" y="1031.61" class="st20" width="98.34" height="42.8"/>
		<rect x="1522.87" y="1039.63" class="st8" width="79.79" height="21.78"/>
		<path class="st14" d="M1585.27,1049.57c6.75-0.03,17.4-0.49,23.56-2.86c0,0-19.67-0.28-15.49-6.5c0.76-1.13,10.54-0.28,21.46-0.28
			c4.48,0,15.54,6.13,14.97,6.42c7.91-1.04,15.1-2.58,17.43-3.08c0.61-0.12,0.86-0.25,0.86-0.25l6.99,20.34c0,0-1.47,0.37-4.04,0.86
			c-6.5,1.59-19.85,5.03-32.48,9.93c-17.65,6.99-30.63-1.7-36.52-7.84c-3.73-3.89-6.68-9.06-6.47-12.81
			C1575.74,1049.4,1581.15,1049.58,1585.27,1049.57z"/>
	</g>
</g>
</svg>
