<?xml version="1.0" encoding="utf-8"?>
<!-- Generator: Adobe Illustrator 25.0.0, SVG Export Plug-In . SVG Version: 6.00 Build 0)  -->
<svg version="1.1" id="Layer_1" xmlns="http://www.w3.org/2000/svg" xmlns:xlink="http://www.w3.org/1999/xlink" x="0px" y="0px"
	 viewBox="0 0 2000 2000" style="enable-background:new 0 0 2000 2000;" xml:space="preserve">
<style type="text/css">
	.st0{fill:url(#SVGID_1_);}
	.st1{fill:url(#SVGID_2_);}
	.st2{fill:url(#SVGID_3_);}
	.st3{fill:url(#SVGID_4_);}
	.st4{fill:url(#SVGID_5_);}
	.st5{fill:url(#SVGID_6_);}
	.st6{fill:url(#SVGID_7_);}
	.st7{fill:url(#SVGID_8_);}
	.st8{fill:url(#SVGID_9_);}
</style>
<g>
	<g>
		<g>
			<linearGradient id="SVGID_1_" gradientUnits="userSpaceOnUse" x1="1107.7469" y1="500.8288" x2="1361.3505" y2="500.8288">
				<stop  offset="4.469408e-03" style="stop-color:#01674F"/>
				<stop  offset="1" style="stop-color:#00B48A"/>
			</linearGradient>
			<path class="st0" d="M1411.88,705.98c-10.72,0-21.42-3-30.79-8.97l-232.62-147.79c-16.63-10.56-26.56-28.62-26.58-48.33
				c-0.02-19.73,9.91-37.82,26.55-48.41l232.66-147.82c17.65-11.24,40.02-11.97,58.36-1.9c18.35,10.07,29.75,29.32,29.75,50.25
				v294.82c0,19.14-9.13,37.33-24.93,48.13C1434.47,702.65,1423.16,705.98,1411.88,705.98z M1285.55,500.83l69.3,44.03V456.8
				L1285.55,500.83z M1209.73,452.66l0.14,0.09C1209.83,452.72,1209.78,452.69,1209.73,452.66z"/>
		</g>
		<g>
			<linearGradient id="SVGID_2_" gradientUnits="userSpaceOnUse" x1="792.3831" y1="228.3375" x2="964.776" y2="752.3571">
				<stop  offset="0" style="stop-color:#33B993"/>
				<stop  offset="0.2715" style="stop-color:#2CAC88"/>
				<stop  offset="0.7603" style="stop-color:#149473"/>
				<stop  offset="1" style="stop-color:#008868"/>
			</linearGradient>
			<path class="st1" d="M927.08,748.67H780.72c-33.71,0-66.44-7-97.31-20.81c-29.77-13.32-56.49-28.23-79.42-52.49
				c-22.93-24.26-40.94-52.52-53.53-84.01c-13.05-32.65-19.67-67.28-19.67-102.94V306.46c0-29.53,22.63-53.47,50.55-53.47h51.65
				c27.92,0,50.55,23.94,50.55,53.47v160.53c0,68.62,52.59,124.25,117.45,124.25h105.82c64.87,0,117.45-55.63,117.45-124.25V306.46
				c0-29.53,22.63-53.47,50.55-53.47h51.65c27.92,0,50.55,23.94,50.55,53.47v181.97c0,35.66-6.62,70.29-19.67,102.94
				c-12.59,31.49-30.6,59.76-53.53,84.01c-22.93,24.25-49.65,39.17-79.42,52.49C993.52,741.67,960.78,748.67,927.08,748.67z"/>
		</g>
	</g>
</g>
<g>
	<g>
		<g>
			<linearGradient id="SVGID_3_" gradientUnits="userSpaceOnUse" x1="459.3582" y1="1371.0149" x2="577.0306" y2="1371.0149">
				<stop  offset="4.469408e-03" style="stop-color:#01674F"/>
				<stop  offset="1" style="stop-color:#00B48A"/>
			</linearGradient>
			<path class="st2" d="M600.48,1466.2c-4.97,0-9.94-1.39-14.29-4.16l-107.94-68.58c-7.71-4.9-12.33-13.28-12.33-22.42
				c-0.01-9.15,4.6-17.55,12.32-22.46l107.95-68.59c8.19-5.22,18.57-5.55,27.08-0.88c8.51,4.67,13.8,13.61,13.8,23.32v136.8
				c0,8.88-4.23,17.32-11.57,22.33C610.96,1464.66,605.71,1466.2,600.48,1466.2z M541.86,1371.01l32.16,20.43v-40.86L541.86,1371.01
				z M506.68,1348.66l0.07,0.04C506.72,1348.69,506.7,1348.68,506.68,1348.66z"/>
			<linearGradient id="SVGID_4_" gradientUnits="userSpaceOnUse" x1="313.0289" y1="1244.5785" x2="393.0194" y2="1487.7244">
				<stop  offset="0" style="stop-color:#33B993"/>
				<stop  offset="0.2715" style="stop-color:#2CAC88"/>
				<stop  offset="0.7603" style="stop-color:#149473"/>
				<stop  offset="1" style="stop-color:#008868"/>
			</linearGradient>
			<path class="st3" d="M375.53,1486.02h-67.91c-15.64,0-30.83-3.25-45.15-9.66c-13.81-6.18-26.21-13.1-36.85-24.35
				c-10.64-11.25-19-24.37-24.84-38.98c-6.06-15.15-9.13-31.22-9.13-47.76v-84.43c0-13.7,10.5-24.81,23.45-24.81h23.96
				c12.95,0,23.45,11.11,23.45,24.81v74.48c0,31.84,24.4,57.65,54.5,57.65h49.1c30.1,0,54.5-25.81,54.5-57.65v-74.48
				c0-13.7,10.5-24.81,23.45-24.81h23.96c12.95,0,23.45,11.11,23.45,24.81v84.43c0,16.54-3.07,32.61-9.13,47.76
				c-5.84,14.61-14.2,27.73-24.84,38.98c-10.64,11.25-23.04,18.17-36.85,24.35C406.36,1482.77,391.17,1486.02,375.53,1486.02z"/>
		</g>
		<g>
			<g>
				<linearGradient id="SVGID_5_" gradientUnits="userSpaceOnUse" x1="660.2153" y1="1071.5834" x2="1635.0359" y2="1543.4019">
					<stop  offset="0" style="stop-color:#33B993"/>
					<stop  offset="0.2697" style="stop-color:#2DAC88"/>
					<stop  offset="0.7532" style="stop-color:#149474"/>
					<stop  offset="1" style="stop-color:#008868"/>
				</linearGradient>
				<path class="st4" d="M912.37,1243.63v131.34c0,65.83-37.98,94.31-98.11,94.31c-60.45,0-98.43-28.48-98.43-94.31v-131.34h65.51
					v125.64c0,25,12.66,36.4,32.91,36.4s32.6-11.39,32.6-36.4v-125.64H912.37z"/>
				<linearGradient id="SVGID_6_" gradientUnits="userSpaceOnUse" x1="660.2153" y1="1071.5834" x2="1635.0359" y2="1543.4019">
					<stop  offset="0" style="stop-color:#33B993"/>
					<stop  offset="0.2697" style="stop-color:#2DAC88"/>
					<stop  offset="0.7532" style="stop-color:#149474"/>
					<stop  offset="1" style="stop-color:#008868"/>
				</linearGradient>
				<path class="st5" d="M1202.27,1243.63v221.54h-65.51v-121.53l-51.9,90.51h-19.94l-52.22-90.51v121.53h-65.51v-221.54h71.21
					l56.33,99.38l56.65-99.38H1202.27z"/>
				<linearGradient id="SVGID_7_" gradientUnits="userSpaceOnUse" x1="660.2153" y1="1071.5834" x2="1635.0359" y2="1543.4019">
					<stop  offset="0" style="stop-color:#33B993"/>
					<stop  offset="0.2697" style="stop-color:#2DAC88"/>
					<stop  offset="0.7532" style="stop-color:#149474"/>
					<stop  offset="1" style="stop-color:#008868"/>
				</linearGradient>
				<path class="st6" d="M1387.73,1411.37v53.8h-150.65v-221.54h147.48v54.12h-81.97v30.07h71.84v51.27h-71.84v32.28H1387.73z"/>
				<linearGradient id="SVGID_8_" gradientUnits="userSpaceOnUse" x1="660.2153" y1="1071.5834" x2="1635.0359" y2="1543.4019">
					<stop  offset="0" style="stop-color:#33B993"/>
					<stop  offset="0.2697" style="stop-color:#2DAC88"/>
					<stop  offset="0.7532" style="stop-color:#149474"/>
					<stop  offset="1" style="stop-color:#008868"/>
				</linearGradient>
				<path class="st7" d="M1566.86,1411.37v53.8h-150.65v-221.54h147.48v54.12h-81.97v30.07h71.84v51.27h-71.84v32.28H1566.86z"/>
				<linearGradient id="SVGID_9_" gradientUnits="userSpaceOnUse" x1="660.2153" y1="1071.5834" x2="1635.0359" y2="1543.4019">
					<stop  offset="0" style="stop-color:#33B993"/>
					<stop  offset="0.2697" style="stop-color:#2DAC88"/>
					<stop  offset="0.7532" style="stop-color:#149474"/>
					<stop  offset="1" style="stop-color:#008868"/>
				</linearGradient>
				<path class="st8" d="M1798.85,1354.4c0,68.68-45.57,110.77-119.31,110.77h-84.18v-221.54h84.18
					C1753.27,1243.63,1798.85,1285.72,1798.85,1354.4z M1733.34,1354.4c0-31.65-18.99-51.27-53.8-51.27h-18.99v102.54h18.99
					C1714.35,1405.67,1733.34,1386.36,1733.34,1354.4z"/>
			</g>
		</g>
	</g>
</g>
</svg>
